<?xml version="1.0" encoding="UTF-8" standalone="no"?>
<!DOCTYPE svg PUBLIC "-//W3C//DTD SVG 1.1//EN"
 "http://www.w3.org/Graphics/SVG/1.1/DTD/svg11.dtd">
<!-- Generated by graphviz version 5.0.0 (20220707.1540)
 -->
<!-- Title: dependencies Pages: 1 -->
<svg width="1190pt" height="174pt"
 viewBox="0.00 0.00 1190.00 173.80" xmlns="http://www.w3.org/2000/svg" xmlns:xlink="http://www.w3.org/1999/xlink">
<g id="graph0" class="graph" transform="scale(1 1) rotate(0) translate(4 169.8)">
<title>dependencies</title>
<polygon fill="white" stroke="transparent" points="-4,4 -4,-169.8 1186,-169.8 1186,4 -4,4"/>
<text text-anchor="middle" x="591" y="-8.2" font-family="sans-serif" font-size="14.00">dependencies</text>
<g id="clust1" class="cluster">
<title>cluster_EditionModule</title>
<polygon fill="none" stroke="black" stroke-dasharray="1,5" points="8,-32.8 8,-157.8 1174,-157.8 1174,-32.8 8,-32.8"/>
</g>
<g id="clust8" class="cluster">
<title>cluster_EditionModule_imports</title>
<polygon fill="none" stroke="black" points="888,-40.8 888,-92.8 1166,-92.8 1166,-40.8 888,-40.8"/>
</g>
<g id="clust2" class="cluster">
<title>cluster_EditionModule_declarations</title>
<polygon fill="none" stroke="black" points="16,-40.8 16,-92.8 880,-92.8 880,-40.8 16,-40.8"/>
</g>
<!-- EditionComponent -->
<g id="node1" class="node">
<title>EditionComponent</title>
<polygon fill="#ffffb3" stroke="black" points="872.05,-84.8 749.95,-84.8 749.95,-48.8 872.05,-48.8 872.05,-84.8"/>
<text text-anchor="middle" x="811" y="-62.6" font-family="Times,serif" font-size="14.00">EditionComponent</text>
</g>
<!-- EditionModule -->
<g id="node6" class="node">
<title>EditionModule</title>
<polygon fill="#8dd3c7" stroke="black" points="701.27,-149.8 698.27,-153.8 677.27,-153.8 674.27,-149.8 600.73,-149.8 600.73,-113.8 701.27,-113.8 701.27,-149.8"/>
<text text-anchor="middle" x="651" y="-127.6" font-family="Times,serif" font-size="14.00">EditionModule</text>
</g>
<!-- EditionComponent&#45;&gt;EditionModule -->
<g id="edge1" class="edge">
<title>EditionComponent&#45;&gt;EditionModule</title>
<path fill="none" stroke="black" d="M811,-84.83C811,-101.2 811,-122.8 811,-122.8 811,-122.8 711.62,-122.8 711.62,-122.8"/>
<polygon fill="black" stroke="black" points="711.63,-119.3 701.62,-122.8 711.62,-126.3 711.63,-119.3"/>
</g>
<!-- EditionOnlineComponent -->
<g id="node2" class="node">
<title>EditionOnlineComponent</title>
<polygon fill="#ffffb3" stroke="black" points="731.16,-84.8 570.84,-84.8 570.84,-48.8 731.16,-48.8 731.16,-84.8"/>
<text text-anchor="middle" x="651" y="-62.6" font-family="Times,serif" font-size="14.00">EditionOnlineComponent</text>
</g>
<!-- EditionOnlineComponent&#45;&gt;EditionModule -->
<g id="edge2" class="edge">
<title>EditionOnlineComponent&#45;&gt;EditionModule</title>
<path fill="none" stroke="black" d="M651,-84.91C651,-84.91 651,-103.79 651,-103.79"/>
<polygon fill="black" stroke="black" points="647.5,-103.79 651,-113.79 654.5,-103.79 647.5,-103.79"/>
</g>
<!-- EditionOutlineComponent -->
<g id="node3" class="node">
<title>EditionOutlineComponent</title>
<polygon fill="#ffffb3" stroke="black" points="552.05,-84.8 387.95,-84.8 387.95,-48.8 552.05,-48.8 552.05,-84.8"/>
<text text-anchor="middle" x="470" y="-62.6" font-family="Times,serif" font-size="14.00">EditionOutlineComponent</text>
</g>
<!-- EditionOutlineComponent&#45;&gt;EditionModule -->
<g id="edge3" class="edge">
<title>EditionOutlineComponent&#45;&gt;EditionModule</title>
<path fill="none" stroke="black" d="M470,-84.83C470,-101.2 470,-122.8 470,-122.8 470,-122.8 590.58,-122.8 590.58,-122.8"/>
<polygon fill="black" stroke="black" points="590.58,-126.3 600.58,-122.8 590.58,-119.3 590.58,-126.3"/>
</g>
<!-- EditionOverviewComponent -->
<g id="node4" class="node">
<title>EditionOverviewComponent</title>
<polygon fill="#ffffb3" stroke="black" points="369.75,-84.8 192.25,-84.8 192.25,-48.8 369.75,-48.8 369.75,-84.8"/>
<text text-anchor="middle" x="281" y="-62.6" font-family="Times,serif" font-size="14.00">EditionOverviewComponent</text>
</g>
<!-- EditionOverviewComponent&#45;&gt;EditionModule -->
<g id="edge4" class="edge">
<title>EditionOverviewComponent&#45;&gt;EditionModule</title>
<path fill="none" stroke="black" d="M281,-84.91C281,-104.14 281,-131.8 281,-131.8 281,-131.8 590.72,-131.8 590.72,-131.8"/>
<polygon fill="black" stroke="black" points="590.72,-135.3 600.72,-131.8 590.72,-128.3 590.72,-135.3"/>
</g>
<!-- EditionPrintComponent -->
<g id="node5" class="node">
<title>EditionPrintComponent</title>
<polygon fill="#ffffb3" stroke="black" points="173.78,-84.8 24.22,-84.8 24.22,-48.8 173.78,-48.8 173.78,-84.8"/>
<text text-anchor="middle" x="99" y="-62.6" font-family="Times,serif" font-size="14.00">EditionPrintComponent</text>
</g>
<!-- EditionPrintComponent&#45;&gt;EditionModule -->
<g id="edge5" class="edge">
<title>EditionPrintComponent&#45;&gt;EditionModule</title>
<path fill="none" stroke="black" d="M99,-85.09C99,-107.01 99,-140.8 99,-140.8 99,-140.8 590.55,-140.8 590.55,-140.8"/>
<polygon fill="black" stroke="black" points="590.55,-144.3 600.55,-140.8 590.55,-137.3 590.55,-144.3"/>
</g>
<!-- EditionRoutingModule -->
<g id="node7" class="node">
<title>EditionRoutingModule</title>
<polygon fill="#8dd3c7" stroke="black" points="1157.89,-84.8 1154.89,-88.8 1133.89,-88.8 1130.89,-84.8 1012.11,-84.8 1012.11,-48.8 1157.89,-48.8 1157.89,-84.8"/>
<text text-anchor="middle" x="1085" y="-62.6" font-family="Times,serif" font-size="14.00">EditionRoutingModule</text>
</g>
<!-- EditionRoutingModule&#45;&gt;EditionModule -->
<g id="edge6" class="edge">
<title>EditionRoutingModule&#45;&gt;EditionModule</title>
<path fill="none" stroke="black" d="M1085,-85.09C1085,-107.01 1085,-140.8 1085,-140.8 1085,-140.8 711.63,-140.8 711.63,-140.8"/>
<polygon fill="black" stroke="black" points="711.63,-137.3 701.63,-140.8 711.63,-144.3 711.63,-137.3"/>
</g>
<!-- SharedModule -->
<g id="node8" class="node">
<title>SharedModule</title>
<polygon fill="#8dd3c7" stroke="black" points="994.43,-84.8 991.43,-88.8 970.43,-88.8 967.43,-84.8 895.57,-84.8 895.57,-48.8 994.43,-48.8 994.43,-84.8"/>
<text text-anchor="middle" x="945" y="-62.6" font-family="Times,serif" font-size="14.00">SharedModule</text>
</g>
<!-- SharedModule&#45;&gt;EditionModule -->
<g id="edge7" class="edge">
<title>SharedModule&#45;&gt;EditionModule</title>
<path fill="none" stroke="black" d="M945,-84.91C945,-104.14 945,-131.8 945,-131.8 945,-131.8 711.54,-131.8 711.54,-131.8"/>
<polygon fill="black" stroke="black" points="711.54,-128.3 701.54,-131.8 711.54,-135.3 711.54,-128.3"/>
</g>
</g>
</svg>
