<?xml version="1.0" encoding="UTF-8" standalone="no"?>
<!DOCTYPE svg PUBLIC "-//W3C//DTD SVG 1.1//EN"
 "http://www.w3.org/Graphics/SVG/1.1/DTD/svg11.dtd">
<!-- Generated by graphviz version 2.47.0 (20210316.0004)
 -->
<!-- Title: dependencies Pages: 1 -->
<svg width="1190pt" height="211pt"
 viewBox="0.00 0.00 1190.00 211.00" xmlns="http://www.w3.org/2000/svg" xmlns:xlink="http://www.w3.org/1999/xlink">
<g id="graph0" class="graph" transform="scale(1 1) rotate(0) translate(4 207)">
<title>dependencies</title>
<polygon fill="white" stroke="transparent" points="-4,4 -4,-207 1186,-207 1186,4 -4,4"/>
<text text-anchor="start" x="570.01" y="-42.4" font-family="Times-12" font-weight="bold" font-size="14.00">Legend</text>
<polygon fill="#ffffb3" stroke="transparent" points="357,-10 357,-30 377,-30 377,-10 357,-10"/>
<text text-anchor="start" x="380.63" y="-15.4" font-family="Times-12" font-size="14.00"> &#160;Declarations</text>
<polygon fill="#8dd3c7" stroke="transparent" points="470,-10 470,-30 490,-30 490,-10 470,-10"/>
<text text-anchor="start" x="493.73" y="-15.4" font-family="Times-12" font-size="14.00"> &#160;Module</text>
<polygon fill="#80b1d3" stroke="transparent" points="556,-10 556,-30 576,-30 576,-10 556,-10"/>
<text text-anchor="start" x="579.78" y="-15.4" font-family="Times-12" font-size="14.00"> &#160;Bootstrap</text>
<polygon fill="#fdb462" stroke="transparent" points="653,-10 653,-30 673,-30 673,-10 653,-10"/>
<text text-anchor="start" x="676.67" y="-15.4" font-family="Times-12" font-size="14.00"> &#160;Providers</text>
<polygon fill="#fb8072" stroke="transparent" points="749,-10 749,-30 769,-30 769,-10 749,-10"/>
<text text-anchor="start" x="772.73" y="-15.4" font-family="Times-12" font-size="14.00"> &#160;Exports</text>
<g id="clust1" class="cluster">
<title>cluster_EditionModule</title>
<polygon fill="none" stroke="black" stroke-dasharray="1,5" points="8,-70 8,-195 1174,-195 1174,-70 8,-70"/>
</g>
<g id="clust8" class="cluster">
<title>cluster_EditionModule_imports</title>
<polygon fill="none" stroke="black" points="888,-78 888,-130 1166,-130 1166,-78 888,-78"/>
</g>
<g id="clust2" class="cluster">
<title>cluster_EditionModule_declarations</title>
<polygon fill="none" stroke="black" points="16,-78 16,-130 880,-130 880,-78 16,-78"/>
</g>
<!-- EditionComponent -->
<g id="node1" class="node">
<title>EditionComponent</title>
<polygon fill="#ffffb3" stroke="black" points="872.06,-122 749.94,-122 749.94,-86 872.06,-86 872.06,-122"/>
<text text-anchor="middle" x="811" y="-99.8" font-family="Times,serif" font-size="14.00">EditionComponent</text>
</g>
<!-- EditionModule -->
<g id="node6" class="node">
<title>EditionModule</title>
<polygon fill="#8dd3c7" stroke="black" points="701.27,-187 698.27,-191 677.27,-191 674.27,-187 600.73,-187 600.73,-151 701.27,-151 701.27,-187"/>
<text text-anchor="middle" x="651" y="-164.8" font-family="Times,serif" font-size="14.00">EditionModule</text>
</g>
<!-- EditionComponent&#45;&gt;EditionModule -->
<g id="edge1" class="edge">
<title>EditionComponent&#45;&gt;EditionModule</title>
<path fill="none" stroke="black" d="M811,-122.03C811,-138.4 811,-160 811,-160 811,-160 711.62,-160 711.62,-160"/>
<polygon fill="black" stroke="black" points="711.63,-156.5 701.62,-160 711.62,-163.5 711.63,-156.5"/>
</g>
<!-- EditionOnlineComponent -->
<g id="node2" class="node">
<title>EditionOnlineComponent</title>
<polygon fill="#ffffb3" stroke="black" points="731.16,-122 570.84,-122 570.84,-86 731.16,-86 731.16,-122"/>
<text text-anchor="middle" x="651" y="-99.8" font-family="Times,serif" font-size="14.00">EditionOnlineComponent</text>
</g>
<!-- EditionOnlineComponent&#45;&gt;EditionModule -->
<g id="edge2" class="edge">
<title>EditionOnlineComponent&#45;&gt;EditionModule</title>
<path fill="none" stroke="black" d="M651,-122.11C651,-122.11 651,-140.99 651,-140.99"/>
<polygon fill="black" stroke="black" points="647.5,-140.99 651,-150.99 654.5,-140.99 647.5,-140.99"/>
</g>
<!-- EditionOutlineComponent -->
<g id="node3" class="node">
<title>EditionOutlineComponent</title>
<polygon fill="#ffffb3" stroke="black" points="552.05,-122 387.95,-122 387.95,-86 552.05,-86 552.05,-122"/>
<text text-anchor="middle" x="470" y="-99.8" font-family="Times,serif" font-size="14.00">EditionOutlineComponent</text>
</g>
<!-- EditionOutlineComponent&#45;&gt;EditionModule -->
<g id="edge3" class="edge">
<title>EditionOutlineComponent&#45;&gt;EditionModule</title>
<path fill="none" stroke="black" d="M470,-122.03C470,-138.4 470,-160 470,-160 470,-160 590.58,-160 590.58,-160"/>
<polygon fill="black" stroke="black" points="590.58,-163.5 600.58,-160 590.58,-156.5 590.58,-163.5"/>
</g>
<!-- EditionOverviewComponent -->
<g id="node4" class="node">
<title>EditionOverviewComponent</title>
<polygon fill="#ffffb3" stroke="black" points="369.75,-122 192.25,-122 192.25,-86 369.75,-86 369.75,-122"/>
<text text-anchor="middle" x="281" y="-99.8" font-family="Times,serif" font-size="14.00">EditionOverviewComponent</text>
</g>
<!-- EditionOverviewComponent&#45;&gt;EditionModule -->
<g id="edge4" class="edge">
<title>EditionOverviewComponent&#45;&gt;EditionModule</title>
<path fill="none" stroke="black" d="M281,-122.11C281,-141.34 281,-169 281,-169 281,-169 590.72,-169 590.72,-169"/>
<polygon fill="black" stroke="black" points="590.72,-172.5 600.72,-169 590.72,-165.5 590.72,-172.5"/>
</g>
<!-- EditionPrintComponent -->
<g id="node5" class="node">
<title>EditionPrintComponent</title>
<polygon fill="#ffffb3" stroke="black" points="173.78,-122 24.22,-122 24.22,-86 173.78,-86 173.78,-122"/>
<text text-anchor="middle" x="99" y="-99.8" font-family="Times,serif" font-size="14.00">EditionPrintComponent</text>
</g>
<!-- EditionPrintComponent&#45;&gt;EditionModule -->
<g id="edge5" class="edge">
<title>EditionPrintComponent&#45;&gt;EditionModule</title>
<path fill="none" stroke="black" d="M99,-122.29C99,-144.21 99,-178 99,-178 99,-178 590.55,-178 590.55,-178"/>
<polygon fill="black" stroke="black" points="590.55,-181.5 600.55,-178 590.55,-174.5 590.55,-181.5"/>
</g>
<!-- EditionRoutingModule -->
<g id="node7" class="node">
<title>EditionRoutingModule</title>
<polygon fill="#8dd3c7" stroke="black" points="1157.89,-122 1154.89,-126 1133.89,-126 1130.89,-122 1012.11,-122 1012.11,-86 1157.89,-86 1157.89,-122"/>
<text text-anchor="middle" x="1085" y="-99.8" font-family="Times,serif" font-size="14.00">EditionRoutingModule</text>
</g>
<!-- EditionRoutingModule&#45;&gt;EditionModule -->
<g id="edge6" class="edge">
<title>EditionRoutingModule&#45;&gt;EditionModule</title>
<path fill="none" stroke="black" d="M1085,-122.29C1085,-144.21 1085,-178 1085,-178 1085,-178 711.63,-178 711.63,-178"/>
<polygon fill="black" stroke="black" points="711.63,-174.5 701.63,-178 711.63,-181.5 711.63,-174.5"/>
</g>
<!-- SharedModule -->
<g id="node8" class="node">
<title>SharedModule</title>
<polygon fill="#8dd3c7" stroke="black" points="994.42,-122 991.42,-126 970.42,-126 967.42,-122 895.58,-122 895.58,-86 994.42,-86 994.42,-122"/>
<text text-anchor="middle" x="945" y="-99.8" font-family="Times,serif" font-size="14.00">SharedModule</text>
</g>
<!-- SharedModule&#45;&gt;EditionModule -->
<g id="edge7" class="edge">
<title>SharedModule&#45;&gt;EditionModule</title>
<path fill="none" stroke="black" d="M945,-122.11C945,-141.34 945,-169 945,-169 945,-169 711.54,-169 711.54,-169"/>
<polygon fill="black" stroke="black" points="711.54,-165.5 701.54,-169 711.54,-172.5 711.54,-165.5"/>
</g>
</g>
</svg>
