<?xml version="1.0" encoding="UTF-8" standalone="no"?>
<!DOCTYPE svg PUBLIC "-//W3C//DTD SVG 1.1//EN"
 "http://www.w3.org/Graphics/SVG/1.1/DTD/svg11.dtd">
<!-- Generated by graphviz version 2.47.0 (20210316.0004)
 -->
<!-- Title: dependencies Pages: 1 -->
<svg width="1190pt" height="211pt"
 viewBox="0.00 0.00 1190.00 211.00" xmlns="http://www.w3.org/2000/svg" xmlns:xlink="http://www.w3.org/1999/xlink">
<g id="graph0" class="graph" transform="scale(1 1) rotate(0) translate(4 207)">
<title>dependencies</title>
<polygon fill="white" stroke="transparent" points="-4,4 -4,-207 1186,-207 1186,4 -4,4"/>
<text text-anchor="start" x="570.01" y="-42.4" font-family="sans-serif" font-weight="bold" font-size="14.00">Legend</text>
<polygon fill="#ffffb3" stroke="transparent" points="357,-10 357,-30 377,-30 377,-10 357,-10"/>
<text text-anchor="start" x="380.63" y="-15.4" font-family="sans-serif" font-size="14.00"> &#160;Declarations</text>
<polygon fill="#8dd3c7" stroke="transparent" points="470,-10 470,-30 490,-30 490,-10 470,-10"/>
<text text-anchor="start" x="493.73" y="-15.4" font-family="sans-serif" font-size="14.00"> &#160;Module</text>
<polygon fill="#80b1d3" stroke="transparent" points="556,-10 556,-30 576,-30 576,-10 556,-10"/>
<text text-anchor="start" x="579.78" y="-15.4" font-family="sans-serif" font-size="14.00"> &#160;Bootstrap</text>
<polygon fill="#fdb462" stroke="transparent" points="653,-10 653,-30 673,-30 673,-10 653,-10"/>
<text text-anchor="start" x="676.67" y="-15.4" font-family="sans-serif" font-size="14.00"> &#160;Providers</text>
<polygon fill="#fb8072" stroke="transparent" points="749,-10 749,-30 769,-30 769,-10 749,-10"/>
<text text-anchor="start" x="772.73" y="-15.4" font-family="sans-serif" font-size="14.00"> &#160;Exports</text>
<g id="clust1" class="cluster">
<title>cluster_EditionModule</title>
<polygon fill="none" stroke="black" stroke-dasharray="1,5" points="8,-70 8,-195 1174,-195 1174,-70 8,-70"/>
</g>
<g id="clust2" class="cluster">
<title>cluster_EditionModule_declarations</title>
<polygon fill="none" stroke="black" points="302,-78 302,-130 1166,-130 1166,-78 302,-78"/>
</g>
<g id="clust8" class="cluster">
<title>cluster_EditionModule_imports</title>
<polygon fill="none" stroke="black" points="16,-78 16,-130 294,-130 294,-78 16,-78"/>
</g>
<!-- EditionComponent -->
<g id="node1" class="node">
<title>EditionComponent</title>
<polygon fill="#ffffb3" stroke="black" points="1158.06,-122 1035.94,-122 1035.94,-86 1158.06,-86 1158.06,-122"/>
<text text-anchor="middle" x="1097" y="-99.8" font-family="Times,serif" font-size="14.00">EditionComponent</text>
</g>
<!-- EditionModule -->
<g id="node6" class="node">
<title>EditionModule</title>
<polygon fill="#8dd3c7" stroke="black" points="617.27,-187 614.27,-191 593.27,-191 590.27,-187 516.73,-187 516.73,-151 617.27,-151 617.27,-187"/>
<text text-anchor="middle" x="567" y="-164.8" font-family="Times,serif" font-size="14.00">EditionModule</text>
</g>
<!-- EditionComponent&#45;&gt;EditionModule -->
<g id="edge1" class="edge">
<title>EditionComponent&#45;&gt;EditionModule</title>
<path fill="none" stroke="black" d="M1097,-122.29C1097,-144.21 1097,-178 1097,-178 1097,-178 627.34,-178 627.34,-178"/>
<polygon fill="black" stroke="black" points="627.34,-174.5 617.34,-178 627.34,-181.5 627.34,-174.5"/>
</g>
<!-- EditionOnlineComponent -->
<g id="node2" class="node">
<title>EditionOnlineComponent</title>
<polygon fill="#ffffb3" stroke="black" points="1017.16,-122 856.84,-122 856.84,-86 1017.16,-86 1017.16,-122"/>
<text text-anchor="middle" x="937" y="-99.8" font-family="Times,serif" font-size="14.00">EditionOnlineComponent</text>
</g>
<!-- EditionOnlineComponent&#45;&gt;EditionModule -->
<g id="edge2" class="edge">
<title>EditionOnlineComponent&#45;&gt;EditionModule</title>
<path fill="none" stroke="black" d="M937,-122.11C937,-141.34 937,-169 937,-169 937,-169 627.28,-169 627.28,-169"/>
<polygon fill="black" stroke="black" points="627.28,-165.5 617.28,-169 627.28,-172.5 627.28,-165.5"/>
</g>
<!-- EditionOutlineComponent -->
<g id="node3" class="node">
<title>EditionOutlineComponent</title>
<polygon fill="#ffffb3" stroke="black" points="838.05,-122 673.95,-122 673.95,-86 838.05,-86 838.05,-122"/>
<text text-anchor="middle" x="756" y="-99.8" font-family="Times,serif" font-size="14.00">EditionOutlineComponent</text>
</g>
<!-- EditionOutlineComponent&#45;&gt;EditionModule -->
<g id="edge3" class="edge">
<title>EditionOutlineComponent&#45;&gt;EditionModule</title>
<path fill="none" stroke="black" d="M756,-122.03C756,-138.4 756,-160 756,-160 756,-160 627.65,-160 627.65,-160"/>
<polygon fill="black" stroke="black" points="627.65,-156.5 617.65,-160 627.65,-163.5 627.65,-156.5"/>
</g>
<!-- EditionOverviewComponent -->
<g id="node4" class="node">
<title>EditionOverviewComponent</title>
<polygon fill="#ffffb3" stroke="black" points="655.75,-122 478.25,-122 478.25,-86 655.75,-86 655.75,-122"/>
<text text-anchor="middle" x="567" y="-99.8" font-family="Times,serif" font-size="14.00">EditionOverviewComponent</text>
</g>
<!-- EditionOverviewComponent&#45;&gt;EditionModule -->
<g id="edge4" class="edge">
<title>EditionOverviewComponent&#45;&gt;EditionModule</title>
<path fill="none" stroke="black" d="M567,-122.11C567,-122.11 567,-140.99 567,-140.99"/>
<polygon fill="black" stroke="black" points="563.5,-140.99 567,-150.99 570.5,-140.99 563.5,-140.99"/>
</g>
<!-- EditionPrintComponent -->
<g id="node5" class="node">
<title>EditionPrintComponent</title>
<polygon fill="#ffffb3" stroke="black" points="459.78,-122 310.22,-122 310.22,-86 459.78,-86 459.78,-122"/>
<text text-anchor="middle" x="385" y="-99.8" font-family="Times,serif" font-size="14.00">EditionPrintComponent</text>
</g>
<!-- EditionPrintComponent&#45;&gt;EditionModule -->
<g id="edge5" class="edge">
<title>EditionPrintComponent&#45;&gt;EditionModule</title>
<path fill="none" stroke="black" d="M385,-122.03C385,-138.4 385,-160 385,-160 385,-160 506.3,-160 506.3,-160"/>
<polygon fill="black" stroke="black" points="506.3,-163.5 516.3,-160 506.3,-156.5 506.3,-163.5"/>
</g>
<!-- EditionRoutingModule -->
<g id="node7" class="node">
<title>EditionRoutingModule</title>
<polygon fill="#8dd3c7" stroke="black" points="285.89,-122 282.89,-126 261.89,-126 258.89,-122 140.11,-122 140.11,-86 285.89,-86 285.89,-122"/>
<text text-anchor="middle" x="213" y="-99.8" font-family="Times,serif" font-size="14.00">EditionRoutingModule</text>
</g>
<!-- EditionRoutingModule&#45;&gt;EditionModule -->
<g id="edge6" class="edge">
<title>EditionRoutingModule&#45;&gt;EditionModule</title>
<path fill="none" stroke="black" d="M213,-122.11C213,-141.34 213,-169 213,-169 213,-169 506.66,-169 506.66,-169"/>
<polygon fill="black" stroke="black" points="506.66,-172.5 516.66,-169 506.66,-165.5 506.66,-172.5"/>
</g>
<!-- SharedModule -->
<g id="node8" class="node">
<title>SharedModule</title>
<polygon fill="#8dd3c7" stroke="black" points="122.42,-122 119.42,-126 98.42,-126 95.42,-122 23.58,-122 23.58,-86 122.42,-86 122.42,-122"/>
<text text-anchor="middle" x="73" y="-99.8" font-family="Times,serif" font-size="14.00">SharedModule</text>
</g>
<!-- SharedModule&#45;&gt;EditionModule -->
<g id="edge7" class="edge">
<title>SharedModule&#45;&gt;EditionModule</title>
<path fill="none" stroke="black" d="M73,-122.29C73,-144.21 73,-178 73,-178 73,-178 506.45,-178 506.45,-178"/>
<polygon fill="black" stroke="black" points="506.45,-181.5 516.45,-178 506.45,-174.5 506.45,-181.5"/>
</g>
</g>
</svg>
