<?xml version="1.0" encoding="UTF-8" standalone="no"?>
<!DOCTYPE svg PUBLIC "-//W3C//DTD SVG 1.1//EN"
 "http://www.w3.org/Graphics/SVG/1.1/DTD/svg11.dtd">
<!-- Generated by graphviz version 5.0.0 (20220707.1540)
 -->
<!-- Title: dependencies Pages: 1 -->
<svg width="1020pt" height="247pt"
 viewBox="0.00 0.00 1020.00 246.80" xmlns="http://www.w3.org/2000/svg" xmlns:xlink="http://www.w3.org/1999/xlink">
<g id="graph0" class="graph" transform="scale(1 1) rotate(0) translate(4 242.8)">
<title>dependencies</title>
<polygon fill="white" stroke="transparent" points="-4,4 -4,-242.8 1016,-242.8 1016,4 -4,4"/>
<text text-anchor="middle" x="506" y="-8.2" font-family="sans-serif" font-size="14.00">dependencies</text>
<g id="clust1" class="cluster">
<title>cluster_PageModule</title>
<polygon fill="none" stroke="black" stroke-dasharray="1,5" points="8,-32.8 8,-230.8 1004,-230.8 1004,-32.8 8,-32.8"/>
</g>
<g id="clust2" class="cluster">
<title>cluster_PageModule_declarations</title>
<polygon fill="none" stroke="black" points="138,-40.8 138,-92.8 996,-92.8 996,-40.8 138,-40.8"/>
</g>
<g id="clust10" class="cluster">
<title>cluster_PageModule_exports</title>
<polygon fill="none" stroke="black" points="66,-170.8 66,-222.8 946,-222.8 946,-170.8 66,-170.8"/>
</g>
<g id="clust9" class="cluster">
<title>cluster_PageModule_imports</title>
<polygon fill="none" stroke="black" points="16,-40.8 16,-92.8 130,-92.8 130,-40.8 16,-40.8"/>
</g>
<!-- MainTextComponent -->
<g id="node1" class="node">
<title>MainTextComponent</title>
<polygon fill="#ffffb3" stroke="black" points="988.04,-84.8 851.96,-84.8 851.96,-48.8 988.04,-48.8 988.04,-84.8"/>
<text text-anchor="middle" x="920" y="-62.6" font-family="Times,serif" font-size="14.00">MainTextComponent</text>
</g>
<!-- PageModule -->
<g id="node7" class="node">
<title>PageModule</title>
<polygon fill="#8dd3c7" stroke="black" points="550.27,-149.8 547.27,-153.8 526.27,-153.8 523.27,-149.8 463.73,-149.8 463.73,-113.8 550.27,-113.8 550.27,-149.8"/>
<text text-anchor="middle" x="507" y="-127.6" font-family="Times,serif" font-size="14.00">PageModule</text>
</g>
<!-- MainTextComponent&#45;&gt;PageModule -->
<g id="edge1" class="edge">
<title>MainTextComponent&#45;&gt;PageModule</title>
<path fill="none" stroke="black" d="M894.88,-84.91C894.88,-104.14 894.88,-131.8 894.88,-131.8 894.88,-131.8 560.37,-131.8 560.37,-131.8"/>
<polygon fill="black" stroke="black" points="560.37,-128.3 550.37,-131.8 560.37,-135.3 560.37,-128.3"/>
</g>
<!-- MenuComponent -->
<g id="node2" class="node">
<title>MenuComponent</title>
<polygon fill="#ffffb3" stroke="black" points="833.99,-84.8 720.01,-84.8 720.01,-48.8 833.99,-48.8 833.99,-84.8"/>
<text text-anchor="middle" x="777" y="-62.6" font-family="Times,serif" font-size="14.00">MenuComponent</text>
</g>
<!-- MenuComponent&#45;&gt;PageModule -->
<g id="edge2" class="edge">
<title>MenuComponent&#45;&gt;PageModule</title>
<path fill="none" stroke="black" d="M749.88,-84.82C749.88,-102.17 749.88,-125.8 749.88,-125.8 749.88,-125.8 560.42,-125.8 560.42,-125.8"/>
<polygon fill="black" stroke="black" points="560.42,-122.3 550.42,-125.8 560.42,-129.3 560.42,-122.3"/>
</g>
<!-- PageComponent -->
<g id="node3" class="node">
<title>PageComponent</title>
<polygon fill="#ffffb3" stroke="black" points="702.05,-84.8 593.95,-84.8 593.95,-48.8 702.05,-48.8 702.05,-84.8"/>
<text text-anchor="middle" x="648" y="-62.6" font-family="Times,serif" font-size="14.00">PageComponent</text>
</g>
<!-- PageComponent&#45;&gt;PageModule -->
<g id="edge3" class="edge">
<title>PageComponent&#45;&gt;PageModule</title>
<path fill="none" stroke="black" d="M618.88,-85.04C618.88,-100.37 618.88,-119.8 618.88,-119.8 618.88,-119.8 560.57,-119.8 560.57,-119.8"/>
<polygon fill="black" stroke="black" points="560.57,-116.3 550.57,-119.8 560.57,-123.3 560.57,-116.3"/>
</g>
<!-- RightTextComponent -->
<g id="node4" class="node">
<title>RightTextComponent</title>
<polygon fill="#ffffb3" stroke="black" points="576.1,-84.8 437.9,-84.8 437.9,-48.8 576.1,-48.8 576.1,-84.8"/>
<text text-anchor="middle" x="507" y="-62.6" font-family="Times,serif" font-size="14.00">RightTextComponent</text>
</g>
<!-- RightTextComponent&#45;&gt;PageModule -->
<g id="edge4" class="edge">
<title>RightTextComponent&#45;&gt;PageModule</title>
<path fill="none" stroke="black" d="M507,-84.91C507,-84.91 507,-103.79 507,-103.79"/>
<polygon fill="black" stroke="black" points="503.5,-103.79 507,-113.79 510.5,-103.79 503.5,-103.79"/>
</g>
<!-- SearchComponent -->
<g id="node5" class="node">
<title>SearchComponent</title>
<polygon fill="#ffffb3" stroke="black" points="419.92,-84.8 300.08,-84.8 300.08,-48.8 419.92,-48.8 419.92,-84.8"/>
<text text-anchor="middle" x="360" y="-62.6" font-family="Times,serif" font-size="14.00">SearchComponent</text>
</g>
<!-- SearchComponent&#45;&gt;PageModule -->
<g id="edge5" class="edge">
<title>SearchComponent&#45;&gt;PageModule</title>
<path fill="none" stroke="black" d="M395.95,-85.04C395.95,-100.37 395.95,-119.8 395.95,-119.8 395.95,-119.8 453.43,-119.8 453.43,-119.8"/>
<polygon fill="black" stroke="black" points="453.43,-123.3 463.43,-119.8 453.43,-116.3 453.43,-123.3"/>
</g>
<!-- SubMenuComponent -->
<g id="node6" class="node">
<title>SubMenuComponent</title>
<polygon fill="#ffffb3" stroke="black" points="281.78,-84.8 146.22,-84.8 146.22,-48.8 281.78,-48.8 281.78,-84.8"/>
<text text-anchor="middle" x="214" y="-62.6" font-family="Times,serif" font-size="14.00">SubMenuComponent</text>
</g>
<!-- SubMenuComponent&#45;&gt;PageModule -->
<g id="edge6" class="edge">
<title>SubMenuComponent&#45;&gt;PageModule</title>
<path fill="none" stroke="black" d="M256.71,-84.82C256.71,-102.17 256.71,-125.8 256.71,-125.8 256.71,-125.8 453.69,-125.8 453.69,-125.8"/>
<polygon fill="black" stroke="black" points="453.69,-129.3 463.69,-125.8 453.69,-122.3 453.69,-129.3"/>
</g>
<!-- MainTextComponent  -->
<g id="node9" class="node">
<title>MainTextComponent </title>
<polygon fill="#fb8072" stroke="black" points="938.04,-214.8 797.96,-214.8 797.96,-178.8 938.04,-178.8 938.04,-214.8"/>
<text text-anchor="middle" x="868" y="-192.6" font-family="Times,serif" font-size="14.00">MainTextComponent </text>
</g>
<!-- PageModule&#45;&gt;MainTextComponent  -->
<g id="edge8" class="edge">
<title>PageModule&#45;&gt;MainTextComponent </title>
<path fill="none" stroke="black" stroke-dasharray="5,2" d="M550.29,-137.8C635.33,-137.8 815.99,-137.8 815.99,-137.8 815.99,-137.8 815.99,-168.78 815.99,-168.78"/>
<polygon fill="black" stroke="black" points="812.49,-168.78 815.99,-178.78 819.49,-168.78 812.49,-168.78"/>
</g>
<!-- MenuComponent  -->
<g id="node10" class="node">
<title>MenuComponent </title>
<polygon fill="#fb8072" stroke="black" points="779.99,-214.8 662.01,-214.8 662.01,-178.8 779.99,-178.8 779.99,-214.8"/>
<text text-anchor="middle" x="721" y="-192.6" font-family="Times,serif" font-size="14.00">MenuComponent </text>
</g>
<!-- PageModule&#45;&gt;MenuComponent  -->
<g id="edge9" class="edge">
<title>PageModule&#45;&gt;MenuComponent </title>
<path fill="none" stroke="black" stroke-dasharray="5,2" d="M550.32,-143.8C602.22,-143.8 682.26,-143.8 682.26,-143.8 682.26,-143.8 682.26,-168.56 682.26,-168.56"/>
<polygon fill="black" stroke="black" points="678.76,-168.56 682.26,-178.56 685.76,-168.56 678.76,-168.56"/>
</g>
<!-- PageComponent  -->
<g id="node11" class="node">
<title>PageComponent </title>
<polygon fill="#fb8072" stroke="black" points="644.04,-214.8 531.96,-214.8 531.96,-178.8 644.04,-178.8 644.04,-214.8"/>
<text text-anchor="middle" x="588" y="-192.6" font-family="Times,serif" font-size="14.00">PageComponent </text>
</g>
<!-- PageModule&#45;&gt;PageComponent  -->
<g id="edge10" class="edge">
<title>PageModule&#45;&gt;PageComponent </title>
<path fill="none" stroke="black" stroke-dasharray="5,2" d="M541.18,-149.91C541.18,-149.91 541.18,-168.79 541.18,-168.79"/>
<polygon fill="black" stroke="black" points="537.68,-168.79 541.18,-178.79 544.68,-168.79 537.68,-168.79"/>
</g>
<!-- RightTextComponent  -->
<g id="node12" class="node">
<title>RightTextComponent </title>
<polygon fill="#fb8072" stroke="black" points="513.6,-214.8 372.4,-214.8 372.4,-178.8 513.6,-178.8 513.6,-214.8"/>
<text text-anchor="middle" x="443" y="-192.6" font-family="Times,serif" font-size="14.00">RightTextComponent </text>
</g>
<!-- PageModule&#45;&gt;RightTextComponent  -->
<g id="edge11" class="edge">
<title>PageModule&#45;&gt;RightTextComponent </title>
<path fill="none" stroke="black" stroke-dasharray="5,2" d="M488.71,-149.91C488.71,-149.91 488.71,-168.79 488.71,-168.79"/>
<polygon fill="black" stroke="black" points="485.21,-168.79 488.71,-178.79 492.21,-168.79 485.21,-168.79"/>
</g>
<!-- SearchComponent  -->
<g id="node13" class="node">
<title>SearchComponent </title>
<polygon fill="#fb8072" stroke="black" points="354.42,-214.8 231.58,-214.8 231.58,-178.8 354.42,-178.8 354.42,-214.8"/>
<text text-anchor="middle" x="293" y="-192.6" font-family="Times,serif" font-size="14.00">SearchComponent </text>
</g>
<!-- PageModule&#45;&gt;SearchComponent  -->
<g id="edge12" class="edge">
<title>PageModule&#45;&gt;SearchComponent </title>
<path fill="none" stroke="black" stroke-dasharray="5,2" d="M463.52,-143.8C410.36,-143.8 327.38,-143.8 327.38,-143.8 327.38,-143.8 327.38,-168.56 327.38,-168.56"/>
<polygon fill="black" stroke="black" points="323.88,-168.56 327.38,-178.56 330.88,-168.56 323.88,-168.56"/>
</g>
<!-- SubMenuComponent  -->
<g id="node14" class="node">
<title>SubMenuComponent </title>
<polygon fill="#fb8072" stroke="black" points="213.78,-214.8 74.22,-214.8 74.22,-178.8 213.78,-178.8 213.78,-214.8"/>
<text text-anchor="middle" x="144" y="-192.6" font-family="Times,serif" font-size="14.00">SubMenuComponent </text>
</g>
<!-- PageModule&#45;&gt;SubMenuComponent  -->
<g id="edge13" class="edge">
<title>PageModule&#45;&gt;SubMenuComponent </title>
<path fill="none" stroke="black" stroke-dasharray="5,2" d="M463.56,-137.8C374.58,-137.8 179.88,-137.8 179.88,-137.8 179.88,-137.8 179.88,-168.78 179.88,-168.78"/>
<polygon fill="black" stroke="black" points="176.38,-168.78 179.88,-178.78 183.38,-168.78 176.38,-168.78"/>
</g>
<!-- SharedModule -->
<g id="node8" class="node">
<title>SharedModule</title>
<polygon fill="#8dd3c7" stroke="black" points="122.43,-84.8 119.43,-88.8 98.43,-88.8 95.43,-84.8 23.57,-84.8 23.57,-48.8 122.43,-48.8 122.43,-84.8"/>
<text text-anchor="middle" x="73" y="-62.6" font-family="Times,serif" font-size="14.00">SharedModule</text>
</g>
<!-- SharedModule&#45;&gt;PageModule -->
<g id="edge7" class="edge">
<title>SharedModule&#45;&gt;PageModule</title>
<path fill="none" stroke="black" d="M98.29,-84.91C98.29,-104.14 98.29,-131.8 98.29,-131.8 98.29,-131.8 453.65,-131.8 453.65,-131.8"/>
<polygon fill="black" stroke="black" points="453.65,-135.3 463.65,-131.8 453.65,-128.3 453.65,-135.3"/>
</g>
</g>
</svg>
