<?xml version="1.0" encoding="UTF-8" standalone="no"?>
<!DOCTYPE svg PUBLIC "-//W3C//DTD SVG 1.1//EN"
 "http://www.w3.org/Graphics/SVG/1.1/DTD/svg11.dtd">
<!-- Generated by graphviz version 2.47.0 (20210316.0004)
 -->
<!-- Title: dependencies Pages: 1 -->
<svg width="1020pt" height="284pt"
 viewBox="0.00 0.00 1020.00 284.00" xmlns="http://www.w3.org/2000/svg" xmlns:xlink="http://www.w3.org/1999/xlink">
<g id="graph0" class="graph" transform="scale(1 1) rotate(0) translate(4 280)">
<title>dependencies</title>
<polygon fill="white" stroke="transparent" points="-4,4 -4,-280 1016,-280 1016,4 -4,4"/>
<text text-anchor="start" x="485.01" y="-42.4" font-family="sans-serif" font-weight="bold" font-size="14.00">Legend</text>
<polygon fill="#ffffb3" stroke="transparent" points="272,-10 272,-30 292,-30 292,-10 272,-10"/>
<text text-anchor="start" x="295.63" y="-15.4" font-family="sans-serif" font-size="14.00"> &#160;Declarations</text>
<polygon fill="#8dd3c7" stroke="transparent" points="385,-10 385,-30 405,-30 405,-10 385,-10"/>
<text text-anchor="start" x="408.73" y="-15.4" font-family="sans-serif" font-size="14.00"> &#160;Module</text>
<polygon fill="#80b1d3" stroke="transparent" points="471,-10 471,-30 491,-30 491,-10 471,-10"/>
<text text-anchor="start" x="494.78" y="-15.4" font-family="sans-serif" font-size="14.00"> &#160;Bootstrap</text>
<polygon fill="#fdb462" stroke="transparent" points="568,-10 568,-30 588,-30 588,-10 568,-10"/>
<text text-anchor="start" x="591.67" y="-15.4" font-family="sans-serif" font-size="14.00"> &#160;Providers</text>
<polygon fill="#fb8072" stroke="transparent" points="664,-10 664,-30 684,-30 684,-10 664,-10"/>
<text text-anchor="start" x="687.73" y="-15.4" font-family="sans-serif" font-size="14.00"> &#160;Exports</text>
<g id="clust1" class="cluster">
<title>cluster_PageModule</title>
<polygon fill="none" stroke="black" stroke-dasharray="1,5" points="8,-70 8,-268 1004,-268 1004,-70 8,-70"/>
</g>
<g id="clust9" class="cluster">
<title>cluster_PageModule_imports</title>
<polygon fill="none" stroke="black" points="882,-78 882,-130 996,-130 996,-78 882,-78"/>
</g>
<g id="clust10" class="cluster">
<title>cluster_PageModule_exports</title>
<polygon fill="none" stroke="black" points="66,-208 66,-260 946,-260 946,-208 66,-208"/>
</g>
<g id="clust2" class="cluster">
<title>cluster_PageModule_declarations</title>
<polygon fill="none" stroke="black" points="16,-78 16,-130 874,-130 874,-78 16,-78"/>
</g>
<!-- MainTextComponent -->
<g id="node1" class="node">
<title>MainTextComponent</title>
<polygon fill="#ffffb3" stroke="black" points="866.04,-122 729.96,-122 729.96,-86 866.04,-86 866.04,-122"/>
<text text-anchor="middle" x="798" y="-99.8" font-family="Times,serif" font-size="14.00">MainTextComponent</text>
</g>
<!-- PageModule -->
<g id="node7" class="node">
<title>PageModule</title>
<polygon fill="#8dd3c7" stroke="black" points="569.26,-187 566.26,-191 545.26,-191 542.26,-187 482.74,-187 482.74,-151 569.26,-151 569.26,-187"/>
<text text-anchor="middle" x="526" y="-164.8" font-family="Times,serif" font-size="14.00">PageModule</text>
</g>
<!-- MainTextComponent&#45;&gt;PageModule -->
<g id="edge1" class="edge">
<title>MainTextComponent&#45;&gt;PageModule</title>
<path fill="none" stroke="black" d="M754.74,-122.02C754.74,-139.37 754.74,-163 754.74,-163 754.74,-163 579.29,-163 579.29,-163"/>
<polygon fill="black" stroke="black" points="579.29,-159.5 569.29,-163 579.29,-166.5 579.29,-159.5"/>
</g>
<!-- MenuComponent -->
<g id="node2" class="node">
<title>MenuComponent</title>
<polygon fill="#ffffb3" stroke="black" points="711.99,-122 598.01,-122 598.01,-86 711.99,-86 711.99,-122"/>
<text text-anchor="middle" x="655" y="-99.8" font-family="Times,serif" font-size="14.00">MenuComponent</text>
</g>
<!-- MenuComponent&#45;&gt;PageModule -->
<g id="edge2" class="edge">
<title>MenuComponent&#45;&gt;PageModule</title>
<path fill="none" stroke="black" d="M621.01,-122.24C621.01,-137.57 621.01,-157 621.01,-157 621.01,-157 579.34,-157 579.34,-157"/>
<polygon fill="black" stroke="black" points="579.34,-153.5 569.34,-157 579.34,-160.5 579.34,-153.5"/>
</g>
<!-- PageComponent -->
<g id="node3" class="node">
<title>PageComponent</title>
<polygon fill="#ffffb3" stroke="black" points="580.05,-122 471.95,-122 471.95,-86 580.05,-86 580.05,-122"/>
<text text-anchor="middle" x="526" y="-99.8" font-family="Times,serif" font-size="14.00">PageComponent</text>
</g>
<!-- PageComponent&#45;&gt;PageModule -->
<g id="edge3" class="edge">
<title>PageComponent&#45;&gt;PageModule</title>
<path fill="none" stroke="black" d="M526,-122.11C526,-122.11 526,-140.99 526,-140.99"/>
<polygon fill="black" stroke="black" points="522.5,-140.99 526,-150.99 529.5,-140.99 522.5,-140.99"/>
</g>
<!-- RightTextComponent -->
<g id="node4" class="node">
<title>RightTextComponent</title>
<polygon fill="#ffffb3" stroke="black" points="454.11,-122 315.89,-122 315.89,-86 454.11,-86 454.11,-122"/>
<text text-anchor="middle" x="385" y="-99.8" font-family="Times,serif" font-size="14.00">RightTextComponent</text>
</g>
<!-- RightTextComponent&#45;&gt;PageModule -->
<g id="edge4" class="edge">
<title>RightTextComponent&#45;&gt;PageModule</title>
<path fill="none" stroke="black" d="M413.12,-122.24C413.12,-137.57 413.12,-157 413.12,-157 413.12,-157 472.68,-157 472.68,-157"/>
<polygon fill="black" stroke="black" points="472.68,-160.5 482.68,-157 472.68,-153.5 472.68,-160.5"/>
</g>
<!-- SearchComponent -->
<g id="node5" class="node">
<title>SearchComponent</title>
<polygon fill="#ffffb3" stroke="black" points="297.92,-122 178.08,-122 178.08,-86 297.92,-86 297.92,-122"/>
<text text-anchor="middle" x="238" y="-99.8" font-family="Times,serif" font-size="14.00">SearchComponent</text>
</g>
<!-- SearchComponent&#45;&gt;PageModule -->
<g id="edge5" class="edge">
<title>SearchComponent&#45;&gt;PageModule</title>
<path fill="none" stroke="black" d="M264.62,-122.02C264.62,-139.37 264.62,-163 264.62,-163 264.62,-163 472.55,-163 472.55,-163"/>
<polygon fill="black" stroke="black" points="472.55,-166.5 482.55,-163 472.55,-159.5 472.55,-166.5"/>
</g>
<!-- SubMenuComponent -->
<g id="node6" class="node">
<title>SubMenuComponent</title>
<polygon fill="#ffffb3" stroke="black" points="159.77,-122 24.23,-122 24.23,-86 159.77,-86 159.77,-122"/>
<text text-anchor="middle" x="92" y="-99.8" font-family="Times,serif" font-size="14.00">SubMenuComponent</text>
</g>
<!-- SubMenuComponent&#45;&gt;PageModule -->
<g id="edge6" class="edge">
<title>SubMenuComponent&#45;&gt;PageModule</title>
<path fill="none" stroke="black" d="M117.12,-122.11C117.12,-141.34 117.12,-169 117.12,-169 117.12,-169 472.63,-169 472.63,-169"/>
<polygon fill="black" stroke="black" points="472.63,-172.5 482.63,-169 472.63,-165.5 472.63,-172.5"/>
</g>
<!-- MainTextComponent  -->
<g id="node9" class="node">
<title>MainTextComponent </title>
<polygon fill="#fb8072" stroke="black" points="938.04,-252 797.96,-252 797.96,-216 938.04,-216 938.04,-252"/>
<text text-anchor="middle" x="868" y="-229.8" font-family="Times,serif" font-size="14.00">MainTextComponent </text>
</g>
<!-- PageModule&#45;&gt;MainTextComponent  -->
<g id="edge8" class="edge">
<title>PageModule&#45;&gt;MainTextComponent </title>
<path fill="none" stroke="black" stroke-dasharray="5,2" d="M569.54,-175C654.05,-175 832.12,-175 832.12,-175 832.12,-175 832.12,-205.98 832.12,-205.98"/>
<polygon fill="black" stroke="black" points="828.63,-205.98 832.12,-215.98 835.63,-205.98 828.63,-205.98"/>
</g>
<!-- MenuComponent  -->
<g id="node10" class="node">
<title>MenuComponent </title>
<polygon fill="#fb8072" stroke="black" points="779.99,-252 662.01,-252 662.01,-216 779.99,-216 779.99,-252"/>
<text text-anchor="middle" x="721" y="-229.8" font-family="Times,serif" font-size="14.00">MenuComponent </text>
</g>
<!-- PageModule&#45;&gt;MenuComponent  -->
<g id="edge9" class="edge">
<title>PageModule&#45;&gt;MenuComponent </title>
<path fill="none" stroke="black" stroke-dasharray="5,2" d="M569.6,-181C617.32,-181 687.12,-181 687.12,-181 687.12,-181 687.12,-205.76 687.12,-205.76"/>
<polygon fill="black" stroke="black" points="683.63,-205.76 687.12,-215.76 690.63,-205.76 683.63,-205.76"/>
</g>
<!-- PageComponent  -->
<g id="node11" class="node">
<title>PageComponent </title>
<polygon fill="#fb8072" stroke="black" points="644.04,-252 531.96,-252 531.96,-216 644.04,-216 644.04,-252"/>
<text text-anchor="middle" x="588" y="-229.8" font-family="Times,serif" font-size="14.00">PageComponent </text>
</g>
<!-- PageModule&#45;&gt;PageComponent  -->
<g id="edge10" class="edge">
<title>PageModule&#45;&gt;PageComponent </title>
<path fill="none" stroke="black" stroke-dasharray="5,2" d="M550.68,-187.11C550.68,-187.11 550.68,-205.99 550.68,-205.99"/>
<polygon fill="black" stroke="black" points="547.18,-205.99 550.68,-215.99 554.18,-205.99 547.18,-205.99"/>
</g>
<!-- RightTextComponent  -->
<g id="node12" class="node">
<title>RightTextComponent </title>
<polygon fill="#fb8072" stroke="black" points="513.61,-252 372.39,-252 372.39,-216 513.61,-216 513.61,-252"/>
<text text-anchor="middle" x="443" y="-229.8" font-family="Times,serif" font-size="14.00">RightTextComponent </text>
</g>
<!-- PageModule&#45;&gt;RightTextComponent  -->
<g id="edge11" class="edge">
<title>PageModule&#45;&gt;RightTextComponent </title>
<path fill="none" stroke="black" stroke-dasharray="5,2" d="M498.21,-187.11C498.21,-187.11 498.21,-205.99 498.21,-205.99"/>
<polygon fill="black" stroke="black" points="494.71,-205.99 498.21,-215.99 501.71,-205.99 494.71,-205.99"/>
</g>
<!-- SearchComponent  -->
<g id="node13" class="node">
<title>SearchComponent </title>
<polygon fill="#fb8072" stroke="black" points="354.42,-252 231.58,-252 231.58,-216 354.42,-216 354.42,-252"/>
<text text-anchor="middle" x="293" y="-229.8" font-family="Times,serif" font-size="14.00">SearchComponent </text>
</g>
<!-- PageModule&#45;&gt;SearchComponent  -->
<g id="edge12" class="edge">
<title>PageModule&#45;&gt;SearchComponent </title>
<path fill="none" stroke="black" stroke-dasharray="5,2" d="M482.71,-181C426.41,-181 335.2,-181 335.2,-181 335.2,-181 335.2,-205.76 335.2,-205.76"/>
<polygon fill="black" stroke="black" points="331.7,-205.76 335.2,-215.76 338.7,-205.76 331.7,-205.76"/>
</g>
<!-- SubMenuComponent  -->
<g id="node14" class="node">
<title>SubMenuComponent </title>
<polygon fill="#fb8072" stroke="black" points="213.77,-252 74.23,-252 74.23,-216 213.77,-216 213.77,-252"/>
<text text-anchor="middle" x="144" y="-229.8" font-family="Times,serif" font-size="14.00">SubMenuComponent </text>
</g>
<!-- PageModule&#45;&gt;SubMenuComponent  -->
<g id="edge13" class="edge">
<title>PageModule&#45;&gt;SubMenuComponent </title>
<path fill="none" stroke="black" stroke-dasharray="5,2" d="M482.51,-175C392.9,-175 195.96,-175 195.96,-175 195.96,-175 195.96,-205.98 195.96,-205.98"/>
<polygon fill="black" stroke="black" points="192.46,-205.98 195.96,-215.98 199.46,-205.98 192.46,-205.98"/>
</g>
<!-- SharedModule -->
<g id="node8" class="node">
<title>SharedModule</title>
<polygon fill="#8dd3c7" stroke="black" points="988.42,-122 985.42,-126 964.42,-126 961.42,-122 889.58,-122 889.58,-86 988.42,-86 988.42,-122"/>
<text text-anchor="middle" x="939" y="-99.8" font-family="Times,serif" font-size="14.00">SharedModule</text>
</g>
<!-- SharedModule&#45;&gt;PageModule -->
<g id="edge7" class="edge">
<title>SharedModule&#45;&gt;PageModule</title>
<path fill="none" stroke="black" d="M913.9,-122.11C913.9,-141.34 913.9,-169 913.9,-169 913.9,-169 579.37,-169 579.37,-169"/>
<polygon fill="black" stroke="black" points="579.37,-165.5 569.37,-169 579.37,-172.5 579.37,-165.5"/>
</g>
</g>
</svg>
