<?xml version="1.0" encoding="UTF-8" standalone="no"?>
<!DOCTYPE svg PUBLIC "-//W3C//DTD SVG 1.1//EN"
 "http://www.w3.org/Graphics/SVG/1.1/DTD/svg11.dtd">
<!-- Generated by graphviz version 2.47.0 (20210316.0004)
 -->
<!-- Title: dependencies Pages: 1 -->
<svg width="1020pt" height="284pt"
 viewBox="0.00 0.00 1020.00 284.00" xmlns="http://www.w3.org/2000/svg" xmlns:xlink="http://www.w3.org/1999/xlink">
<g id="graph0" class="graph" transform="scale(1 1) rotate(0) translate(4 280)">
<title>dependencies</title>
<polygon fill="white" stroke="transparent" points="-4,4 -4,-280 1016,-280 1016,4 -4,4"/>
<text text-anchor="start" x="485.01" y="-42.4" font-family="sans-serif" font-weight="bold" font-size="14.00">Legend</text>
<polygon fill="#ffffb3" stroke="transparent" points="272,-10 272,-30 292,-30 292,-10 272,-10"/>
<text text-anchor="start" x="295.63" y="-15.4" font-family="sans-serif" font-size="14.00"> &#160;Declarations</text>
<polygon fill="#8dd3c7" stroke="transparent" points="385,-10 385,-30 405,-30 405,-10 385,-10"/>
<text text-anchor="start" x="408.73" y="-15.4" font-family="sans-serif" font-size="14.00"> &#160;Module</text>
<polygon fill="#80b1d3" stroke="transparent" points="471,-10 471,-30 491,-30 491,-10 471,-10"/>
<text text-anchor="start" x="494.78" y="-15.4" font-family="sans-serif" font-size="14.00"> &#160;Bootstrap</text>
<polygon fill="#fdb462" stroke="transparent" points="568,-10 568,-30 588,-30 588,-10 568,-10"/>
<text text-anchor="start" x="591.67" y="-15.4" font-family="sans-serif" font-size="14.00"> &#160;Providers</text>
<polygon fill="#fb8072" stroke="transparent" points="664,-10 664,-30 684,-30 684,-10 664,-10"/>
<text text-anchor="start" x="687.73" y="-15.4" font-family="sans-serif" font-size="14.00"> &#160;Exports</text>
<g id="clust1" class="cluster">
<title>cluster_PageModule</title>
<polygon fill="none" stroke="black" stroke-dasharray="1,5" points="8,-70 8,-268 1004,-268 1004,-70 8,-70"/>
</g>
<g id="clust2" class="cluster">
<title>cluster_PageModule_declarations</title>
<polygon fill="none" stroke="black" points="138,-78 138,-130 996,-130 996,-78 138,-78"/>
</g>
<g id="clust10" class="cluster">
<title>cluster_PageModule_exports</title>
<polygon fill="none" stroke="black" points="66,-208 66,-260 946,-260 946,-208 66,-208"/>
</g>
<g id="clust9" class="cluster">
<title>cluster_PageModule_imports</title>
<polygon fill="none" stroke="black" points="16,-78 16,-130 130,-130 130,-78 16,-78"/>
</g>
<!-- MainTextComponent -->
<g id="node1" class="node">
<title>MainTextComponent</title>
<polygon fill="#ffffb3" stroke="black" points="988.04,-122 851.96,-122 851.96,-86 988.04,-86 988.04,-122"/>
<text text-anchor="middle" x="920" y="-99.8" font-family="Times,serif" font-size="14.00">MainTextComponent</text>
</g>
<!-- PageModule -->
<g id="node7" class="node">
<title>PageModule</title>
<polygon fill="#8dd3c7" stroke="black" points="550.26,-187 547.26,-191 526.26,-191 523.26,-187 463.74,-187 463.74,-151 550.26,-151 550.26,-187"/>
<text text-anchor="middle" x="507" y="-164.8" font-family="Times,serif" font-size="14.00">PageModule</text>
</g>
<!-- MainTextComponent&#45;&gt;PageModule -->
<g id="edge1" class="edge">
<title>MainTextComponent&#45;&gt;PageModule</title>
<path fill="none" stroke="black" d="M894.88,-122.11C894.88,-141.34 894.88,-169 894.88,-169 894.88,-169 560.37,-169 560.37,-169"/>
<polygon fill="black" stroke="black" points="560.37,-165.5 550.37,-169 560.37,-172.5 560.37,-165.5"/>
</g>
<!-- MenuComponent -->
<g id="node2" class="node">
<title>MenuComponent</title>
<polygon fill="#ffffb3" stroke="black" points="833.99,-122 720.01,-122 720.01,-86 833.99,-86 833.99,-122"/>
<text text-anchor="middle" x="777" y="-99.8" font-family="Times,serif" font-size="14.00">MenuComponent</text>
</g>
<!-- MenuComponent&#45;&gt;PageModule -->
<g id="edge2" class="edge">
<title>MenuComponent&#45;&gt;PageModule</title>
<path fill="none" stroke="black" d="M749.88,-122.02C749.88,-139.37 749.88,-163 749.88,-163 749.88,-163 560.42,-163 560.42,-163"/>
<polygon fill="black" stroke="black" points="560.42,-159.5 550.42,-163 560.42,-166.5 560.42,-159.5"/>
</g>
<!-- PageComponent -->
<g id="node3" class="node">
<title>PageComponent</title>
<polygon fill="#ffffb3" stroke="black" points="702.05,-122 593.95,-122 593.95,-86 702.05,-86 702.05,-122"/>
<text text-anchor="middle" x="648" y="-99.8" font-family="Times,serif" font-size="14.00">PageComponent</text>
</g>
<!-- PageComponent&#45;&gt;PageModule -->
<g id="edge3" class="edge">
<title>PageComponent&#45;&gt;PageModule</title>
<path fill="none" stroke="black" d="M618.88,-122.24C618.88,-137.57 618.88,-157 618.88,-157 618.88,-157 560.57,-157 560.57,-157"/>
<polygon fill="black" stroke="black" points="560.57,-153.5 550.57,-157 560.57,-160.5 560.57,-153.5"/>
</g>
<!-- RightTextComponent -->
<g id="node4" class="node">
<title>RightTextComponent</title>
<polygon fill="#ffffb3" stroke="black" points="576.11,-122 437.89,-122 437.89,-86 576.11,-86 576.11,-122"/>
<text text-anchor="middle" x="507" y="-99.8" font-family="Times,serif" font-size="14.00">RightTextComponent</text>
</g>
<!-- RightTextComponent&#45;&gt;PageModule -->
<g id="edge4" class="edge">
<title>RightTextComponent&#45;&gt;PageModule</title>
<path fill="none" stroke="black" d="M507,-122.11C507,-122.11 507,-140.99 507,-140.99"/>
<polygon fill="black" stroke="black" points="503.5,-140.99 507,-150.99 510.5,-140.99 503.5,-140.99"/>
</g>
<!-- SearchComponent -->
<g id="node5" class="node">
<title>SearchComponent</title>
<polygon fill="#ffffb3" stroke="black" points="419.92,-122 300.08,-122 300.08,-86 419.92,-86 419.92,-122"/>
<text text-anchor="middle" x="360" y="-99.8" font-family="Times,serif" font-size="14.00">SearchComponent</text>
</g>
<!-- SearchComponent&#45;&gt;PageModule -->
<g id="edge5" class="edge">
<title>SearchComponent&#45;&gt;PageModule</title>
<path fill="none" stroke="black" d="M395.95,-122.24C395.95,-137.57 395.95,-157 395.95,-157 395.95,-157 453.43,-157 453.43,-157"/>
<polygon fill="black" stroke="black" points="453.43,-160.5 463.43,-157 453.43,-153.5 453.43,-160.5"/>
</g>
<!-- SubMenuComponent -->
<g id="node6" class="node">
<title>SubMenuComponent</title>
<polygon fill="#ffffb3" stroke="black" points="281.77,-122 146.23,-122 146.23,-86 281.77,-86 281.77,-122"/>
<text text-anchor="middle" x="214" y="-99.8" font-family="Times,serif" font-size="14.00">SubMenuComponent</text>
</g>
<!-- SubMenuComponent&#45;&gt;PageModule -->
<g id="edge6" class="edge">
<title>SubMenuComponent&#45;&gt;PageModule</title>
<path fill="none" stroke="black" d="M256.71,-122.02C256.71,-139.37 256.71,-163 256.71,-163 256.71,-163 453.69,-163 453.69,-163"/>
<polygon fill="black" stroke="black" points="453.69,-166.5 463.69,-163 453.69,-159.5 453.69,-166.5"/>
</g>
<!-- MainTextComponent  -->
<g id="node9" class="node">
<title>MainTextComponent </title>
<polygon fill="#fb8072" stroke="black" points="938.04,-252 797.96,-252 797.96,-216 938.04,-216 938.04,-252"/>
<text text-anchor="middle" x="868" y="-229.8" font-family="Times,serif" font-size="14.00">MainTextComponent </text>
</g>
<!-- PageModule&#45;&gt;MainTextComponent  -->
<g id="edge8" class="edge">
<title>PageModule&#45;&gt;MainTextComponent </title>
<path fill="none" stroke="black" stroke-dasharray="5,2" d="M550.29,-175C635.33,-175 815.99,-175 815.99,-175 815.99,-175 815.99,-205.98 815.99,-205.98"/>
<polygon fill="black" stroke="black" points="812.49,-205.98 815.99,-215.98 819.49,-205.98 812.49,-205.98"/>
</g>
<!-- MenuComponent  -->
<g id="node10" class="node">
<title>MenuComponent </title>
<polygon fill="#fb8072" stroke="black" points="779.99,-252 662.01,-252 662.01,-216 779.99,-216 779.99,-252"/>
<text text-anchor="middle" x="721" y="-229.8" font-family="Times,serif" font-size="14.00">MenuComponent </text>
</g>
<!-- PageModule&#45;&gt;MenuComponent  -->
<g id="edge9" class="edge">
<title>PageModule&#45;&gt;MenuComponent </title>
<path fill="none" stroke="black" stroke-dasharray="5,2" d="M550.32,-181C602.22,-181 682.26,-181 682.26,-181 682.26,-181 682.26,-205.76 682.26,-205.76"/>
<polygon fill="black" stroke="black" points="678.76,-205.76 682.26,-215.76 685.76,-205.76 678.76,-205.76"/>
</g>
<!-- PageComponent  -->
<g id="node11" class="node">
<title>PageComponent </title>
<polygon fill="#fb8072" stroke="black" points="644.04,-252 531.96,-252 531.96,-216 644.04,-216 644.04,-252"/>
<text text-anchor="middle" x="588" y="-229.8" font-family="Times,serif" font-size="14.00">PageComponent </text>
</g>
<!-- PageModule&#45;&gt;PageComponent  -->
<g id="edge10" class="edge">
<title>PageModule&#45;&gt;PageComponent </title>
<path fill="none" stroke="black" stroke-dasharray="5,2" d="M541.18,-187.11C541.18,-187.11 541.18,-205.99 541.18,-205.99"/>
<polygon fill="black" stroke="black" points="537.68,-205.99 541.18,-215.99 544.68,-205.99 537.68,-205.99"/>
</g>
<!-- RightTextComponent  -->
<g id="node12" class="node">
<title>RightTextComponent </title>
<polygon fill="#fb8072" stroke="black" points="513.61,-252 372.39,-252 372.39,-216 513.61,-216 513.61,-252"/>
<text text-anchor="middle" x="443" y="-229.8" font-family="Times,serif" font-size="14.00">RightTextComponent </text>
</g>
<!-- PageModule&#45;&gt;RightTextComponent  -->
<g id="edge11" class="edge">
<title>PageModule&#45;&gt;RightTextComponent </title>
<path fill="none" stroke="black" stroke-dasharray="5,2" d="M488.71,-187.11C488.71,-187.11 488.71,-205.99 488.71,-205.99"/>
<polygon fill="black" stroke="black" points="485.21,-205.99 488.71,-215.99 492.21,-205.99 485.21,-205.99"/>
</g>
<!-- SearchComponent  -->
<g id="node13" class="node">
<title>SearchComponent </title>
<polygon fill="#fb8072" stroke="black" points="354.42,-252 231.58,-252 231.58,-216 354.42,-216 354.42,-252"/>
<text text-anchor="middle" x="293" y="-229.8" font-family="Times,serif" font-size="14.00">SearchComponent </text>
</g>
<!-- PageModule&#45;&gt;SearchComponent  -->
<g id="edge12" class="edge">
<title>PageModule&#45;&gt;SearchComponent </title>
<path fill="none" stroke="black" stroke-dasharray="5,2" d="M463.52,-181C410.36,-181 327.38,-181 327.38,-181 327.38,-181 327.38,-205.76 327.38,-205.76"/>
<polygon fill="black" stroke="black" points="323.88,-205.76 327.38,-215.76 330.88,-205.76 323.88,-205.76"/>
</g>
<!-- SubMenuComponent  -->
<g id="node14" class="node">
<title>SubMenuComponent </title>
<polygon fill="#fb8072" stroke="black" points="213.77,-252 74.23,-252 74.23,-216 213.77,-216 213.77,-252"/>
<text text-anchor="middle" x="144" y="-229.8" font-family="Times,serif" font-size="14.00">SubMenuComponent </text>
</g>
<!-- PageModule&#45;&gt;SubMenuComponent  -->
<g id="edge13" class="edge">
<title>PageModule&#45;&gt;SubMenuComponent </title>
<path fill="none" stroke="black" stroke-dasharray="5,2" d="M463.56,-175C374.58,-175 179.88,-175 179.88,-175 179.88,-175 179.88,-205.98 179.88,-205.98"/>
<polygon fill="black" stroke="black" points="176.38,-205.98 179.88,-215.98 183.38,-205.98 176.38,-205.98"/>
</g>
<!-- SharedModule -->
<g id="node8" class="node">
<title>SharedModule</title>
<polygon fill="#8dd3c7" stroke="black" points="122.42,-122 119.42,-126 98.42,-126 95.42,-122 23.58,-122 23.58,-86 122.42,-86 122.42,-122"/>
<text text-anchor="middle" x="73" y="-99.8" font-family="Times,serif" font-size="14.00">SharedModule</text>
</g>
<!-- SharedModule&#45;&gt;PageModule -->
<g id="edge7" class="edge">
<title>SharedModule&#45;&gt;PageModule</title>
<path fill="none" stroke="black" d="M98.29,-122.11C98.29,-141.34 98.29,-169 98.29,-169 98.29,-169 453.65,-169 453.65,-169"/>
<polygon fill="black" stroke="black" points="453.65,-172.5 463.65,-169 453.65,-165.5 453.65,-172.5"/>
</g>
</g>
</svg>
