<?xml version="1.0" encoding="UTF-8" standalone="no"?>
<!DOCTYPE svg PUBLIC "-//W3C//DTD SVG 1.1//EN"
 "http://www.w3.org/Graphics/SVG/1.1/DTD/svg11.dtd">
<!-- Generated by graphviz version 2.47.0 (20210316.0004)
 -->
<!-- Title: dependencies Pages: 1 -->
<svg width="908pt" height="284pt"
 viewBox="0.00 0.00 908.00 284.00" xmlns="http://www.w3.org/2000/svg" xmlns:xlink="http://www.w3.org/1999/xlink">
<g id="graph0" class="graph" transform="scale(1 1) rotate(0) translate(4 280)">
<title>dependencies</title>
<polygon fill="white" stroke="transparent" points="-4,4 -4,-280 904,-280 904,4 -4,4"/>
<text text-anchor="start" x="429.01" y="-42.4" font-family="sans-serif" font-weight="bold" font-size="14.00">Legend</text>
<polygon fill="#ffffb3" stroke="transparent" points="216,-10 216,-30 236,-30 236,-10 216,-10"/>
<text text-anchor="start" x="239.63" y="-15.4" font-family="sans-serif" font-size="14.00"> &#160;Declarations</text>
<polygon fill="#8dd3c7" stroke="transparent" points="329,-10 329,-30 349,-30 349,-10 329,-10"/>
<text text-anchor="start" x="352.73" y="-15.4" font-family="sans-serif" font-size="14.00"> &#160;Module</text>
<polygon fill="#80b1d3" stroke="transparent" points="415,-10 415,-30 435,-30 435,-10 415,-10"/>
<text text-anchor="start" x="438.78" y="-15.4" font-family="sans-serif" font-size="14.00"> &#160;Bootstrap</text>
<polygon fill="#fdb462" stroke="transparent" points="512,-10 512,-30 532,-30 532,-10 512,-10"/>
<text text-anchor="start" x="535.67" y="-15.4" font-family="sans-serif" font-size="14.00"> &#160;Providers</text>
<polygon fill="#fb8072" stroke="transparent" points="608,-10 608,-30 628,-30 628,-10 608,-10"/>
<text text-anchor="start" x="631.73" y="-15.4" font-family="sans-serif" font-size="14.00"> &#160;Exports</text>
<g id="clust1" class="cluster">
<title>cluster_CoreModule</title>
<polygon fill="none" stroke="black" stroke-dasharray="1,5" points="8,-70 8,-268 892,-268 892,-70 8,-70"/>
</g>
<g id="clust8" class="cluster">
<title>cluster_CoreModule_exports</title>
<polygon fill="none" stroke="black" points="202,-208 202,-260 773,-260 773,-208 202,-208"/>
</g>
<g id="clust7" class="cluster">
<title>cluster_CoreModule_imports</title>
<polygon fill="none" stroke="black" points="665,-78 665,-130 884,-130 884,-78 665,-78"/>
</g>
<g id="clust2" class="cluster">
<title>cluster_CoreModule_declarations</title>
<polygon fill="none" stroke="black" points="16,-78 16,-130 657,-130 657,-78 16,-78"/>
</g>
<!-- CornerRibbonComponent -->
<g id="node1" class="node">
<title>CornerRibbonComponent</title>
<polygon fill="#ffffb3" stroke="black" points="648.93,-122 487.07,-122 487.07,-86 648.93,-86 648.93,-122"/>
<text text-anchor="middle" x="568" y="-99.8" font-family="Times,serif" font-size="14.00">CornerRibbonComponent</text>
</g>
<!-- CoreModule -->
<g id="node5" class="node">
<title>CoreModule</title>
<polygon fill="#8dd3c7" stroke="black" points="494.26,-187 491.26,-191 470.26,-191 467.26,-187 407.74,-187 407.74,-151 494.26,-151 494.26,-187"/>
<text text-anchor="middle" x="451" y="-164.8" font-family="Times,serif" font-size="14.00">CoreModule</text>
</g>
<!-- CornerRibbonComponent&#45;&gt;CoreModule -->
<g id="edge1" class="edge">
<title>CornerRibbonComponent&#45;&gt;CoreModule</title>
<path fill="none" stroke="black" d="M490.83,-122.11C490.83,-122.11 490.83,-140.99 490.83,-140.99"/>
<polygon fill="black" stroke="black" points="487.33,-140.99 490.83,-150.99 494.33,-140.99 487.33,-140.99"/>
</g>
<!-- FooterComponent -->
<g id="node2" class="node">
<title>FooterComponent</title>
<polygon fill="#ffffb3" stroke="black" points="468.88,-122 351.12,-122 351.12,-86 468.88,-86 468.88,-122"/>
<text text-anchor="middle" x="410" y="-99.8" font-family="Times,serif" font-size="14.00">FooterComponent</text>
</g>
<!-- FooterComponent&#45;&gt;CoreModule -->
<g id="edge2" class="edge">
<title>FooterComponent&#45;&gt;CoreModule</title>
<path fill="none" stroke="black" d="M438.28,-122.11C438.28,-122.11 438.28,-140.99 438.28,-140.99"/>
<polygon fill="black" stroke="black" points="434.78,-140.99 438.28,-150.99 441.78,-140.99 434.78,-140.99"/>
</g>
<!-- HeaderComponent -->
<g id="node3" class="node">
<title>HeaderComponent</title>
<polygon fill="#ffffb3" stroke="black" points="332.74,-122 211.26,-122 211.26,-86 332.74,-86 332.74,-122"/>
<text text-anchor="middle" x="272" y="-99.8" font-family="Times,serif" font-size="14.00">HeaderComponent</text>
</g>
<!-- HeaderComponent&#45;&gt;CoreModule -->
<g id="edge3" class="edge">
<title>HeaderComponent&#45;&gt;CoreModule</title>
<path fill="none" stroke="black" d="M325.62,-122.03C325.62,-138.4 325.62,-160 325.62,-160 325.62,-160 397.5,-160 397.5,-160"/>
<polygon fill="black" stroke="black" points="397.5,-163.5 407.5,-160 397.5,-156.5 397.5,-163.5"/>
</g>
<!-- LocaleSwitcherComponent -->
<g id="node4" class="node">
<title>LocaleSwitcherComponent</title>
<polygon fill="#ffffb3" stroke="black" points="193.68,-122 24.32,-122 24.32,-86 193.68,-86 193.68,-122"/>
<text text-anchor="middle" x="109" y="-99.8" font-family="Times,serif" font-size="14.00">LocaleSwitcherComponent</text>
</g>
<!-- LocaleSwitcherComponent&#45;&gt;CoreModule -->
<g id="edge4" class="edge">
<title>LocaleSwitcherComponent&#45;&gt;CoreModule</title>
<path fill="none" stroke="black" d="M109,-122.11C109,-141.34 109,-169 109,-169 109,-169 397.69,-169 397.69,-169"/>
<polygon fill="black" stroke="black" points="397.69,-172.5 407.69,-169 397.69,-165.5 397.69,-172.5"/>
</g>
<!-- CornerRibbonComponent  -->
<g id="node8" class="node">
<title>CornerRibbonComponent </title>
<polygon fill="#fb8072" stroke="black" points="765.43,-252 600.57,-252 600.57,-216 765.43,-216 765.43,-252"/>
<text text-anchor="middle" x="683" y="-229.8" font-family="Times,serif" font-size="14.00">CornerRibbonComponent </text>
</g>
<!-- CoreModule&#45;&gt;CornerRibbonComponent  -->
<g id="edge7" class="edge">
<title>CoreModule&#45;&gt;CornerRibbonComponent </title>
<path fill="none" stroke="black" stroke-dasharray="5,2" d="M494.37,-178C545.79,-178 624.62,-178 624.62,-178 624.62,-178 624.62,-205.97 624.62,-205.97"/>
<polygon fill="black" stroke="black" points="621.13,-205.97 624.62,-215.97 628.13,-205.97 621.13,-205.97"/>
</g>
<!-- FooterComponent  -->
<g id="node9" class="node">
<title>FooterComponent </title>
<polygon fill="#fb8072" stroke="black" points="582.88,-252 461.12,-252 461.12,-216 582.88,-216 582.88,-252"/>
<text text-anchor="middle" x="522" y="-229.8" font-family="Times,serif" font-size="14.00">FooterComponent </text>
</g>
<!-- CoreModule&#45;&gt;FooterComponent  -->
<g id="edge8" class="edge">
<title>CoreModule&#45;&gt;FooterComponent </title>
<path fill="none" stroke="black" stroke-dasharray="5,2" d="M477.85,-187.11C477.85,-187.11 477.85,-205.99 477.85,-205.99"/>
<polygon fill="black" stroke="black" points="474.35,-205.99 477.85,-215.99 481.35,-205.99 474.35,-205.99"/>
</g>
<!-- HeaderComponent  -->
<g id="node10" class="node">
<title>HeaderComponent </title>
<polygon fill="#fb8072" stroke="black" points="443.74,-252 318.26,-252 318.26,-216 443.74,-216 443.74,-252"/>
<text text-anchor="middle" x="381" y="-229.8" font-family="Times,serif" font-size="14.00">HeaderComponent </text>
</g>
<!-- CoreModule&#45;&gt;HeaderComponent  -->
<g id="edge9" class="edge">
<title>CoreModule&#45;&gt;HeaderComponent </title>
<path fill="none" stroke="black" stroke-dasharray="5,2" d="M425.62,-187.11C425.62,-187.11 425.62,-205.99 425.62,-205.99"/>
<polygon fill="black" stroke="black" points="422.12,-205.99 425.62,-215.99 429.12,-205.99 422.12,-205.99"/>
</g>
<!-- PageModule  -->
<g id="node11" class="node">
<title>PageModule </title>
<polygon fill="#fb8072" stroke="black" points="300.26,-252 209.74,-252 209.74,-216 300.26,-216 300.26,-252"/>
<text text-anchor="middle" x="255" y="-229.8" font-family="Times,serif" font-size="14.00">PageModule </text>
</g>
<!-- CoreModule&#45;&gt;PageModule  -->
<g id="edge10" class="edge">
<title>CoreModule&#45;&gt;PageModule </title>
<path fill="none" stroke="black" stroke-dasharray="5,2" d="M407.64,-178C350.08,-178 255.63,-178 255.63,-178 255.63,-178 255.63,-205.97 255.63,-205.97"/>
<polygon fill="black" stroke="black" points="252.13,-205.97 255.63,-215.97 259.13,-205.97 252.13,-205.97"/>
</g>
<!-- PageModule -->
<g id="node6" class="node">
<title>PageModule</title>
<polygon fill="#8dd3c7" stroke="black" points="876.26,-122 873.26,-126 852.26,-126 849.26,-122 789.74,-122 789.74,-86 876.26,-86 876.26,-122"/>
<text text-anchor="middle" x="833" y="-99.8" font-family="Times,serif" font-size="14.00">PageModule</text>
</g>
<!-- PageModule&#45;&gt;CoreModule -->
<g id="edge5" class="edge">
<title>PageModule&#45;&gt;CoreModule</title>
<path fill="none" stroke="black" d="M833,-122.11C833,-141.34 833,-169 833,-169 833,-169 504.45,-169 504.45,-169"/>
<polygon fill="black" stroke="black" points="504.45,-165.5 494.45,-169 504.45,-172.5 504.45,-165.5"/>
</g>
<!-- SharedModule -->
<g id="node7" class="node">
<title>SharedModule</title>
<polygon fill="#8dd3c7" stroke="black" points="771.42,-122 768.42,-126 747.42,-126 744.42,-122 672.58,-122 672.58,-86 771.42,-86 771.42,-122"/>
<text text-anchor="middle" x="722" y="-99.8" font-family="Times,serif" font-size="14.00">SharedModule</text>
</g>
<!-- SharedModule&#45;&gt;CoreModule -->
<g id="edge6" class="edge">
<title>SharedModule&#45;&gt;CoreModule</title>
<path fill="none" stroke="black" d="M719.13,-122.03C719.13,-138.4 719.13,-160 719.13,-160 719.13,-160 504.38,-160 504.38,-160"/>
<polygon fill="black" stroke="black" points="504.38,-156.5 494.38,-160 504.38,-163.5 504.38,-156.5"/>
</g>
</g>
</svg>
