<?xml version="1.0" encoding="UTF-8" standalone="no"?>
<!DOCTYPE svg PUBLIC "-//W3C//DTD SVG 1.1//EN"
 "http://www.w3.org/Graphics/SVG/1.1/DTD/svg11.dtd">
<!-- Generated by graphviz version 2.47.0 (20210316.0004)
 -->
<!-- Title: dependencies Pages: 1 -->
<svg width="908pt" height="284pt"
 viewBox="0.00 0.00 908.00 284.00" xmlns="http://www.w3.org/2000/svg" xmlns:xlink="http://www.w3.org/1999/xlink">
<g id="graph0" class="graph" transform="scale(1 1) rotate(0) translate(4 280)">
<title>dependencies</title>
<polygon fill="white" stroke="transparent" points="-4,4 -4,-280 904,-280 904,4 -4,4"/>
<text text-anchor="start" x="429.01" y="-42.4" font-family="sans-serif" font-weight="bold" font-size="14.00">Legend</text>
<polygon fill="#ffffb3" stroke="transparent" points="216,-10 216,-30 236,-30 236,-10 216,-10"/>
<text text-anchor="start" x="239.63" y="-15.4" font-family="sans-serif" font-size="14.00"> &#160;Declarations</text>
<polygon fill="#8dd3c7" stroke="transparent" points="329,-10 329,-30 349,-30 349,-10 329,-10"/>
<text text-anchor="start" x="352.73" y="-15.4" font-family="sans-serif" font-size="14.00"> &#160;Module</text>
<polygon fill="#80b1d3" stroke="transparent" points="415,-10 415,-30 435,-30 435,-10 415,-10"/>
<text text-anchor="start" x="438.78" y="-15.4" font-family="sans-serif" font-size="14.00"> &#160;Bootstrap</text>
<polygon fill="#fdb462" stroke="transparent" points="512,-10 512,-30 532,-30 532,-10 512,-10"/>
<text text-anchor="start" x="535.67" y="-15.4" font-family="sans-serif" font-size="14.00"> &#160;Providers</text>
<polygon fill="#fb8072" stroke="transparent" points="608,-10 608,-30 628,-30 628,-10 608,-10"/>
<text text-anchor="start" x="631.73" y="-15.4" font-family="sans-serif" font-size="14.00"> &#160;Exports</text>
<g id="clust1" class="cluster">
<title>cluster_CoreModule</title>
<polygon fill="none" stroke="black" stroke-dasharray="1,5" points="8,-70 8,-268 892,-268 892,-70 8,-70"/>
</g>
<g id="clust2" class="cluster">
<title>cluster_CoreModule_declarations</title>
<polygon fill="none" stroke="black" points="243,-78 243,-130 884,-130 884,-78 243,-78"/>
</g>
<g id="clust8" class="cluster">
<title>cluster_CoreModule_exports</title>
<polygon fill="none" stroke="black" points="165,-208 165,-260 736,-260 736,-208 165,-208"/>
</g>
<g id="clust7" class="cluster">
<title>cluster_CoreModule_imports</title>
<polygon fill="none" stroke="black" points="16,-78 16,-130 235,-130 235,-78 16,-78"/>
</g>
<!-- CornerRibbonComponent -->
<g id="node1" class="node">
<title>CornerRibbonComponent</title>
<polygon fill="#ffffb3" stroke="black" points="875.93,-122 714.07,-122 714.07,-86 875.93,-86 875.93,-122"/>
<text text-anchor="middle" x="795" y="-99.8" font-family="Times,serif" font-size="14.00">CornerRibbonComponent</text>
</g>
<!-- CoreModule -->
<g id="node5" class="node">
<title>CoreModule</title>
<polygon fill="#8dd3c7" stroke="black" points="457.26,-187 454.26,-191 433.26,-191 430.26,-187 370.74,-187 370.74,-151 457.26,-151 457.26,-187"/>
<text text-anchor="middle" x="414" y="-164.8" font-family="Times,serif" font-size="14.00">CoreModule</text>
</g>
<!-- CornerRibbonComponent&#45;&gt;CoreModule -->
<g id="edge1" class="edge">
<title>CornerRibbonComponent&#45;&gt;CoreModule</title>
<path fill="none" stroke="black" d="M721.38,-122.11C721.38,-141.34 721.38,-169 721.38,-169 721.38,-169 467.39,-169 467.39,-169"/>
<polygon fill="black" stroke="black" points="467.39,-165.5 457.39,-169 467.39,-172.5 467.39,-165.5"/>
</g>
<!-- FooterComponent -->
<g id="node2" class="node">
<title>FooterComponent</title>
<polygon fill="#ffffb3" stroke="black" points="695.88,-122 578.12,-122 578.12,-86 695.88,-86 695.88,-122"/>
<text text-anchor="middle" x="637" y="-99.8" font-family="Times,serif" font-size="14.00">FooterComponent</text>
</g>
<!-- FooterComponent&#45;&gt;CoreModule -->
<g id="edge2" class="edge">
<title>FooterComponent&#45;&gt;CoreModule</title>
<path fill="none" stroke="black" d="M637,-122.03C637,-138.4 637,-160 637,-160 637,-160 467.53,-160 467.53,-160"/>
<polygon fill="black" stroke="black" points="467.53,-156.5 457.53,-160 467.53,-163.5 467.53,-156.5"/>
</g>
<!-- HeaderComponent -->
<g id="node3" class="node">
<title>HeaderComponent</title>
<polygon fill="#ffffb3" stroke="black" points="559.74,-122 438.26,-122 438.26,-86 559.74,-86 559.74,-122"/>
<text text-anchor="middle" x="499" y="-99.8" font-family="Times,serif" font-size="14.00">HeaderComponent</text>
</g>
<!-- HeaderComponent&#45;&gt;CoreModule -->
<g id="edge3" class="edge">
<title>HeaderComponent&#45;&gt;CoreModule</title>
<path fill="none" stroke="black" d="M447.75,-122.11C447.75,-122.11 447.75,-140.99 447.75,-140.99"/>
<polygon fill="black" stroke="black" points="444.25,-140.99 447.75,-150.99 451.25,-140.99 444.25,-140.99"/>
</g>
<!-- LocaleSwitcherComponent -->
<g id="node4" class="node">
<title>LocaleSwitcherComponent</title>
<polygon fill="#ffffb3" stroke="black" points="420.68,-122 251.32,-122 251.32,-86 420.68,-86 420.68,-122"/>
<text text-anchor="middle" x="336" y="-99.8" font-family="Times,serif" font-size="14.00">LocaleSwitcherComponent</text>
</g>
<!-- LocaleSwitcherComponent&#45;&gt;CoreModule -->
<g id="edge4" class="edge">
<title>LocaleSwitcherComponent&#45;&gt;CoreModule</title>
<path fill="none" stroke="black" d="M395.6,-122.11C395.6,-122.11 395.6,-140.99 395.6,-140.99"/>
<polygon fill="black" stroke="black" points="392.1,-140.99 395.6,-150.99 399.1,-140.99 392.1,-140.99"/>
</g>
<!-- CornerRibbonComponent  -->
<g id="node8" class="node">
<title>CornerRibbonComponent </title>
<polygon fill="#fb8072" stroke="black" points="728.43,-252 563.57,-252 563.57,-216 728.43,-216 728.43,-252"/>
<text text-anchor="middle" x="646" y="-229.8" font-family="Times,serif" font-size="14.00">CornerRibbonComponent </text>
</g>
<!-- CoreModule&#45;&gt;CornerRibbonComponent  -->
<g id="edge7" class="edge">
<title>CoreModule&#45;&gt;CornerRibbonComponent </title>
<path fill="none" stroke="black" stroke-dasharray="5,2" d="M457.68,-178C504.07,-178 570.8,-178 570.8,-178 570.8,-178 570.8,-205.97 570.8,-205.97"/>
<polygon fill="black" stroke="black" points="567.3,-205.97 570.8,-215.97 574.3,-205.97 567.3,-205.97"/>
</g>
<!-- FooterComponent  -->
<g id="node9" class="node">
<title>FooterComponent </title>
<polygon fill="#fb8072" stroke="black" points="545.88,-252 424.12,-252 424.12,-216 545.88,-216 545.88,-252"/>
<text text-anchor="middle" x="485" y="-229.8" font-family="Times,serif" font-size="14.00">FooterComponent </text>
</g>
<!-- CoreModule&#45;&gt;FooterComponent  -->
<g id="edge8" class="edge">
<title>CoreModule&#45;&gt;FooterComponent </title>
<path fill="none" stroke="black" stroke-dasharray="5,2" d="M440.85,-187.11C440.85,-187.11 440.85,-205.99 440.85,-205.99"/>
<polygon fill="black" stroke="black" points="437.35,-205.99 440.85,-215.99 444.35,-205.99 437.35,-205.99"/>
</g>
<!-- HeaderComponent  -->
<g id="node10" class="node">
<title>HeaderComponent </title>
<polygon fill="#fb8072" stroke="black" points="406.74,-252 281.26,-252 281.26,-216 406.74,-216 406.74,-252"/>
<text text-anchor="middle" x="344" y="-229.8" font-family="Times,serif" font-size="14.00">HeaderComponent </text>
</g>
<!-- CoreModule&#45;&gt;HeaderComponent  -->
<g id="edge9" class="edge">
<title>CoreModule&#45;&gt;HeaderComponent </title>
<path fill="none" stroke="black" stroke-dasharray="5,2" d="M388.62,-187.11C388.62,-187.11 388.62,-205.99 388.62,-205.99"/>
<polygon fill="black" stroke="black" points="385.12,-205.99 388.62,-215.99 392.12,-205.99 385.12,-205.99"/>
</g>
<!-- PageModule  -->
<g id="node11" class="node">
<title>PageModule </title>
<polygon fill="#fb8072" stroke="black" points="263.26,-252 172.74,-252 172.74,-216 263.26,-216 263.26,-252"/>
<text text-anchor="middle" x="218" y="-229.8" font-family="Times,serif" font-size="14.00">PageModule </text>
</g>
<!-- CoreModule&#45;&gt;PageModule  -->
<g id="edge10" class="edge">
<title>CoreModule&#45;&gt;PageModule </title>
<path fill="none" stroke="black" stroke-dasharray="5,2" d="M370.34,-178C323.97,-178 257.27,-178 257.27,-178 257.27,-178 257.27,-205.97 257.27,-205.97"/>
<polygon fill="black" stroke="black" points="253.77,-205.97 257.27,-215.97 260.77,-205.97 253.77,-205.97"/>
</g>
<!-- PageModule -->
<g id="node6" class="node">
<title>PageModule</title>
<polygon fill="#8dd3c7" stroke="black" points="227.26,-122 224.26,-126 203.26,-126 200.26,-122 140.74,-122 140.74,-86 227.26,-86 227.26,-122"/>
<text text-anchor="middle" x="184" y="-99.8" font-family="Times,serif" font-size="14.00">PageModule</text>
</g>
<!-- PageModule&#45;&gt;CoreModule -->
<g id="edge5" class="edge">
<title>PageModule&#45;&gt;CoreModule</title>
<path fill="none" stroke="black" d="M200.12,-122.03C200.12,-138.4 200.12,-160 200.12,-160 200.12,-160 360.72,-160 360.72,-160"/>
<polygon fill="black" stroke="black" points="360.72,-163.5 370.72,-160 360.72,-156.5 360.72,-163.5"/>
</g>
<!-- SharedModule -->
<g id="node7" class="node">
<title>SharedModule</title>
<polygon fill="#8dd3c7" stroke="black" points="122.42,-122 119.42,-126 98.42,-126 95.42,-122 23.58,-122 23.58,-86 122.42,-86 122.42,-122"/>
<text text-anchor="middle" x="73" y="-99.8" font-family="Times,serif" font-size="14.00">SharedModule</text>
</g>
<!-- SharedModule&#45;&gt;CoreModule -->
<g id="edge6" class="edge">
<title>SharedModule&#45;&gt;CoreModule</title>
<path fill="none" stroke="black" d="M73,-122.11C73,-141.34 73,-169 73,-169 73,-169 360.47,-169 360.47,-169"/>
<polygon fill="black" stroke="black" points="360.47,-172.5 370.47,-169 360.47,-165.5 360.47,-172.5"/>
</g>
</g>
</svg>
