<?xml version="1.0" encoding="UTF-8" standalone="no"?>
<!DOCTYPE svg PUBLIC "-//W3C//DTD SVG 1.1//EN"
 "http://www.w3.org/Graphics/SVG/1.1/DTD/svg11.dtd">
<!-- Generated by graphviz version 5.0.0 (20220707.1540)
 -->
<!-- Title: dependencies Pages: 1 -->
<svg width="908pt" height="247pt"
 viewBox="0.00 0.00 908.00 246.80" xmlns="http://www.w3.org/2000/svg" xmlns:xlink="http://www.w3.org/1999/xlink">
<g id="graph0" class="graph" transform="scale(1 1) rotate(0) translate(4 242.8)">
<title>dependencies</title>
<polygon fill="white" stroke="transparent" points="-4,4 -4,-242.8 904,-242.8 904,4 -4,4"/>
<text text-anchor="middle" x="450" y="-8.2" font-family="sans-serif" font-size="14.00">dependencies</text>
<g id="clust1" class="cluster">
<title>cluster_CoreModule</title>
<polygon fill="none" stroke="black" stroke-dasharray="1,5" points="8,-32.8 8,-230.8 892,-230.8 892,-32.8 8,-32.8"/>
</g>
<g id="clust8" class="cluster">
<title>cluster_CoreModule_exports</title>
<polygon fill="none" stroke="black" points="165,-170.8 165,-222.8 736,-222.8 736,-170.8 165,-170.8"/>
</g>
<g id="clust2" class="cluster">
<title>cluster_CoreModule_declarations</title>
<polygon fill="none" stroke="black" points="243,-40.8 243,-92.8 884,-92.8 884,-40.8 243,-40.8"/>
</g>
<g id="clust7" class="cluster">
<title>cluster_CoreModule_imports</title>
<polygon fill="none" stroke="black" points="16,-40.8 16,-92.8 235,-92.8 235,-40.8 16,-40.8"/>
</g>
<!-- CornerRibbonComponent -->
<g id="node1" class="node">
<title>CornerRibbonComponent</title>
<polygon fill="#ffffb3" stroke="black" points="875.94,-84.8 714.06,-84.8 714.06,-48.8 875.94,-48.8 875.94,-84.8"/>
<text text-anchor="middle" x="795" y="-62.6" font-family="Times,serif" font-size="14.00">CornerRibbonComponent</text>
</g>
<!-- CoreModule -->
<g id="node5" class="node">
<title>CoreModule</title>
<polygon fill="#8dd3c7" stroke="black" points="457.27,-149.8 454.27,-153.8 433.27,-153.8 430.27,-149.8 370.73,-149.8 370.73,-113.8 457.27,-113.8 457.27,-149.8"/>
<text text-anchor="middle" x="414" y="-127.6" font-family="Times,serif" font-size="14.00">CoreModule</text>
</g>
<!-- CornerRibbonComponent&#45;&gt;CoreModule -->
<g id="edge1" class="edge">
<title>CornerRibbonComponent&#45;&gt;CoreModule</title>
<path fill="none" stroke="black" d="M721.38,-84.91C721.38,-104.14 721.38,-131.8 721.38,-131.8 721.38,-131.8 467.39,-131.8 467.39,-131.8"/>
<polygon fill="black" stroke="black" points="467.39,-128.3 457.39,-131.8 467.39,-135.3 467.39,-128.3"/>
</g>
<!-- FooterComponent -->
<g id="node2" class="node">
<title>FooterComponent</title>
<polygon fill="#ffffb3" stroke="black" points="695.88,-84.8 578.12,-84.8 578.12,-48.8 695.88,-48.8 695.88,-84.8"/>
<text text-anchor="middle" x="637" y="-62.6" font-family="Times,serif" font-size="14.00">FooterComponent</text>
</g>
<!-- FooterComponent&#45;&gt;CoreModule -->
<g id="edge2" class="edge">
<title>FooterComponent&#45;&gt;CoreModule</title>
<path fill="none" stroke="black" d="M637,-84.83C637,-101.2 637,-122.8 637,-122.8 637,-122.8 467.53,-122.8 467.53,-122.8"/>
<polygon fill="black" stroke="black" points="467.53,-119.3 457.53,-122.8 467.53,-126.3 467.53,-119.3"/>
</g>
<!-- HeaderComponent -->
<g id="node3" class="node">
<title>HeaderComponent</title>
<polygon fill="#ffffb3" stroke="black" points="559.75,-84.8 438.25,-84.8 438.25,-48.8 559.75,-48.8 559.75,-84.8"/>
<text text-anchor="middle" x="499" y="-62.6" font-family="Times,serif" font-size="14.00">HeaderComponent</text>
</g>
<!-- HeaderComponent&#45;&gt;CoreModule -->
<g id="edge3" class="edge">
<title>HeaderComponent&#45;&gt;CoreModule</title>
<path fill="none" stroke="black" d="M447.76,-84.91C447.76,-84.91 447.76,-103.79 447.76,-103.79"/>
<polygon fill="black" stroke="black" points="444.26,-103.79 447.76,-113.79 451.26,-103.79 444.26,-103.79"/>
</g>
<!-- LocaleSwitcherComponent -->
<g id="node4" class="node">
<title>LocaleSwitcherComponent</title>
<polygon fill="#ffffb3" stroke="black" points="420.68,-84.8 251.32,-84.8 251.32,-48.8 420.68,-48.8 420.68,-84.8"/>
<text text-anchor="middle" x="336" y="-62.6" font-family="Times,serif" font-size="14.00">LocaleSwitcherComponent</text>
</g>
<!-- LocaleSwitcherComponent&#45;&gt;CoreModule -->
<g id="edge4" class="edge">
<title>LocaleSwitcherComponent&#45;&gt;CoreModule</title>
<path fill="none" stroke="black" d="M395.6,-84.91C395.6,-84.91 395.6,-103.79 395.6,-103.79"/>
<polygon fill="black" stroke="black" points="392.1,-103.79 395.6,-113.79 399.1,-103.79 392.1,-103.79"/>
</g>
<!-- CornerRibbonComponent  -->
<g id="node8" class="node">
<title>CornerRibbonComponent </title>
<polygon fill="#fb8072" stroke="black" points="728.43,-214.8 563.57,-214.8 563.57,-178.8 728.43,-178.8 728.43,-214.8"/>
<text text-anchor="middle" x="646" y="-192.6" font-family="Times,serif" font-size="14.00">CornerRibbonComponent </text>
</g>
<!-- CoreModule&#45;&gt;CornerRibbonComponent  -->
<g id="edge7" class="edge">
<title>CoreModule&#45;&gt;CornerRibbonComponent </title>
<path fill="none" stroke="black" stroke-dasharray="5,2" d="M457.68,-140.8C504.07,-140.8 570.8,-140.8 570.8,-140.8 570.8,-140.8 570.8,-168.77 570.8,-168.77"/>
<polygon fill="black" stroke="black" points="567.3,-168.77 570.8,-178.77 574.3,-168.77 567.3,-168.77"/>
</g>
<!-- FooterComponent  -->
<g id="node9" class="node">
<title>FooterComponent </title>
<polygon fill="#fb8072" stroke="black" points="545.88,-214.8 424.12,-214.8 424.12,-178.8 545.88,-178.8 545.88,-214.8"/>
<text text-anchor="middle" x="485" y="-192.6" font-family="Times,serif" font-size="14.00">FooterComponent </text>
</g>
<!-- CoreModule&#45;&gt;FooterComponent  -->
<g id="edge8" class="edge">
<title>CoreModule&#45;&gt;FooterComponent </title>
<path fill="none" stroke="black" stroke-dasharray="5,2" d="M440.85,-149.91C440.85,-149.91 440.85,-168.79 440.85,-168.79"/>
<polygon fill="black" stroke="black" points="437.35,-168.79 440.85,-178.79 444.35,-168.79 437.35,-168.79"/>
</g>
<!-- HeaderComponent  -->
<g id="node10" class="node">
<title>HeaderComponent </title>
<polygon fill="#fb8072" stroke="black" points="406.75,-214.8 281.25,-214.8 281.25,-178.8 406.75,-178.8 406.75,-214.8"/>
<text text-anchor="middle" x="344" y="-192.6" font-family="Times,serif" font-size="14.00">HeaderComponent </text>
</g>
<!-- CoreModule&#45;&gt;HeaderComponent  -->
<g id="edge9" class="edge">
<title>CoreModule&#45;&gt;HeaderComponent </title>
<path fill="none" stroke="black" stroke-dasharray="5,2" d="M388.62,-149.91C388.62,-149.91 388.62,-168.79 388.62,-168.79"/>
<polygon fill="black" stroke="black" points="385.12,-168.79 388.62,-178.79 392.12,-168.79 385.12,-168.79"/>
</g>
<!-- PageModule  -->
<g id="node11" class="node">
<title>PageModule </title>
<polygon fill="#fb8072" stroke="black" points="263.27,-214.8 172.73,-214.8 172.73,-178.8 263.27,-178.8 263.27,-214.8"/>
<text text-anchor="middle" x="218" y="-192.6" font-family="Times,serif" font-size="14.00">PageModule </text>
</g>
<!-- CoreModule&#45;&gt;PageModule  -->
<g id="edge10" class="edge">
<title>CoreModule&#45;&gt;PageModule </title>
<path fill="none" stroke="black" stroke-dasharray="5,2" d="M370.34,-140.8C323.97,-140.8 257.27,-140.8 257.27,-140.8 257.27,-140.8 257.27,-168.77 257.27,-168.77"/>
<polygon fill="black" stroke="black" points="253.77,-168.77 257.27,-178.77 260.77,-168.77 253.77,-168.77"/>
</g>
<!-- PageModule -->
<g id="node6" class="node">
<title>PageModule</title>
<polygon fill="#8dd3c7" stroke="black" points="227.27,-84.8 224.27,-88.8 203.27,-88.8 200.27,-84.8 140.73,-84.8 140.73,-48.8 227.27,-48.8 227.27,-84.8"/>
<text text-anchor="middle" x="184" y="-62.6" font-family="Times,serif" font-size="14.00">PageModule</text>
</g>
<!-- PageModule&#45;&gt;CoreModule -->
<g id="edge5" class="edge">
<title>PageModule&#45;&gt;CoreModule</title>
<path fill="none" stroke="black" d="M200.12,-84.83C200.12,-101.2 200.12,-122.8 200.12,-122.8 200.12,-122.8 360.72,-122.8 360.72,-122.8"/>
<polygon fill="black" stroke="black" points="360.72,-126.3 370.72,-122.8 360.72,-119.3 360.72,-126.3"/>
</g>
<!-- SharedModule -->
<g id="node7" class="node">
<title>SharedModule</title>
<polygon fill="#8dd3c7" stroke="black" points="122.43,-84.8 119.43,-88.8 98.43,-88.8 95.43,-84.8 23.57,-84.8 23.57,-48.8 122.43,-48.8 122.43,-84.8"/>
<text text-anchor="middle" x="73" y="-62.6" font-family="Times,serif" font-size="14.00">SharedModule</text>
</g>
<!-- SharedModule&#45;&gt;CoreModule -->
<g id="edge6" class="edge">
<title>SharedModule&#45;&gt;CoreModule</title>
<path fill="none" stroke="black" d="M73,-84.91C73,-104.14 73,-131.8 73,-131.8 73,-131.8 360.47,-131.8 360.47,-131.8"/>
<polygon fill="black" stroke="black" points="360.47,-135.3 370.47,-131.8 360.47,-128.3 360.47,-135.3"/>
</g>
</g>
</svg>
