<?xml version="1.0" encoding="UTF-8" standalone="no"?>
<!DOCTYPE svg PUBLIC "-//W3C//DTD SVG 1.1//EN"
 "http://www.w3.org/Graphics/SVG/1.1/DTD/svg11.dtd">
<!-- Generated by graphviz version 5.0.0 (20220707.1540)
 -->
<!-- Title: dependencies Pages: 1 -->
<svg width="1468pt" height="174pt"
 viewBox="0.00 0.00 1468.00 173.80" xmlns="http://www.w3.org/2000/svg" xmlns:xlink="http://www.w3.org/1999/xlink">
<g id="graph0" class="graph" transform="scale(1 1) rotate(0) translate(4 169.8)">
<title>dependencies</title>
<polygon fill="white" stroke="transparent" points="-4,4 -4,-169.8 1464,-169.8 1464,4 -4,4"/>
<text text-anchor="middle" x="730" y="-8.2" font-family="sans-serif" font-size="14.00">dependencies</text>
<g id="clust1" class="cluster">
<title>cluster_WebernModule</title>
<polygon fill="none" stroke="black" stroke-dasharray="1,5" points="8,-32.8 8,-157.8 1452,-157.8 1452,-32.8 8,-32.8"/>
</g>
<g id="clust2" class="cluster">
<title>cluster_WebernModule_declarations</title>
<polygon fill="none" stroke="black" points="305,-40.8 305,-92.8 1444,-92.8 1444,-40.8 305,-40.8"/>
</g>
<g id="clust9" class="cluster">
<title>cluster_WebernModule_imports</title>
<polygon fill="none" stroke="black" points="16,-40.8 16,-92.8 297,-92.8 297,-40.8 16,-40.8"/>
</g>
<!-- WebernBibliographyComponent -->
<g id="node1" class="node">
<title>WebernBibliographyComponent</title>
<polygon fill="#ffffb3" stroke="black" points="1435.52,-84.8 1236.48,-84.8 1236.48,-48.8 1435.52,-48.8 1435.52,-84.8"/>
<text text-anchor="middle" x="1336" y="-62.6" font-family="Times,serif" font-size="14.00">WebernBibliographyComponent</text>
</g>
<!-- WebernModule -->
<g id="node7" class="node">
<title>WebernModule</title>
<polygon fill="#8dd3c7" stroke="black" points="737.86,-149.8 734.86,-153.8 713.86,-153.8 710.86,-149.8 634.14,-149.8 634.14,-113.8 737.86,-113.8 737.86,-149.8"/>
<text text-anchor="middle" x="686" y="-127.6" font-family="Times,serif" font-size="14.00">WebernModule</text>
</g>
<!-- WebernBibliographyComponent&#45;&gt;WebernModule -->
<g id="edge1" class="edge">
<title>WebernBibliographyComponent&#45;&gt;WebernModule</title>
<path fill="none" stroke="black" d="M1336,-85.09C1336,-107.01 1336,-140.8 1336,-140.8 1336,-140.8 748.09,-140.8 748.09,-140.8"/>
<polygon fill="black" stroke="black" points="748.09,-137.3 738.09,-140.8 748.09,-144.3 748.09,-137.3"/>
</g>
<!-- WebernChronologyComponent -->
<g id="node2" class="node">
<title>WebernChronologyComponent</title>
<polygon fill="#ffffb3" stroke="black" points="1218.03,-84.8 1025.97,-84.8 1025.97,-48.8 1218.03,-48.8 1218.03,-84.8"/>
<text text-anchor="middle" x="1122" y="-62.6" font-family="Times,serif" font-size="14.00">WebernChronologyComponent</text>
</g>
<!-- WebernChronologyComponent&#45;&gt;WebernModule -->
<g id="edge2" class="edge">
<title>WebernChronologyComponent&#45;&gt;WebernModule</title>
<path fill="none" stroke="black" d="M1122,-84.91C1122,-104.14 1122,-131.8 1122,-131.8 1122,-131.8 748.16,-131.8 748.16,-131.8"/>
<polygon fill="black" stroke="black" points="748.16,-128.3 738.16,-131.8 748.16,-135.3 748.16,-128.3"/>
</g>
<!-- WebernComponent -->
<g id="node3" class="node">
<title>WebernComponent</title>
<polygon fill="#ffffb3" stroke="black" points="1007.64,-84.8 882.36,-84.8 882.36,-48.8 1007.64,-48.8 1007.64,-84.8"/>
<text text-anchor="middle" x="945" y="-62.6" font-family="Times,serif" font-size="14.00">WebernComponent</text>
</g>
<!-- WebernComponent&#45;&gt;WebernModule -->
<g id="edge3" class="edge">
<title>WebernComponent&#45;&gt;WebernModule</title>
<path fill="none" stroke="black" d="M945,-84.83C945,-101.2 945,-122.8 945,-122.8 945,-122.8 748.1,-122.8 748.1,-122.8"/>
<polygon fill="black" stroke="black" points="748.1,-119.3 738.1,-122.8 748.1,-126.3 748.1,-119.3"/>
</g>
<!-- WebernLettersComponent -->
<g id="node4" class="node">
<title>WebernLettersComponent</title>
<polygon fill="#ffffb3" stroke="black" points="864,-84.8 700,-84.8 700,-48.8 864,-48.8 864,-84.8"/>
<text text-anchor="middle" x="782" y="-62.6" font-family="Times,serif" font-size="14.00">WebernLettersComponent</text>
</g>
<!-- WebernLettersComponent&#45;&gt;WebernModule -->
<g id="edge4" class="edge">
<title>WebernLettersComponent&#45;&gt;WebernModule</title>
<path fill="none" stroke="black" d="M718.84,-84.91C718.84,-84.91 718.84,-103.79 718.84,-103.79"/>
<polygon fill="black" stroke="black" points="715.34,-103.79 718.84,-113.79 722.34,-103.79 715.34,-103.79"/>
</g>
<!-- WebernOverviewComponent -->
<g id="node5" class="node">
<title>WebernOverviewComponent</title>
<polygon fill="#ffffb3" stroke="black" points="681.34,-84.8 500.66,-84.8 500.66,-48.8 681.34,-48.8 681.34,-84.8"/>
<text text-anchor="middle" x="591" y="-62.6" font-family="Times,serif" font-size="14.00">WebernOverviewComponent</text>
</g>
<!-- WebernOverviewComponent&#45;&gt;WebernModule -->
<g id="edge5" class="edge">
<title>WebernOverviewComponent&#45;&gt;WebernModule</title>
<path fill="none" stroke="black" d="M657.74,-84.91C657.74,-84.91 657.74,-103.79 657.74,-103.79"/>
<polygon fill="black" stroke="black" points="654.24,-103.79 657.74,-113.79 661.24,-103.79 654.24,-103.79"/>
</g>
<!-- WebernPersonsComponent -->
<g id="node6" class="node">
<title>WebernPersonsComponent</title>
<polygon fill="#ffffb3" stroke="black" points="482.69,-84.8 313.31,-84.8 313.31,-48.8 482.69,-48.8 482.69,-84.8"/>
<text text-anchor="middle" x="398" y="-62.6" font-family="Times,serif" font-size="14.00">WebernPersonsComponent</text>
</g>
<!-- WebernPersonsComponent&#45;&gt;WebernModule -->
<g id="edge6" class="edge">
<title>WebernPersonsComponent&#45;&gt;WebernModule</title>
<path fill="none" stroke="black" d="M398,-84.83C398,-101.2 398,-122.8 398,-122.8 398,-122.8 623.85,-122.8 623.85,-122.8"/>
<polygon fill="black" stroke="black" points="623.85,-126.3 633.85,-122.8 623.85,-119.3 623.85,-126.3"/>
</g>
<!-- SharedModule -->
<g id="node8" class="node">
<title>SharedModule</title>
<polygon fill="#8dd3c7" stroke="black" points="289.43,-84.8 286.43,-88.8 265.43,-88.8 262.43,-84.8 190.57,-84.8 190.57,-48.8 289.43,-48.8 289.43,-84.8"/>
<text text-anchor="middle" x="240" y="-62.6" font-family="Times,serif" font-size="14.00">SharedModule</text>
</g>
<!-- SharedModule&#45;&gt;WebernModule -->
<g id="edge7" class="edge">
<title>SharedModule&#45;&gt;WebernModule</title>
<path fill="none" stroke="black" d="M240,-84.91C240,-104.14 240,-131.8 240,-131.8 240,-131.8 623.97,-131.8 623.97,-131.8"/>
<polygon fill="black" stroke="black" points="623.97,-135.3 633.97,-131.8 623.97,-128.3 623.97,-135.3"/>
</g>
<!-- WebernRoutingModule -->
<g id="node9" class="node">
<title>WebernRoutingModule</title>
<polygon fill="#8dd3c7" stroke="black" points="172.47,-84.8 169.47,-88.8 148.47,-88.8 145.47,-84.8 23.53,-84.8 23.53,-48.8 172.47,-48.8 172.47,-84.8"/>
<text text-anchor="middle" x="98" y="-62.6" font-family="Times,serif" font-size="14.00">WebernRoutingModule</text>
</g>
<!-- WebernRoutingModule&#45;&gt;WebernModule -->
<g id="edge8" class="edge">
<title>WebernRoutingModule&#45;&gt;WebernModule</title>
<path fill="none" stroke="black" d="M98,-85.09C98,-107.01 98,-140.8 98,-140.8 98,-140.8 624.08,-140.8 624.08,-140.8"/>
<polygon fill="black" stroke="black" points="624.08,-144.3 634.08,-140.8 624.08,-137.3 624.08,-144.3"/>
</g>
</g>
</svg>
