<?xml version="1.0" encoding="UTF-8" standalone="no"?>
<!DOCTYPE svg PUBLIC "-//W3C//DTD SVG 1.1//EN"
 "http://www.w3.org/Graphics/SVG/1.1/DTD/svg11.dtd">
<!-- Generated by graphviz version 2.47.0 (20210316.0004)
 -->
<!-- Title: dependencies Pages: 1 -->
<svg width="1468pt" height="211pt"
 viewBox="0.00 0.00 1468.00 211.00" xmlns="http://www.w3.org/2000/svg" xmlns:xlink="http://www.w3.org/1999/xlink">
<g id="graph0" class="graph" transform="scale(1 1) rotate(0) translate(4 207)">
<title>dependencies</title>
<polygon fill="white" stroke="transparent" points="-4,4 -4,-207 1464,-207 1464,4 -4,4"/>
<text text-anchor="start" x="709.01" y="-42.4" font-family="sans-serif" font-weight="bold" font-size="14.00">Legend</text>
<polygon fill="#ffffb3" stroke="transparent" points="496,-10 496,-30 516,-30 516,-10 496,-10"/>
<text text-anchor="start" x="519.63" y="-15.4" font-family="sans-serif" font-size="14.00"> &#160;Declarations</text>
<polygon fill="#8dd3c7" stroke="transparent" points="609,-10 609,-30 629,-30 629,-10 609,-10"/>
<text text-anchor="start" x="632.73" y="-15.4" font-family="sans-serif" font-size="14.00"> &#160;Module</text>
<polygon fill="#80b1d3" stroke="transparent" points="695,-10 695,-30 715,-30 715,-10 695,-10"/>
<text text-anchor="start" x="718.78" y="-15.4" font-family="sans-serif" font-size="14.00"> &#160;Bootstrap</text>
<polygon fill="#fdb462" stroke="transparent" points="792,-10 792,-30 812,-30 812,-10 792,-10"/>
<text text-anchor="start" x="815.67" y="-15.4" font-family="sans-serif" font-size="14.00"> &#160;Providers</text>
<polygon fill="#fb8072" stroke="transparent" points="888,-10 888,-30 908,-30 908,-10 888,-10"/>
<text text-anchor="start" x="911.73" y="-15.4" font-family="sans-serif" font-size="14.00"> &#160;Exports</text>
<g id="clust1" class="cluster">
<title>cluster_WebernModule</title>
<polygon fill="none" stroke="black" stroke-dasharray="1,5" points="8,-70 8,-195 1452,-195 1452,-70 8,-70"/>
</g>
<g id="clust2" class="cluster">
<title>cluster_WebernModule_declarations</title>
<polygon fill="none" stroke="black" points="305,-78 305,-130 1444,-130 1444,-78 305,-78"/>
</g>
<g id="clust9" class="cluster">
<title>cluster_WebernModule_imports</title>
<polygon fill="none" stroke="black" points="16,-78 16,-130 297,-130 297,-78 16,-78"/>
</g>
<!-- WebernBibliographyComponent -->
<g id="node1" class="node">
<title>WebernBibliographyComponent</title>
<polygon fill="#ffffb3" stroke="black" points="1435.52,-122 1236.48,-122 1236.48,-86 1435.52,-86 1435.52,-122"/>
<text text-anchor="middle" x="1336" y="-99.8" font-family="Times,serif" font-size="14.00">WebernBibliographyComponent</text>
</g>
<!-- WebernModule -->
<g id="node7" class="node">
<title>WebernModule</title>
<polygon fill="#8dd3c7" stroke="black" points="737.85,-187 734.85,-191 713.85,-191 710.85,-187 634.15,-187 634.15,-151 737.85,-151 737.85,-187"/>
<text text-anchor="middle" x="686" y="-164.8" font-family="Times,serif" font-size="14.00">WebernModule</text>
</g>
<!-- WebernBibliographyComponent&#45;&gt;WebernModule -->
<g id="edge1" class="edge">
<title>WebernBibliographyComponent&#45;&gt;WebernModule</title>
<path fill="none" stroke="black" d="M1336,-122.29C1336,-144.21 1336,-178 1336,-178 1336,-178 748.09,-178 748.09,-178"/>
<polygon fill="black" stroke="black" points="748.09,-174.5 738.09,-178 748.09,-181.5 748.09,-174.5"/>
</g>
<!-- WebernChronologyComponent -->
<g id="node2" class="node">
<title>WebernChronologyComponent</title>
<polygon fill="#ffffb3" stroke="black" points="1218.03,-122 1025.97,-122 1025.97,-86 1218.03,-86 1218.03,-122"/>
<text text-anchor="middle" x="1122" y="-99.8" font-family="Times,serif" font-size="14.00">WebernChronologyComponent</text>
</g>
<!-- WebernChronologyComponent&#45;&gt;WebernModule -->
<g id="edge2" class="edge">
<title>WebernChronologyComponent&#45;&gt;WebernModule</title>
<path fill="none" stroke="black" d="M1122,-122.11C1122,-141.34 1122,-169 1122,-169 1122,-169 748.16,-169 748.16,-169"/>
<polygon fill="black" stroke="black" points="748.16,-165.5 738.16,-169 748.16,-172.5 748.16,-165.5"/>
</g>
<!-- WebernComponent -->
<g id="node3" class="node">
<title>WebernComponent</title>
<polygon fill="#ffffb3" stroke="black" points="1007.64,-122 882.36,-122 882.36,-86 1007.64,-86 1007.64,-122"/>
<text text-anchor="middle" x="945" y="-99.8" font-family="Times,serif" font-size="14.00">WebernComponent</text>
</g>
<!-- WebernComponent&#45;&gt;WebernModule -->
<g id="edge3" class="edge">
<title>WebernComponent&#45;&gt;WebernModule</title>
<path fill="none" stroke="black" d="M945,-122.03C945,-138.4 945,-160 945,-160 945,-160 748.1,-160 748.1,-160"/>
<polygon fill="black" stroke="black" points="748.1,-156.5 738.1,-160 748.1,-163.5 748.1,-156.5"/>
</g>
<!-- WebernLettersComponent -->
<g id="node4" class="node">
<title>WebernLettersComponent</title>
<polygon fill="#ffffb3" stroke="black" points="864.01,-122 699.99,-122 699.99,-86 864.01,-86 864.01,-122"/>
<text text-anchor="middle" x="782" y="-99.8" font-family="Times,serif" font-size="14.00">WebernLettersComponent</text>
</g>
<!-- WebernLettersComponent&#45;&gt;WebernModule -->
<g id="edge4" class="edge">
<title>WebernLettersComponent&#45;&gt;WebernModule</title>
<path fill="none" stroke="black" d="M718.84,-122.11C718.84,-122.11 718.84,-140.99 718.84,-140.99"/>
<polygon fill="black" stroke="black" points="715.34,-140.99 718.84,-150.99 722.34,-140.99 715.34,-140.99"/>
</g>
<!-- WebernOverviewComponent -->
<g id="node5" class="node">
<title>WebernOverviewComponent</title>
<polygon fill="#ffffb3" stroke="black" points="681.33,-122 500.67,-122 500.67,-86 681.33,-86 681.33,-122"/>
<text text-anchor="middle" x="591" y="-99.8" font-family="Times,serif" font-size="14.00">WebernOverviewComponent</text>
</g>
<!-- WebernOverviewComponent&#45;&gt;WebernModule -->
<g id="edge5" class="edge">
<title>WebernOverviewComponent&#45;&gt;WebernModule</title>
<path fill="none" stroke="black" d="M657.74,-122.11C657.74,-122.11 657.74,-140.99 657.74,-140.99"/>
<polygon fill="black" stroke="black" points="654.24,-140.99 657.74,-150.99 661.24,-140.99 654.24,-140.99"/>
</g>
<!-- WebernPersonsComponent -->
<g id="node6" class="node">
<title>WebernPersonsComponent</title>
<polygon fill="#ffffb3" stroke="black" points="482.68,-122 313.32,-122 313.32,-86 482.68,-86 482.68,-122"/>
<text text-anchor="middle" x="398" y="-99.8" font-family="Times,serif" font-size="14.00">WebernPersonsComponent</text>
</g>
<!-- WebernPersonsComponent&#45;&gt;WebernModule -->
<g id="edge6" class="edge">
<title>WebernPersonsComponent&#45;&gt;WebernModule</title>
<path fill="none" stroke="black" d="M398,-122.03C398,-138.4 398,-160 398,-160 398,-160 623.85,-160 623.85,-160"/>
<polygon fill="black" stroke="black" points="623.85,-163.5 633.85,-160 623.85,-156.5 623.85,-163.5"/>
</g>
<!-- SharedModule -->
<g id="node8" class="node">
<title>SharedModule</title>
<polygon fill="#8dd3c7" stroke="black" points="289.42,-122 286.42,-126 265.42,-126 262.42,-122 190.58,-122 190.58,-86 289.42,-86 289.42,-122"/>
<text text-anchor="middle" x="240" y="-99.8" font-family="Times,serif" font-size="14.00">SharedModule</text>
</g>
<!-- SharedModule&#45;&gt;WebernModule -->
<g id="edge7" class="edge">
<title>SharedModule&#45;&gt;WebernModule</title>
<path fill="none" stroke="black" d="M240,-122.11C240,-141.34 240,-169 240,-169 240,-169 623.97,-169 623.97,-169"/>
<polygon fill="black" stroke="black" points="623.97,-172.5 633.97,-169 623.97,-165.5 623.97,-172.5"/>
</g>
<!-- WebernRoutingModule -->
<g id="node9" class="node">
<title>WebernRoutingModule</title>
<polygon fill="#8dd3c7" stroke="black" points="172.47,-122 169.47,-126 148.47,-126 145.47,-122 23.53,-122 23.53,-86 172.47,-86 172.47,-122"/>
<text text-anchor="middle" x="98" y="-99.8" font-family="Times,serif" font-size="14.00">WebernRoutingModule</text>
</g>
<!-- WebernRoutingModule&#45;&gt;WebernModule -->
<g id="edge8" class="edge">
<title>WebernRoutingModule&#45;&gt;WebernModule</title>
<path fill="none" stroke="black" d="M98,-122.29C98,-144.21 98,-178 98,-178 98,-178 624.08,-178 624.08,-178"/>
<polygon fill="black" stroke="black" points="624.08,-181.5 634.08,-178 624.08,-174.5 624.08,-181.5"/>
</g>
</g>
</svg>
