<?xml version="1.0" encoding="UTF-8" standalone="no"?>
<!DOCTYPE svg PUBLIC "-//W3C//DTD SVG 1.1//EN"
 "http://www.w3.org/Graphics/SVG/1.1/DTD/svg11.dtd">
<!-- Generated by graphviz version 2.47.0 (20210316.0004)
 -->
<!-- Title: dependencies Pages: 1 -->
<svg width="1468pt" height="211pt"
 viewBox="0.00 0.00 1468.00 211.00" xmlns="http://www.w3.org/2000/svg" xmlns:xlink="http://www.w3.org/1999/xlink">
<g id="graph0" class="graph" transform="scale(1 1) rotate(0) translate(4 207)">
<title>dependencies</title>
<polygon fill="white" stroke="transparent" points="-4,4 -4,-207 1464,-207 1464,4 -4,4"/>
<text text-anchor="start" x="709.01" y="-42.4" font-family="sans-serif" font-weight="bold" font-size="14.00">Legend</text>
<polygon fill="#ffffb3" stroke="transparent" points="496,-10 496,-30 516,-30 516,-10 496,-10"/>
<text text-anchor="start" x="519.63" y="-15.4" font-family="sans-serif" font-size="14.00"> &#160;Declarations</text>
<polygon fill="#8dd3c7" stroke="transparent" points="609,-10 609,-30 629,-30 629,-10 609,-10"/>
<text text-anchor="start" x="632.73" y="-15.4" font-family="sans-serif" font-size="14.00"> &#160;Module</text>
<polygon fill="#80b1d3" stroke="transparent" points="695,-10 695,-30 715,-30 715,-10 695,-10"/>
<text text-anchor="start" x="718.78" y="-15.4" font-family="sans-serif" font-size="14.00"> &#160;Bootstrap</text>
<polygon fill="#fdb462" stroke="transparent" points="792,-10 792,-30 812,-30 812,-10 792,-10"/>
<text text-anchor="start" x="815.67" y="-15.4" font-family="sans-serif" font-size="14.00"> &#160;Providers</text>
<polygon fill="#fb8072" stroke="transparent" points="888,-10 888,-30 908,-30 908,-10 888,-10"/>
<text text-anchor="start" x="911.73" y="-15.4" font-family="sans-serif" font-size="14.00"> &#160;Exports</text>
<g id="clust1" class="cluster">
<title>cluster_WebernModule</title>
<polygon fill="none" stroke="black" stroke-dasharray="1,5" points="8,-70 8,-195 1452,-195 1452,-70 8,-70"/>
</g>
<g id="clust9" class="cluster">
<title>cluster_WebernModule_imports</title>
<polygon fill="none" stroke="black" points="1163,-78 1163,-130 1444,-130 1444,-78 1163,-78"/>
</g>
<g id="clust2" class="cluster">
<title>cluster_WebernModule_declarations</title>
<polygon fill="none" stroke="black" points="16,-78 16,-130 1155,-130 1155,-78 16,-78"/>
</g>
<!-- WebernBibliographyComponent -->
<g id="node1" class="node">
<title>WebernBibliographyComponent</title>
<polygon fill="#ffffb3" stroke="black" points="1146.52,-122 947.48,-122 947.48,-86 1146.52,-86 1146.52,-122"/>
<text text-anchor="middle" x="1047" y="-99.8" font-family="Times,serif" font-size="14.00">WebernBibliographyComponent</text>
</g>
<!-- WebernModule -->
<g id="node7" class="node">
<title>WebernModule</title>
<polygon fill="#8dd3c7" stroke="black" points="795.85,-187 792.85,-191 771.85,-191 768.85,-187 692.15,-187 692.15,-151 795.85,-151 795.85,-187"/>
<text text-anchor="middle" x="744" y="-164.8" font-family="Times,serif" font-size="14.00">WebernModule</text>
</g>
<!-- WebernBibliographyComponent&#45;&gt;WebernModule -->
<g id="edge1" class="edge">
<title>WebernBibliographyComponent&#45;&gt;WebernModule</title>
<path fill="none" stroke="black" d="M1047,-122.03C1047,-138.4 1047,-160 1047,-160 1047,-160 806.09,-160 806.09,-160"/>
<polygon fill="black" stroke="black" points="806.09,-156.5 796.09,-160 806.09,-163.5 806.09,-156.5"/>
</g>
<!-- WebernChronologyComponent -->
<g id="node2" class="node">
<title>WebernChronologyComponent</title>
<polygon fill="#ffffb3" stroke="black" points="929.03,-122 736.97,-122 736.97,-86 929.03,-86 929.03,-122"/>
<text text-anchor="middle" x="833" y="-99.8" font-family="Times,serif" font-size="14.00">WebernChronologyComponent</text>
</g>
<!-- WebernChronologyComponent&#45;&gt;WebernModule -->
<g id="edge2" class="edge">
<title>WebernChronologyComponent&#45;&gt;WebernModule</title>
<path fill="none" stroke="black" d="M766.33,-122.11C766.33,-122.11 766.33,-140.99 766.33,-140.99"/>
<polygon fill="black" stroke="black" points="762.83,-140.99 766.33,-150.99 769.83,-140.99 762.83,-140.99"/>
</g>
<!-- WebernComponent -->
<g id="node3" class="node">
<title>WebernComponent</title>
<polygon fill="#ffffb3" stroke="black" points="718.64,-122 593.36,-122 593.36,-86 718.64,-86 718.64,-122"/>
<text text-anchor="middle" x="656" y="-99.8" font-family="Times,serif" font-size="14.00">WebernComponent</text>
</g>
<!-- WebernComponent&#45;&gt;WebernModule -->
<g id="edge3" class="edge">
<title>WebernComponent&#45;&gt;WebernModule</title>
<path fill="none" stroke="black" d="M705.45,-122.11C705.45,-122.11 705.45,-140.99 705.45,-140.99"/>
<polygon fill="black" stroke="black" points="701.95,-140.99 705.45,-150.99 708.95,-140.99 701.95,-140.99"/>
</g>
<!-- WebernLettersComponent -->
<g id="node4" class="node">
<title>WebernLettersComponent</title>
<polygon fill="#ffffb3" stroke="black" points="575.01,-122 410.99,-122 410.99,-86 575.01,-86 575.01,-122"/>
<text text-anchor="middle" x="493" y="-99.8" font-family="Times,serif" font-size="14.00">WebernLettersComponent</text>
</g>
<!-- WebernLettersComponent&#45;&gt;WebernModule -->
<g id="edge4" class="edge">
<title>WebernLettersComponent&#45;&gt;WebernModule</title>
<path fill="none" stroke="black" d="M493,-122.03C493,-138.4 493,-160 493,-160 493,-160 681.99,-160 681.99,-160"/>
<polygon fill="black" stroke="black" points="681.99,-163.5 691.99,-160 681.99,-156.5 681.99,-163.5"/>
</g>
<!-- WebernOverviewComponent -->
<g id="node5" class="node">
<title>WebernOverviewComponent</title>
<polygon fill="#ffffb3" stroke="black" points="392.33,-122 211.67,-122 211.67,-86 392.33,-86 392.33,-122"/>
<text text-anchor="middle" x="302" y="-99.8" font-family="Times,serif" font-size="14.00">WebernOverviewComponent</text>
</g>
<!-- WebernOverviewComponent&#45;&gt;WebernModule -->
<g id="edge5" class="edge">
<title>WebernOverviewComponent&#45;&gt;WebernModule</title>
<path fill="none" stroke="black" d="M302,-122.11C302,-141.34 302,-169 302,-169 302,-169 682,-169 682,-169"/>
<polygon fill="black" stroke="black" points="682,-172.5 692,-169 682,-165.5 682,-172.5"/>
</g>
<!-- WebernPersonsComponent -->
<g id="node6" class="node">
<title>WebernPersonsComponent</title>
<polygon fill="#ffffb3" stroke="black" points="193.68,-122 24.32,-122 24.32,-86 193.68,-86 193.68,-122"/>
<text text-anchor="middle" x="109" y="-99.8" font-family="Times,serif" font-size="14.00">WebernPersonsComponent</text>
</g>
<!-- WebernPersonsComponent&#45;&gt;WebernModule -->
<g id="edge6" class="edge">
<title>WebernPersonsComponent&#45;&gt;WebernModule</title>
<path fill="none" stroke="black" d="M109,-122.29C109,-144.21 109,-178 109,-178 109,-178 682.04,-178 682.04,-178"/>
<polygon fill="black" stroke="black" points="682.04,-181.5 692.04,-178 682.04,-174.5 682.04,-181.5"/>
</g>
<!-- SharedModule -->
<g id="node8" class="node">
<title>SharedModule</title>
<polygon fill="#8dd3c7" stroke="black" points="1436.42,-122 1433.42,-126 1412.42,-126 1409.42,-122 1337.58,-122 1337.58,-86 1436.42,-86 1436.42,-122"/>
<text text-anchor="middle" x="1387" y="-99.8" font-family="Times,serif" font-size="14.00">SharedModule</text>
</g>
<!-- SharedModule&#45;&gt;WebernModule -->
<g id="edge7" class="edge">
<title>SharedModule&#45;&gt;WebernModule</title>
<path fill="none" stroke="black" d="M1387,-122.29C1387,-144.21 1387,-178 1387,-178 1387,-178 806.07,-178 806.07,-178"/>
<polygon fill="black" stroke="black" points="806.07,-174.5 796.07,-178 806.07,-181.5 806.07,-174.5"/>
</g>
<!-- WebernRoutingModule -->
<g id="node9" class="node">
<title>WebernRoutingModule</title>
<polygon fill="#8dd3c7" stroke="black" points="1319.47,-122 1316.47,-126 1295.47,-126 1292.47,-122 1170.53,-122 1170.53,-86 1319.47,-86 1319.47,-122"/>
<text text-anchor="middle" x="1245" y="-99.8" font-family="Times,serif" font-size="14.00">WebernRoutingModule</text>
</g>
<!-- WebernRoutingModule&#45;&gt;WebernModule -->
<g id="edge8" class="edge">
<title>WebernRoutingModule&#45;&gt;WebernModule</title>
<path fill="none" stroke="black" d="M1245,-122.11C1245,-141.34 1245,-169 1245,-169 1245,-169 806.2,-169 806.2,-169"/>
<polygon fill="black" stroke="black" points="806.2,-165.5 796.2,-169 806.2,-172.5 806.2,-165.5"/>
</g>
</g>
</svg>
