<?xml version="1.0" encoding="UTF-8" standalone="no"?>
<!DOCTYPE svg PUBLIC "-//W3C//DTD SVG 1.1//EN"
 "http://www.w3.org/Graphics/SVG/1.1/DTD/svg11.dtd">
<!-- Generated by graphviz version 5.0.0 (20220707.1540)
 -->
<!-- Title: dependencies Pages: 1 -->
<svg width="2017pt" height="174pt"
 viewBox="0.00 0.00 2017.00 173.80" xmlns="http://www.w3.org/2000/svg" xmlns:xlink="http://www.w3.org/1999/xlink">
<g id="graph0" class="graph" transform="scale(1 1) rotate(0) translate(4 169.8)">
<title>dependencies</title>
<polygon fill="white" stroke="transparent" points="-4,4 -4,-169.8 2013,-169.8 2013,4 -4,4"/>
<text text-anchor="middle" x="1004.5" y="-8.2" font-family="sans-serif" font-size="14.00">dependencies</text>
<g id="clust1" class="cluster">
<title>cluster_ResearchModule</title>
<polygon fill="none" stroke="black" stroke-dasharray="1,5" points="8,-32.8 8,-157.8 2001,-157.8 2001,-32.8 8,-32.8"/>
</g>
<g id="clust2" class="cluster">
<title>cluster_ResearchModule_declarations</title>
<polygon fill="none" stroke="black" points="312,-40.8 312,-92.8 1993,-92.8 1993,-40.8 312,-40.8"/>
</g>
<g id="clust11" class="cluster">
<title>cluster_ResearchModule_imports</title>
<polygon fill="none" stroke="black" points="16,-40.8 16,-92.8 304,-92.8 304,-40.8 16,-40.8"/>
</g>
<!-- ResearchActivitiesComponent -->
<g id="node1" class="node">
<title>ResearchActivitiesComponent</title>
<polygon fill="#ffffb3" stroke="black" points="1984.57,-84.8 1797.43,-84.8 1797.43,-48.8 1984.57,-48.8 1984.57,-84.8"/>
<text text-anchor="middle" x="1891" y="-62.6" font-family="Times,serif" font-size="14.00">ResearchActivitiesComponent</text>
</g>
<!-- ResearchModule -->
<g id="node9" class="node">
<title>ResearchModule</title>
<polygon fill="#8dd3c7" stroke="black" points="1061.36,-149.8 1058.36,-153.8 1037.36,-153.8 1034.36,-149.8 950.64,-149.8 950.64,-113.8 1061.36,-113.8 1061.36,-149.8"/>
<text text-anchor="middle" x="1006" y="-127.6" font-family="Times,serif" font-size="14.00">ResearchModule</text>
</g>
<!-- ResearchActivitiesComponent&#45;&gt;ResearchModule -->
<g id="edge1" class="edge">
<title>ResearchActivitiesComponent&#45;&gt;ResearchModule</title>
<path fill="none" stroke="black" d="M1891,-84.81C1891,-107.29 1891,-142.8 1891,-142.8 1891,-142.8 1071.36,-142.8 1071.36,-142.8"/>
<polygon fill="black" stroke="black" points="1071.36,-139.3 1061.36,-142.8 1071.36,-146.3 1071.36,-139.3"/>
</g>
<!-- ResearchArchivesComponent -->
<g id="node2" class="node">
<title>ResearchArchivesComponent</title>
<polygon fill="#ffffb3" stroke="black" points="1779.67,-84.8 1596.33,-84.8 1596.33,-48.8 1779.67,-48.8 1779.67,-84.8"/>
<text text-anchor="middle" x="1688" y="-62.6" font-family="Times,serif" font-size="14.00">ResearchArchivesComponent</text>
</g>
<!-- ResearchArchivesComponent&#45;&gt;ResearchModule -->
<g id="edge2" class="edge">
<title>ResearchArchivesComponent&#45;&gt;ResearchModule</title>
<path fill="none" stroke="black" d="M1688,-84.93C1688,-105.37 1688,-135.8 1688,-135.8 1688,-135.8 1071.52,-135.8 1071.52,-135.8"/>
<polygon fill="black" stroke="black" points="1071.52,-132.3 1061.52,-135.8 1071.52,-139.3 1071.52,-132.3"/>
</g>
<!-- ResearchComponent -->
<g id="node3" class="node">
<title>ResearchComponent</title>
<polygon fill="#ffffb3" stroke="black" points="1578.14,-84.8 1445.86,-84.8 1445.86,-48.8 1578.14,-48.8 1578.14,-84.8"/>
<text text-anchor="middle" x="1512" y="-62.6" font-family="Times,serif" font-size="14.00">ResearchComponent</text>
</g>
<!-- ResearchComponent&#45;&gt;ResearchModule -->
<g id="edge3" class="edge">
<title>ResearchComponent&#45;&gt;ResearchModule</title>
<path fill="none" stroke="black" d="M1512,-85.07C1512,-103.36 1512,-128.8 1512,-128.8 1512,-128.8 1071.6,-128.8 1071.6,-128.8"/>
<polygon fill="black" stroke="black" points="1071.6,-125.3 1061.6,-128.8 1071.6,-132.3 1071.6,-125.3"/>
</g>
<!-- ResearchConferencesComponent -->
<g id="node4" class="node">
<title>ResearchConferencesComponent</title>
<polygon fill="#ffffb3" stroke="black" points="1427.1,-84.8 1224.9,-84.8 1224.9,-48.8 1427.1,-48.8 1427.1,-84.8"/>
<text text-anchor="middle" x="1326" y="-62.6" font-family="Times,serif" font-size="14.00">ResearchConferencesComponent</text>
</g>
<!-- ResearchConferencesComponent&#45;&gt;ResearchModule -->
<g id="edge4" class="edge">
<title>ResearchConferencesComponent&#45;&gt;ResearchModule</title>
<path fill="none" stroke="black" d="M1326,-84.81C1326,-100.85 1326,-121.8 1326,-121.8 1326,-121.8 1071.37,-121.8 1071.37,-121.8"/>
<polygon fill="black" stroke="black" points="1071.37,-118.3 1061.37,-121.8 1071.37,-125.3 1071.37,-118.3"/>
</g>
<!-- ResearchOverviewComponent -->
<g id="node5" class="node">
<title>ResearchOverviewComponent</title>
<polygon fill="#ffffb3" stroke="black" points="1206.84,-84.8 1019.16,-84.8 1019.16,-48.8 1206.84,-48.8 1206.84,-84.8"/>
<text text-anchor="middle" x="1113" y="-62.6" font-family="Times,serif" font-size="14.00">ResearchOverviewComponent</text>
</g>
<!-- ResearchOverviewComponent&#45;&gt;ResearchModule -->
<g id="edge5" class="edge">
<title>ResearchOverviewComponent&#45;&gt;ResearchModule</title>
<path fill="none" stroke="black" d="M1040.26,-84.91C1040.26,-84.91 1040.26,-103.79 1040.26,-103.79"/>
<polygon fill="black" stroke="black" points="1036.76,-103.79 1040.26,-113.79 1043.76,-103.79 1036.76,-103.79"/>
</g>
<!-- ResearchPublicationsComponent -->
<g id="node6" class="node">
<title>ResearchPublicationsComponent</title>
<polygon fill="#ffffb3" stroke="black" points="1000.86,-84.8 799.14,-84.8 799.14,-48.8 1000.86,-48.8 1000.86,-84.8"/>
<text text-anchor="middle" x="900" y="-62.6" font-family="Times,serif" font-size="14.00">ResearchPublicationsComponent</text>
</g>
<!-- ResearchPublicationsComponent&#45;&gt;ResearchModule -->
<g id="edge6" class="edge">
<title>ResearchPublicationsComponent&#45;&gt;ResearchModule</title>
<path fill="none" stroke="black" d="M975.75,-84.91C975.75,-84.91 975.75,-103.79 975.75,-103.79"/>
<polygon fill="black" stroke="black" points="972.25,-103.79 975.75,-113.79 979.25,-103.79 972.25,-103.79"/>
</g>
<!-- ResearchWebernLecturesComponent -->
<g id="node7" class="node">
<title>ResearchWebernLecturesComponent</title>
<polygon fill="#ffffb3" stroke="black" points="781.63,-84.8 556.37,-84.8 556.37,-48.8 781.63,-48.8 781.63,-84.8"/>
<text text-anchor="middle" x="669" y="-62.6" font-family="Times,serif" font-size="14.00">ResearchWebernLecturesComponent</text>
</g>
<!-- ResearchWebernLecturesComponent&#45;&gt;ResearchModule -->
<g id="edge7" class="edge">
<title>ResearchWebernLecturesComponent&#45;&gt;ResearchModule</title>
<path fill="none" stroke="black" d="M669,-84.81C669,-100.85 669,-121.8 669,-121.8 669,-121.8 940.35,-121.8 940.35,-121.8"/>
<polygon fill="black" stroke="black" points="940.35,-125.3 950.35,-121.8 940.35,-118.3 940.35,-125.3"/>
</g>
<!-- ResearchWebernStudiesComponent -->
<g id="node8" class="node">
<title>ResearchWebernStudiesComponent</title>
<polygon fill="#ffffb3" stroke="black" points="538.17,-84.8 319.83,-84.8 319.83,-48.8 538.17,-48.8 538.17,-84.8"/>
<text text-anchor="middle" x="429" y="-62.6" font-family="Times,serif" font-size="14.00">ResearchWebernStudiesComponent</text>
</g>
<!-- ResearchWebernStudiesComponent&#45;&gt;ResearchModule -->
<g id="edge8" class="edge">
<title>ResearchWebernStudiesComponent&#45;&gt;ResearchModule</title>
<path fill="none" stroke="black" d="M429,-85.07C429,-103.36 429,-128.8 429,-128.8 429,-128.8 940.41,-128.8 940.41,-128.8"/>
<polygon fill="black" stroke="black" points="940.41,-132.3 950.41,-128.8 940.41,-125.3 940.41,-132.3"/>
</g>
<!-- ResearchRoutingModule -->
<g id="node10" class="node">
<title>ResearchRoutingModule</title>
<polygon fill="#8dd3c7" stroke="black" points="295.97,-84.8 292.97,-88.8 271.97,-88.8 268.97,-84.8 140.03,-84.8 140.03,-48.8 295.97,-48.8 295.97,-84.8"/>
<text text-anchor="middle" x="218" y="-62.6" font-family="Times,serif" font-size="14.00">ResearchRoutingModule</text>
</g>
<!-- ResearchRoutingModule&#45;&gt;ResearchModule -->
<g id="edge9" class="edge">
<title>ResearchRoutingModule&#45;&gt;ResearchModule</title>
<path fill="none" stroke="black" d="M218,-84.93C218,-105.37 218,-135.8 218,-135.8 218,-135.8 940.59,-135.8 940.59,-135.8"/>
<polygon fill="black" stroke="black" points="940.59,-139.3 950.59,-135.8 940.59,-132.3 940.59,-139.3"/>
</g>
<!-- SharedModule -->
<g id="node11" class="node">
<title>SharedModule</title>
<polygon fill="#8dd3c7" stroke="black" points="122.43,-84.8 119.43,-88.8 98.43,-88.8 95.43,-84.8 23.57,-84.8 23.57,-48.8 122.43,-48.8 122.43,-84.8"/>
<text text-anchor="middle" x="73" y="-62.6" font-family="Times,serif" font-size="14.00">SharedModule</text>
</g>
<!-- SharedModule&#45;&gt;ResearchModule -->
<g id="edge10" class="edge">
<title>SharedModule&#45;&gt;ResearchModule</title>
<path fill="none" stroke="black" d="M73,-84.81C73,-107.29 73,-142.8 73,-142.8 73,-142.8 940.43,-142.8 940.43,-142.8"/>
<polygon fill="black" stroke="black" points="940.43,-146.3 950.43,-142.8 940.43,-139.3 940.43,-146.3"/>
</g>
</g>
</svg>
