<?xml version="1.0" encoding="UTF-8" standalone="no"?>
<!DOCTYPE svg PUBLIC "-//W3C//DTD SVG 1.1//EN"
 "http://www.w3.org/Graphics/SVG/1.1/DTD/svg11.dtd">
<!-- Generated by graphviz version 2.47.0 (20210316.0004)
 -->
<!-- Title: dependencies Pages: 1 -->
<svg width="2017pt" height="211pt"
 viewBox="0.00 0.00 2017.00 211.00" xmlns="http://www.w3.org/2000/svg" xmlns:xlink="http://www.w3.org/1999/xlink">
<g id="graph0" class="graph" transform="scale(1 1) rotate(0) translate(4 207)">
<title>dependencies</title>
<polygon fill="white" stroke="transparent" points="-4,4 -4,-207 2013,-207 2013,4 -4,4"/>
<text text-anchor="start" x="983.51" y="-42.4" font-family="sans-serif" font-weight="bold" font-size="14.00">Legend</text>
<polygon fill="#ffffb3" stroke="transparent" points="770.5,-10 770.5,-30 790.5,-30 790.5,-10 770.5,-10"/>
<text text-anchor="start" x="794.13" y="-15.4" font-family="sans-serif" font-size="14.00"> &#160;Declarations</text>
<polygon fill="#8dd3c7" stroke="transparent" points="883.5,-10 883.5,-30 903.5,-30 903.5,-10 883.5,-10"/>
<text text-anchor="start" x="907.23" y="-15.4" font-family="sans-serif" font-size="14.00"> &#160;Module</text>
<polygon fill="#80b1d3" stroke="transparent" points="969.5,-10 969.5,-30 989.5,-30 989.5,-10 969.5,-10"/>
<text text-anchor="start" x="993.28" y="-15.4" font-family="sans-serif" font-size="14.00"> &#160;Bootstrap</text>
<polygon fill="#fdb462" stroke="transparent" points="1066.5,-10 1066.5,-30 1086.5,-30 1086.5,-10 1066.5,-10"/>
<text text-anchor="start" x="1090.17" y="-15.4" font-family="sans-serif" font-size="14.00"> &#160;Providers</text>
<polygon fill="#fb8072" stroke="transparent" points="1162.5,-10 1162.5,-30 1182.5,-30 1182.5,-10 1162.5,-10"/>
<text text-anchor="start" x="1186.23" y="-15.4" font-family="sans-serif" font-size="14.00"> &#160;Exports</text>
<g id="clust1" class="cluster">
<title>cluster_ResearchModule</title>
<polygon fill="none" stroke="black" stroke-dasharray="1,5" points="8,-70 8,-195 2001,-195 2001,-70 8,-70"/>
</g>
<g id="clust11" class="cluster">
<title>cluster_ResearchModule_imports</title>
<polygon fill="none" stroke="black" points="1705,-78 1705,-130 1993,-130 1993,-78 1705,-78"/>
</g>
<g id="clust2" class="cluster">
<title>cluster_ResearchModule_declarations</title>
<polygon fill="none" stroke="black" points="16,-78 16,-130 1697,-130 1697,-78 16,-78"/>
</g>
<!-- ResearchActivitiesComponent -->
<g id="node1" class="node">
<title>ResearchActivitiesComponent</title>
<polygon fill="#ffffb3" stroke="black" points="1688.57,-122 1501.43,-122 1501.43,-86 1688.57,-86 1688.57,-122"/>
<text text-anchor="middle" x="1595" y="-99.8" font-family="Times,serif" font-size="14.00">ResearchActivitiesComponent</text>
</g>
<!-- ResearchModule -->
<g id="node9" class="node">
<title>ResearchModule</title>
<polygon fill="#8dd3c7" stroke="black" points="1178.35,-187 1175.35,-191 1154.35,-191 1151.35,-187 1067.65,-187 1067.65,-151 1178.35,-151 1178.35,-187"/>
<text text-anchor="middle" x="1123" y="-164.8" font-family="Times,serif" font-size="14.00">ResearchModule</text>
</g>
<!-- ResearchActivitiesComponent&#45;&gt;ResearchModule -->
<g id="edge1" class="edge">
<title>ResearchActivitiesComponent&#45;&gt;ResearchModule</title>
<path fill="none" stroke="black" d="M1595,-122.27C1595,-140.56 1595,-166 1595,-166 1595,-166 1188.53,-166 1188.53,-166"/>
<polygon fill="black" stroke="black" points="1188.53,-162.5 1178.53,-166 1188.53,-169.5 1188.53,-162.5"/>
</g>
<!-- ResearchArchivesComponent -->
<g id="node2" class="node">
<title>ResearchArchivesComponent</title>
<polygon fill="#ffffb3" stroke="black" points="1483.66,-122 1300.34,-122 1300.34,-86 1483.66,-86 1483.66,-122"/>
<text text-anchor="middle" x="1392" y="-99.8" font-family="Times,serif" font-size="14.00">ResearchArchivesComponent</text>
</g>
<!-- ResearchArchivesComponent&#45;&gt;ResearchModule -->
<g id="edge2" class="edge">
<title>ResearchArchivesComponent&#45;&gt;ResearchModule</title>
<path fill="none" stroke="black" d="M1392,-122.01C1392,-138.05 1392,-159 1392,-159 1392,-159 1188.41,-159 1188.41,-159"/>
<polygon fill="black" stroke="black" points="1188.41,-155.5 1178.41,-159 1188.41,-162.5 1188.41,-155.5"/>
</g>
<!-- ResearchComponent -->
<g id="node3" class="node">
<title>ResearchComponent</title>
<polygon fill="#ffffb3" stroke="black" points="1282.13,-122 1149.87,-122 1149.87,-86 1282.13,-86 1282.13,-122"/>
<text text-anchor="middle" x="1216" y="-99.8" font-family="Times,serif" font-size="14.00">ResearchComponent</text>
</g>
<!-- ResearchComponent&#45;&gt;ResearchModule -->
<g id="edge3" class="edge">
<title>ResearchComponent&#45;&gt;ResearchModule</title>
<path fill="none" stroke="black" d="M1164.05,-122.11C1164.05,-122.11 1164.05,-140.99 1164.05,-140.99"/>
<polygon fill="black" stroke="black" points="1160.55,-140.99 1164.05,-150.99 1167.55,-140.99 1160.55,-140.99"/>
</g>
<!-- ResearchConferencesComponent -->
<g id="node4" class="node">
<title>ResearchConferencesComponent</title>
<polygon fill="#ffffb3" stroke="black" points="1131.09,-122 928.91,-122 928.91,-86 1131.09,-86 1131.09,-122"/>
<text text-anchor="middle" x="1030" y="-99.8" font-family="Times,serif" font-size="14.00">ResearchConferencesComponent</text>
</g>
<!-- ResearchConferencesComponent&#45;&gt;ResearchModule -->
<g id="edge4" class="edge">
<title>ResearchConferencesComponent&#45;&gt;ResearchModule</title>
<path fill="none" stroke="black" d="M1099.44,-122.11C1099.44,-122.11 1099.44,-140.99 1099.44,-140.99"/>
<polygon fill="black" stroke="black" points="1095.94,-140.99 1099.44,-150.99 1102.94,-140.99 1095.94,-140.99"/>
</g>
<!-- ResearchOverviewComponent -->
<g id="node5" class="node">
<title>ResearchOverviewComponent</title>
<polygon fill="#ffffb3" stroke="black" points="910.83,-122 723.17,-122 723.17,-86 910.83,-86 910.83,-122"/>
<text text-anchor="middle" x="817" y="-99.8" font-family="Times,serif" font-size="14.00">ResearchOverviewComponent</text>
</g>
<!-- ResearchOverviewComponent&#45;&gt;ResearchModule -->
<g id="edge5" class="edge">
<title>ResearchOverviewComponent&#45;&gt;ResearchModule</title>
<path fill="none" stroke="black" d="M817,-122.01C817,-138.05 817,-159 817,-159 817,-159 1057.59,-159 1057.59,-159"/>
<polygon fill="black" stroke="black" points="1057.59,-162.5 1067.59,-159 1057.59,-155.5 1057.59,-162.5"/>
</g>
<!-- ResearchPublicationsComponent -->
<g id="node6" class="node">
<title>ResearchPublicationsComponent</title>
<polygon fill="#ffffb3" stroke="black" points="704.85,-122 503.15,-122 503.15,-86 704.85,-86 704.85,-122"/>
<text text-anchor="middle" x="604" y="-99.8" font-family="Times,serif" font-size="14.00">ResearchPublicationsComponent</text>
</g>
<!-- ResearchPublicationsComponent&#45;&gt;ResearchModule -->
<g id="edge6" class="edge">
<title>ResearchPublicationsComponent&#45;&gt;ResearchModule</title>
<path fill="none" stroke="black" d="M604,-122.27C604,-140.56 604,-166 604,-166 604,-166 1057.46,-166 1057.46,-166"/>
<polygon fill="black" stroke="black" points="1057.46,-169.5 1067.46,-166 1057.46,-162.5 1057.46,-169.5"/>
</g>
<!-- ResearchWebernLecturesComponent -->
<g id="node7" class="node">
<title>ResearchWebernLecturesComponent</title>
<polygon fill="#ffffb3" stroke="black" points="485.63,-122 260.37,-122 260.37,-86 485.63,-86 485.63,-122"/>
<text text-anchor="middle" x="373" y="-99.8" font-family="Times,serif" font-size="14.00">ResearchWebernLecturesComponent</text>
</g>
<!-- ResearchWebernLecturesComponent&#45;&gt;ResearchModule -->
<g id="edge7" class="edge">
<title>ResearchWebernLecturesComponent&#45;&gt;ResearchModule</title>
<path fill="none" stroke="black" d="M373,-122.13C373,-142.57 373,-173 373,-173 373,-173 1057.55,-173 1057.55,-173"/>
<polygon fill="black" stroke="black" points="1057.55,-176.5 1067.55,-173 1057.55,-169.5 1057.55,-176.5"/>
</g>
<!-- ResearchWebernStudiesComponent -->
<g id="node8" class="node">
<title>ResearchWebernStudiesComponent</title>
<polygon fill="#ffffb3" stroke="black" points="242.16,-122 23.84,-122 23.84,-86 242.16,-86 242.16,-122"/>
<text text-anchor="middle" x="133" y="-99.8" font-family="Times,serif" font-size="14.00">ResearchWebernStudiesComponent</text>
</g>
<!-- ResearchWebernStudiesComponent&#45;&gt;ResearchModule -->
<g id="edge8" class="edge">
<title>ResearchWebernStudiesComponent&#45;&gt;ResearchModule</title>
<path fill="none" stroke="black" d="M133,-122.01C133,-144.49 133,-180 133,-180 133,-180 1057.29,-180 1057.29,-180"/>
<polygon fill="black" stroke="black" points="1057.29,-183.5 1067.29,-180 1057.29,-176.5 1057.29,-183.5"/>
</g>
<!-- ResearchRoutingModule -->
<g id="node10" class="node">
<title>ResearchRoutingModule</title>
<polygon fill="#8dd3c7" stroke="black" points="1984.97,-122 1981.97,-126 1960.97,-126 1957.97,-122 1829.03,-122 1829.03,-86 1984.97,-86 1984.97,-122"/>
<text text-anchor="middle" x="1907" y="-99.8" font-family="Times,serif" font-size="14.00">ResearchRoutingModule</text>
</g>
<!-- ResearchRoutingModule&#45;&gt;ResearchModule -->
<g id="edge9" class="edge">
<title>ResearchRoutingModule&#45;&gt;ResearchModule</title>
<path fill="none" stroke="black" d="M1907,-122.01C1907,-144.49 1907,-180 1907,-180 1907,-180 1188.44,-180 1188.44,-180"/>
<polygon fill="black" stroke="black" points="1188.44,-176.5 1178.44,-180 1188.44,-183.5 1188.44,-176.5"/>
</g>
<!-- SharedModule -->
<g id="node11" class="node">
<title>SharedModule</title>
<polygon fill="#8dd3c7" stroke="black" points="1811.42,-122 1808.42,-126 1787.42,-126 1784.42,-122 1712.58,-122 1712.58,-86 1811.42,-86 1811.42,-122"/>
<text text-anchor="middle" x="1762" y="-99.8" font-family="Times,serif" font-size="14.00">SharedModule</text>
</g>
<!-- SharedModule&#45;&gt;ResearchModule -->
<g id="edge10" class="edge">
<title>SharedModule&#45;&gt;ResearchModule</title>
<path fill="none" stroke="black" d="M1762,-122.13C1762,-142.57 1762,-173 1762,-173 1762,-173 1188.59,-173 1188.59,-173"/>
<polygon fill="black" stroke="black" points="1188.59,-169.5 1178.59,-173 1188.59,-176.5 1188.59,-169.5"/>
</g>
</g>
</svg>
