<?xml version="1.0" encoding="UTF-8" standalone="no"?>
<!DOCTYPE svg PUBLIC "-//W3C//DTD SVG 1.1//EN"
 "http://www.w3.org/Graphics/SVG/1.1/DTD/svg11.dtd">
<!-- Generated by graphviz version 5.0.0 (20220707.1540)
 -->
<!-- Title: dependencies Pages: 1 -->
<svg width="354pt" height="247pt"
 viewBox="0.00 0.00 354.00 246.80" xmlns="http://www.w3.org/2000/svg" xmlns:xlink="http://www.w3.org/1999/xlink">
<g id="graph0" class="graph" transform="scale(1 1) rotate(0) translate(4 242.8)">
<title>dependencies</title>
<polygon fill="white" stroke="transparent" points="-4,4 -4,-242.8 350,-242.8 350,4 -4,4"/>
<text text-anchor="middle" x="173" y="-8.2" font-family="sans-serif" font-size="14.00">dependencies</text>
<g id="clust1" class="cluster">
<title>cluster_SharedModule</title>
<polygon fill="none" stroke="black" stroke-dasharray="1,5" points="8,-32.8 8,-230.8 338,-230.8 338,-32.8 8,-32.8"/>
</g>
<g id="clust2" class="cluster">
<title>cluster_SharedModule_declarations</title>
<polygon fill="none" stroke="black" points="172,-40.8 172,-92.8 330,-92.8 330,-40.8 172,-40.8"/>
</g>
<g id="clust4" class="cluster">
<title>cluster_SharedModule_imports</title>
<polygon fill="none" stroke="black" points="16,-40.8 16,-92.8 164,-92.8 164,-40.8 16,-40.8"/>
</g>
<g id="clust5" class="cluster">
<title>cluster_SharedModule_exports</title>
<polygon fill="none" stroke="black" points="16,-170.8 16,-222.8 330,-222.8 330,-170.8 16,-170.8"/>
</g>
<!-- ExternalLinkDirective -->
<g id="node1" class="node">
<title>ExternalLinkDirective</title>
<polygon fill="#ffffb3" stroke="black" points="321.95,-84.8 180.05,-84.8 180.05,-48.8 321.95,-48.8 321.95,-84.8"/>
<text text-anchor="middle" x="251" y="-62.6" font-family="Times,serif" font-size="14.00">ExternalLinkDirective</text>
</g>
<!-- SharedModule -->
<g id="node2" class="node">
<title>SharedModule</title>
<polygon fill="#8dd3c7" stroke="black" points="223.43,-149.8 220.43,-153.8 199.43,-153.8 196.43,-149.8 124.57,-149.8 124.57,-113.8 223.43,-113.8 223.43,-149.8"/>
<text text-anchor="middle" x="174" y="-127.6" font-family="Times,serif" font-size="14.00">SharedModule</text>
</g>
<!-- ExternalLinkDirective&#45;&gt;SharedModule -->
<g id="edge1" class="edge">
<title>ExternalLinkDirective&#45;&gt;SharedModule</title>
<path fill="none" stroke="black" d="M201.62,-84.91C201.62,-84.91 201.62,-103.79 201.62,-103.79"/>
<polygon fill="black" stroke="black" points="198.12,-103.79 201.62,-113.79 205.12,-103.79 198.12,-103.79"/>
</g>
<!-- AppMaterialModule  -->
<g id="node4" class="node">
<title>AppMaterialModule </title>
<polygon fill="#fb8072" stroke="black" points="322.08,-214.8 187.92,-214.8 187.92,-178.8 322.08,-178.8 322.08,-214.8"/>
<text text-anchor="middle" x="255" y="-192.6" font-family="Times,serif" font-size="14.00">AppMaterialModule </text>
</g>
<!-- SharedModule&#45;&gt;AppMaterialModule  -->
<g id="edge3" class="edge">
<title>SharedModule&#45;&gt;AppMaterialModule </title>
<path fill="none" stroke="black" stroke-dasharray="5,2" d="M205.46,-149.91C205.46,-149.91 205.46,-168.79 205.46,-168.79"/>
<polygon fill="black" stroke="black" points="201.96,-168.79 205.46,-178.79 208.96,-168.79 201.96,-168.79"/>
</g>
<!-- ExternalLinkDirective  -->
<g id="node5" class="node">
<title>ExternalLinkDirective </title>
<polygon fill="#fb8072" stroke="black" points="169.95,-214.8 24.05,-214.8 24.05,-178.8 169.95,-178.8 169.95,-214.8"/>
<text text-anchor="middle" x="97" y="-192.6" font-family="Times,serif" font-size="14.00">ExternalLinkDirective </text>
</g>
<!-- SharedModule&#45;&gt;ExternalLinkDirective  -->
<g id="edge4" class="edge">
<title>SharedModule&#45;&gt;ExternalLinkDirective </title>
<path fill="none" stroke="black" stroke-dasharray="5,2" d="M147.25,-149.91C147.25,-149.91 147.25,-168.79 147.25,-168.79"/>
<polygon fill="black" stroke="black" points="143.75,-168.79 147.25,-178.79 150.75,-168.79 143.75,-168.79"/>
</g>
<!-- AppMaterialModule -->
<g id="node3" class="node">
<title>AppMaterialModule</title>
<polygon fill="#8dd3c7" stroke="black" points="155.58,-84.8 152.58,-88.8 131.58,-88.8 128.58,-84.8 24.42,-84.8 24.42,-48.8 155.58,-48.8 155.58,-84.8"/>
<text text-anchor="middle" x="90" y="-62.6" font-family="Times,serif" font-size="14.00">AppMaterialModule</text>
</g>
<!-- AppMaterialModule&#45;&gt;SharedModule -->
<g id="edge2" class="edge">
<title>AppMaterialModule&#45;&gt;SharedModule</title>
<path fill="none" stroke="black" d="M140.16,-84.91C140.16,-84.91 140.16,-103.79 140.16,-103.79"/>
<polygon fill="black" stroke="black" points="136.66,-103.79 140.16,-113.79 143.66,-103.79 136.66,-103.79"/>
</g>
</g>
</svg>
