<?xml version="1.0" encoding="UTF-8" standalone="no"?>
<!DOCTYPE svg PUBLIC "-//W3C//DTD SVG 1.1//EN"
 "http://www.w3.org/Graphics/SVG/1.1/DTD/svg11.dtd">
<!-- Generated by graphviz version 2.47.0 (20210316.0004)
 -->
<!-- Title: dependencies Pages: 1 -->
<svg width="504pt" height="284pt"
 viewBox="0.00 0.00 504.00 284.00" xmlns="http://www.w3.org/2000/svg" xmlns:xlink="http://www.w3.org/1999/xlink">
<g id="graph0" class="graph" transform="scale(1 1) rotate(0) translate(4 280)">
<title>dependencies</title>
<polygon fill="white" stroke="transparent" points="-4,4 -4,-280 500,-280 500,4 -4,4"/>
<text text-anchor="start" x="227.01" y="-42.4" font-family="sans-serif" font-weight="bold" font-size="14.00">Legend</text>
<polygon fill="#ffffb3" stroke="transparent" points="14,-10 14,-30 34,-30 34,-10 14,-10"/>
<text text-anchor="start" x="37.63" y="-15.4" font-family="sans-serif" font-size="14.00"> &#160;Declarations</text>
<polygon fill="#8dd3c7" stroke="transparent" points="127,-10 127,-30 147,-30 147,-10 127,-10"/>
<text text-anchor="start" x="150.73" y="-15.4" font-family="sans-serif" font-size="14.00"> &#160;Module</text>
<polygon fill="#80b1d3" stroke="transparent" points="213,-10 213,-30 233,-30 233,-10 213,-10"/>
<text text-anchor="start" x="236.78" y="-15.4" font-family="sans-serif" font-size="14.00"> &#160;Bootstrap</text>
<polygon fill="#fdb462" stroke="transparent" points="310,-10 310,-30 330,-30 330,-10 310,-10"/>
<text text-anchor="start" x="333.67" y="-15.4" font-family="sans-serif" font-size="14.00"> &#160;Providers</text>
<polygon fill="#fb8072" stroke="transparent" points="406,-10 406,-30 426,-30 426,-10 406,-10"/>
<text text-anchor="start" x="429.73" y="-15.4" font-family="sans-serif" font-size="14.00"> &#160;Exports</text>
<g id="clust1" class="cluster">
<title>cluster_SharedModule</title>
<polygon fill="none" stroke="black" stroke-dasharray="1,5" points="83,-70 83,-268 413,-268 413,-70 83,-70"/>
</g>
<g id="clust2" class="cluster">
<title>cluster_SharedModule_declarations</title>
<polygon fill="none" stroke="black" points="247,-78 247,-130 405,-130 405,-78 247,-78"/>
</g>
<g id="clust4" class="cluster">
<title>cluster_SharedModule_imports</title>
<polygon fill="none" stroke="black" points="91,-78 91,-130 239,-130 239,-78 91,-78"/>
</g>
<g id="clust5" class="cluster">
<title>cluster_SharedModule_exports</title>
<polygon fill="none" stroke="black" points="91,-208 91,-260 405,-260 405,-208 91,-208"/>
</g>
<!-- ExternalLinkDirective -->
<g id="node1" class="node">
<title>ExternalLinkDirective</title>
<polygon fill="#ffffb3" stroke="black" points="396.95,-122 255.05,-122 255.05,-86 396.95,-86 396.95,-122"/>
<text text-anchor="middle" x="326" y="-99.8" font-family="Times,serif" font-size="14.00">ExternalLinkDirective</text>
</g>
<!-- SharedModule -->
<g id="node2" class="node">
<title>SharedModule</title>
<polygon fill="#8dd3c7" stroke="black" points="298.42,-187 295.42,-191 274.42,-191 271.42,-187 199.58,-187 199.58,-151 298.42,-151 298.42,-187"/>
<text text-anchor="middle" x="249" y="-164.8" font-family="Times,serif" font-size="14.00">SharedModule</text>
</g>
<!-- ExternalLinkDirective&#45;&gt;SharedModule -->
<g id="edge1" class="edge">
<title>ExternalLinkDirective&#45;&gt;SharedModule</title>
<path fill="none" stroke="black" d="M276.62,-122.11C276.62,-122.11 276.62,-140.99 276.62,-140.99"/>
<polygon fill="black" stroke="black" points="273.12,-140.99 276.62,-150.99 280.12,-140.99 273.12,-140.99"/>
</g>
<!-- AppMaterialModule  -->
<g id="node4" class="node">
<title>AppMaterialModule </title>
<polygon fill="#fb8072" stroke="black" points="397.08,-252 262.92,-252 262.92,-216 397.08,-216 397.08,-252"/>
<text text-anchor="middle" x="330" y="-229.8" font-family="Times,serif" font-size="14.00">AppMaterialModule </text>
</g>
<!-- SharedModule&#45;&gt;AppMaterialModule  -->
<g id="edge3" class="edge">
<title>SharedModule&#45;&gt;AppMaterialModule </title>
<path fill="none" stroke="black" stroke-dasharray="5,2" d="M280.46,-187.11C280.46,-187.11 280.46,-205.99 280.46,-205.99"/>
<polygon fill="black" stroke="black" points="276.96,-205.99 280.46,-215.99 283.96,-205.99 276.96,-205.99"/>
</g>
<!-- ExternalLinkDirective  -->
<g id="node5" class="node">
<title>ExternalLinkDirective </title>
<polygon fill="#fb8072" stroke="black" points="244.95,-252 99.05,-252 99.05,-216 244.95,-216 244.95,-252"/>
<text text-anchor="middle" x="172" y="-229.8" font-family="Times,serif" font-size="14.00">ExternalLinkDirective </text>
</g>
<!-- SharedModule&#45;&gt;ExternalLinkDirective  -->
<g id="edge4" class="edge">
<title>SharedModule&#45;&gt;ExternalLinkDirective </title>
<path fill="none" stroke="black" stroke-dasharray="5,2" d="M222.26,-187.11C222.26,-187.11 222.26,-205.99 222.26,-205.99"/>
<polygon fill="black" stroke="black" points="218.76,-205.99 222.26,-215.99 225.76,-205.99 218.76,-205.99"/>
</g>
<!-- AppMaterialModule -->
<g id="node3" class="node">
<title>AppMaterialModule</title>
<polygon fill="#8dd3c7" stroke="black" points="230.58,-122 227.58,-126 206.58,-126 203.58,-122 99.42,-122 99.42,-86 230.58,-86 230.58,-122"/>
<text text-anchor="middle" x="165" y="-99.8" font-family="Times,serif" font-size="14.00">AppMaterialModule</text>
</g>
<!-- AppMaterialModule&#45;&gt;SharedModule -->
<g id="edge2" class="edge">
<title>AppMaterialModule&#45;&gt;SharedModule</title>
<path fill="none" stroke="black" d="M215.16,-122.11C215.16,-122.11 215.16,-140.99 215.16,-140.99"/>
<polygon fill="black" stroke="black" points="211.66,-140.99 215.16,-150.99 218.66,-140.99 211.66,-140.99"/>
</g>
</g>
</svg>
