<?xml version="1.0" encoding="UTF-8" standalone="no"?>
<!DOCTYPE svg PUBLIC "-//W3C//DTD SVG 1.1//EN"
 "http://www.w3.org/Graphics/SVG/1.1/DTD/svg11.dtd">
<!-- Generated by graphviz version 2.47.0 (20210316.0004)
 -->
<!-- Title: dependencies Pages: 1 -->
<svg width="1029pt" height="211pt"
 viewBox="0.00 0.00 1029.00 211.00" xmlns="http://www.w3.org/2000/svg" xmlns:xlink="http://www.w3.org/1999/xlink">
<g id="graph0" class="graph" transform="scale(1 1) rotate(0) translate(4 207)">
<title>dependencies</title>
<polygon fill="white" stroke="transparent" points="-4,4 -4,-207 1025,-207 1025,4 -4,4"/>
<text text-anchor="start" x="489.51" y="-42.4" font-family="Times-12" font-weight="bold" font-size="14.00">Legend</text>
<polygon fill="#ffffb3" stroke="transparent" points="276.5,-10 276.5,-30 296.5,-30 296.5,-10 276.5,-10"/>
<text text-anchor="start" x="300.13" y="-15.4" font-family="Times-12" font-size="14.00"> &#160;Declarations</text>
<polygon fill="#8dd3c7" stroke="transparent" points="389.5,-10 389.5,-30 409.5,-30 409.5,-10 389.5,-10"/>
<text text-anchor="start" x="413.23" y="-15.4" font-family="Times-12" font-size="14.00"> &#160;Module</text>
<polygon fill="#80b1d3" stroke="transparent" points="475.5,-10 475.5,-30 495.5,-30 495.5,-10 475.5,-10"/>
<text text-anchor="start" x="499.28" y="-15.4" font-family="Times-12" font-size="14.00"> &#160;Bootstrap</text>
<polygon fill="#fdb462" stroke="transparent" points="572.5,-10 572.5,-30 592.5,-30 592.5,-10 572.5,-10"/>
<text text-anchor="start" x="596.17" y="-15.4" font-family="Times-12" font-size="14.00"> &#160;Providers</text>
<polygon fill="#fb8072" stroke="transparent" points="668.5,-10 668.5,-30 688.5,-30 688.5,-10 668.5,-10"/>
<text text-anchor="start" x="692.23" y="-15.4" font-family="Times-12" font-size="14.00"> &#160;Exports</text>
<g id="clust1" class="cluster">
<title>cluster_ContactModule</title>
<polygon fill="none" stroke="black" stroke-dasharray="1,5" points="8,-70 8,-195 1013,-195 1013,-70 8,-70"/>
</g>
<g id="clust2" class="cluster">
<title>cluster_ContactModule_declarations</title>
<polygon fill="none" stroke="black" points="304,-78 304,-130 1005,-130 1005,-78 304,-78"/>
</g>
<g id="clust7" class="cluster">
<title>cluster_ContactModule_imports</title>
<polygon fill="none" stroke="black" points="16,-78 16,-130 296,-130 296,-78 16,-78"/>
</g>
<!-- ContactAddressComponent -->
<g id="node1" class="node">
<title>ContactAddressComponent</title>
<polygon fill="#ffffb3" stroke="black" points="997.25,-122 826.75,-122 826.75,-86 997.25,-86 997.25,-122"/>
<text text-anchor="middle" x="912" y="-99.8" font-family="Times,serif" font-size="14.00">ContactAddressComponent</text>
</g>
<!-- ContactModule -->
<g id="node5" class="node">
<title>ContactModule</title>
<polygon fill="#8dd3c7" stroke="black" points="528.6,-187 525.6,-191 504.6,-191 501.6,-187 425.4,-187 425.4,-151 528.6,-151 528.6,-187"/>
<text text-anchor="middle" x="477" y="-164.8" font-family="Times,serif" font-size="14.00">ContactModule</text>
</g>
<!-- ContactAddressComponent&#45;&gt;ContactModule -->
<g id="edge1" class="edge">
<title>ContactAddressComponent&#45;&gt;ContactModule</title>
<path fill="none" stroke="black" d="M912,-122.28C912,-143.32 912,-175 912,-175 912,-175 538.61,-175 538.61,-175"/>
<polygon fill="black" stroke="black" points="538.61,-171.5 528.61,-175 538.61,-178.5 538.61,-171.5"/>
</g>
<!-- ContactCitationComponent -->
<g id="node2" class="node">
<title>ContactCitationComponent</title>
<polygon fill="#ffffb3" stroke="black" points="808.99,-122 639.01,-122 639.01,-86 808.99,-86 808.99,-122"/>
<text text-anchor="middle" x="724" y="-99.8" font-family="Times,serif" font-size="14.00">ContactCitationComponent</text>
</g>
<!-- ContactCitationComponent&#45;&gt;ContactModule -->
<g id="edge2" class="edge">
<title>ContactCitationComponent&#45;&gt;ContactModule</title>
<path fill="none" stroke="black" d="M724,-122.02C724,-139.37 724,-163 724,-163 724,-163 538.78,-163 538.78,-163"/>
<polygon fill="black" stroke="black" points="538.78,-159.5 528.78,-163 538.78,-166.5 538.78,-159.5"/>
</g>
<!-- ContactComponent -->
<g id="node3" class="node">
<title>ContactComponent</title>
<polygon fill="#ffffb3" stroke="black" points="621.38,-122 496.62,-122 496.62,-86 621.38,-86 621.38,-122"/>
<text text-anchor="middle" x="559" y="-99.8" font-family="Times,serif" font-size="14.00">ContactComponent</text>
</g>
<!-- ContactComponent&#45;&gt;ContactModule -->
<g id="edge3" class="edge">
<title>ContactComponent&#45;&gt;ContactModule</title>
<path fill="none" stroke="black" d="M512.55,-122.11C512.55,-122.11 512.55,-140.99 512.55,-140.99"/>
<polygon fill="black" stroke="black" points="509.05,-140.99 512.55,-150.99 516.05,-140.99 509.05,-140.99"/>
</g>
<!-- ContactImprintComponent -->
<g id="node4" class="node">
<title>ContactImprintComponent</title>
<polygon fill="#ffffb3" stroke="black" points="478.37,-122 311.63,-122 311.63,-86 478.37,-86 478.37,-122"/>
<text text-anchor="middle" x="395" y="-99.8" font-family="Times,serif" font-size="14.00">ContactImprintComponent</text>
</g>
<!-- ContactImprintComponent&#45;&gt;ContactModule -->
<g id="edge4" class="edge">
<title>ContactImprintComponent&#45;&gt;ContactModule</title>
<path fill="none" stroke="black" d="M451.94,-122.11C451.94,-122.11 451.94,-140.99 451.94,-140.99"/>
<polygon fill="black" stroke="black" points="448.44,-140.99 451.94,-150.99 455.44,-140.99 448.44,-140.99"/>
</g>
<!-- ContactRoutingModule -->
<g id="node6" class="node">
<title>ContactRoutingModule</title>
<polygon fill="#8dd3c7" stroke="black" points="288.21,-122 285.21,-126 264.21,-126 261.21,-122 139.79,-122 139.79,-86 288.21,-86 288.21,-122"/>
<text text-anchor="middle" x="214" y="-99.8" font-family="Times,serif" font-size="14.00">ContactRoutingModule</text>
</g>
<!-- ContactRoutingModule&#45;&gt;ContactModule -->
<g id="edge5" class="edge">
<title>ContactRoutingModule&#45;&gt;ContactModule</title>
<path fill="none" stroke="black" d="M214,-122.02C214,-139.37 214,-163 214,-163 214,-163 415.35,-163 415.35,-163"/>
<polygon fill="black" stroke="black" points="415.35,-166.5 425.35,-163 415.35,-159.5 415.35,-166.5"/>
</g>
<!-- SharedModule -->
<g id="node7" class="node">
<title>SharedModule</title>
<polygon fill="#8dd3c7" stroke="black" points="122.42,-122 119.42,-126 98.42,-126 95.42,-122 23.58,-122 23.58,-86 122.42,-86 122.42,-122"/>
<text text-anchor="middle" x="73" y="-99.8" font-family="Times,serif" font-size="14.00">SharedModule</text>
</g>
<!-- SharedModule&#45;&gt;ContactModule -->
<g id="edge6" class="edge">
<title>SharedModule&#45;&gt;ContactModule</title>
<path fill="none" stroke="black" d="M73,-122.28C73,-143.32 73,-175 73,-175 73,-175 415.42,-175 415.42,-175"/>
<polygon fill="black" stroke="black" points="415.42,-178.5 425.42,-175 415.42,-171.5 415.42,-178.5"/>
</g>
</g>
</svg>
