<?xml version="1.0" encoding="UTF-8" standalone="no"?>
<!DOCTYPE svg PUBLIC "-//W3C//DTD SVG 1.1//EN"
 "http://www.w3.org/Graphics/SVG/1.1/DTD/svg11.dtd">
<!-- Generated by graphviz version 5.0.0 (20220707.1540)
 -->
<!-- Title: dependencies Pages: 1 -->
<svg width="1029pt" height="174pt"
 viewBox="0.00 0.00 1029.00 173.80" xmlns="http://www.w3.org/2000/svg" xmlns:xlink="http://www.w3.org/1999/xlink">
<g id="graph0" class="graph" transform="scale(1 1) rotate(0) translate(4 169.8)">
<title>dependencies</title>
<polygon fill="white" stroke="transparent" points="-4,4 -4,-169.8 1025,-169.8 1025,4 -4,4"/>
<text text-anchor="middle" x="510.5" y="-8.2" font-family="sans-serif" font-size="14.00">dependencies</text>
<g id="clust1" class="cluster">
<title>cluster_ContactModule</title>
<polygon fill="none" stroke="black" stroke-dasharray="1,5" points="8,-32.8 8,-157.8 1013,-157.8 1013,-32.8 8,-32.8"/>
</g>
<g id="clust2" class="cluster">
<title>cluster_ContactModule_declarations</title>
<polygon fill="none" stroke="black" points="304,-40.8 304,-92.8 1005,-92.8 1005,-40.8 304,-40.8"/>
</g>
<g id="clust7" class="cluster">
<title>cluster_ContactModule_imports</title>
<polygon fill="none" stroke="black" points="16,-40.8 16,-92.8 296,-92.8 296,-40.8 16,-40.8"/>
</g>
<!-- ContactAddressComponent -->
<g id="node1" class="node">
<title>ContactAddressComponent</title>
<polygon fill="#ffffb3" stroke="black" points="997.26,-84.8 826.74,-84.8 826.74,-48.8 997.26,-48.8 997.26,-84.8"/>
<text text-anchor="middle" x="912" y="-62.6" font-family="Times,serif" font-size="14.00">ContactAddressComponent</text>
</g>
<!-- ContactModule -->
<g id="node5" class="node">
<title>ContactModule</title>
<polygon fill="#8dd3c7" stroke="black" points="528.6,-149.8 525.6,-153.8 504.6,-153.8 501.6,-149.8 425.4,-149.8 425.4,-113.8 528.6,-113.8 528.6,-149.8"/>
<text text-anchor="middle" x="477" y="-127.6" font-family="Times,serif" font-size="14.00">ContactModule</text>
</g>
<!-- ContactAddressComponent&#45;&gt;ContactModule -->
<g id="edge1" class="edge">
<title>ContactAddressComponent&#45;&gt;ContactModule</title>
<path fill="none" stroke="black" d="M912,-85.08C912,-106.12 912,-137.8 912,-137.8 912,-137.8 538.61,-137.8 538.61,-137.8"/>
<polygon fill="black" stroke="black" points="538.61,-134.3 528.61,-137.8 538.61,-141.3 538.61,-134.3"/>
</g>
<!-- ContactCitationComponent -->
<g id="node2" class="node">
<title>ContactCitationComponent</title>
<polygon fill="#ffffb3" stroke="black" points="808.99,-84.8 639.01,-84.8 639.01,-48.8 808.99,-48.8 808.99,-84.8"/>
<text text-anchor="middle" x="724" y="-62.6" font-family="Times,serif" font-size="14.00">ContactCitationComponent</text>
</g>
<!-- ContactCitationComponent&#45;&gt;ContactModule -->
<g id="edge2" class="edge">
<title>ContactCitationComponent&#45;&gt;ContactModule</title>
<path fill="none" stroke="black" d="M724,-84.82C724,-102.17 724,-125.8 724,-125.8 724,-125.8 538.78,-125.8 538.78,-125.8"/>
<polygon fill="black" stroke="black" points="538.78,-122.3 528.78,-125.8 538.78,-129.3 538.78,-122.3"/>
</g>
<!-- ContactComponent -->
<g id="node3" class="node">
<title>ContactComponent</title>
<polygon fill="#ffffb3" stroke="black" points="621.38,-84.8 496.62,-84.8 496.62,-48.8 621.38,-48.8 621.38,-84.8"/>
<text text-anchor="middle" x="559" y="-62.6" font-family="Times,serif" font-size="14.00">ContactComponent</text>
</g>
<!-- ContactComponent&#45;&gt;ContactModule -->
<g id="edge3" class="edge">
<title>ContactComponent&#45;&gt;ContactModule</title>
<path fill="none" stroke="black" d="M512.56,-84.91C512.56,-84.91 512.56,-103.79 512.56,-103.79"/>
<polygon fill="black" stroke="black" points="509.06,-103.79 512.56,-113.79 516.06,-103.79 509.06,-103.79"/>
</g>
<!-- ContactImprintComponent -->
<g id="node4" class="node">
<title>ContactImprintComponent</title>
<polygon fill="#ffffb3" stroke="black" points="478.37,-84.8 311.63,-84.8 311.63,-48.8 478.37,-48.8 478.37,-84.8"/>
<text text-anchor="middle" x="395" y="-62.6" font-family="Times,serif" font-size="14.00">ContactImprintComponent</text>
</g>
<!-- ContactImprintComponent&#45;&gt;ContactModule -->
<g id="edge4" class="edge">
<title>ContactImprintComponent&#45;&gt;ContactModule</title>
<path fill="none" stroke="black" d="M451.94,-84.91C451.94,-84.91 451.94,-103.79 451.94,-103.79"/>
<polygon fill="black" stroke="black" points="448.44,-103.79 451.94,-113.79 455.44,-103.79 448.44,-103.79"/>
</g>
<!-- ContactRoutingModule -->
<g id="node6" class="node">
<title>ContactRoutingModule</title>
<polygon fill="#8dd3c7" stroke="black" points="288.21,-84.8 285.21,-88.8 264.21,-88.8 261.21,-84.8 139.79,-84.8 139.79,-48.8 288.21,-48.8 288.21,-84.8"/>
<text text-anchor="middle" x="214" y="-62.6" font-family="Times,serif" font-size="14.00">ContactRoutingModule</text>
</g>
<!-- ContactRoutingModule&#45;&gt;ContactModule -->
<g id="edge5" class="edge">
<title>ContactRoutingModule&#45;&gt;ContactModule</title>
<path fill="none" stroke="black" d="M214,-84.82C214,-102.17 214,-125.8 214,-125.8 214,-125.8 415.35,-125.8 415.35,-125.8"/>
<polygon fill="black" stroke="black" points="415.35,-129.3 425.35,-125.8 415.35,-122.3 415.35,-129.3"/>
</g>
<!-- SharedModule -->
<g id="node7" class="node">
<title>SharedModule</title>
<polygon fill="#8dd3c7" stroke="black" points="122.43,-84.8 119.43,-88.8 98.43,-88.8 95.43,-84.8 23.57,-84.8 23.57,-48.8 122.43,-48.8 122.43,-84.8"/>
<text text-anchor="middle" x="73" y="-62.6" font-family="Times,serif" font-size="14.00">SharedModule</text>
</g>
<!-- SharedModule&#45;&gt;ContactModule -->
<g id="edge6" class="edge">
<title>SharedModule&#45;&gt;ContactModule</title>
<path fill="none" stroke="black" d="M73,-85.08C73,-106.12 73,-137.8 73,-137.8 73,-137.8 415.42,-137.8 415.42,-137.8"/>
<polygon fill="black" stroke="black" points="415.42,-141.3 425.42,-137.8 415.42,-134.3 415.42,-141.3"/>
</g>
</g>
</svg>
