<?xml version="1.0" encoding="UTF-8" standalone="no"?>
<!DOCTYPE svg PUBLIC "-//W3C//DTD SVG 1.1//EN"
 "http://www.w3.org/Graphics/SVG/1.1/DTD/svg11.dtd">
<!-- Generated by graphviz version 2.47.0 (20210316.0004)
 -->
<!-- Title: dependencies Pages: 1 -->
<svg width="1441pt" height="284pt"
 viewBox="0.00 0.00 1441.00 284.00" xmlns="http://www.w3.org/2000/svg" xmlns:xlink="http://www.w3.org/1999/xlink">
<g id="graph0" class="graph" transform="scale(1 1) rotate(0) translate(4 280)">
<title>dependencies</title>
<polygon fill="white" stroke="transparent" points="-4,4 -4,-280 1437,-280 1437,4 -4,4"/>
<text text-anchor="start" x="695.51" y="-42.4" font-family="sans-serif" font-weight="bold" font-size="14.00">Legend</text>
<polygon fill="#ffffb3" stroke="transparent" points="482.5,-10 482.5,-30 502.5,-30 502.5,-10 482.5,-10"/>
<text text-anchor="start" x="506.13" y="-15.4" font-family="sans-serif" font-size="14.00"> &#160;Declarations</text>
<polygon fill="#8dd3c7" stroke="transparent" points="595.5,-10 595.5,-30 615.5,-30 615.5,-10 595.5,-10"/>
<text text-anchor="start" x="619.23" y="-15.4" font-family="sans-serif" font-size="14.00"> &#160;Module</text>
<polygon fill="#80b1d3" stroke="transparent" points="681.5,-10 681.5,-30 701.5,-30 701.5,-10 681.5,-10"/>
<text text-anchor="start" x="705.28" y="-15.4" font-family="sans-serif" font-size="14.00"> &#160;Bootstrap</text>
<polygon fill="#fdb462" stroke="transparent" points="778.5,-10 778.5,-30 798.5,-30 798.5,-10 778.5,-10"/>
<text text-anchor="start" x="802.17" y="-15.4" font-family="sans-serif" font-size="14.00"> &#160;Providers</text>
<polygon fill="#fb8072" stroke="transparent" points="874.5,-10 874.5,-30 894.5,-30 894.5,-10 874.5,-10"/>
<text text-anchor="start" x="898.23" y="-15.4" font-family="sans-serif" font-size="14.00"> &#160;Exports</text>
<g id="clust1" class="cluster">
<title>cluster_AppModule</title>
<polygon fill="none" stroke="black" stroke-dasharray="1,5" points="8,-70 8,-268 1425,-268 1425,-70 8,-70"/>
</g>
<g id="clust5" class="cluster">
<title>cluster_AppModule_imports</title>
<polygon fill="none" stroke="black" points="329,-78 329,-130 1417,-130 1417,-78 329,-78"/>
</g>
<g id="clust2" class="cluster">
<title>cluster_AppModule_declarations</title>
<polygon fill="none" stroke="black" points="16,-78 16,-130 321,-130 321,-78 16,-78"/>
</g>
<g id="clust7" class="cluster">
<title>cluster_AppModule_bootstrap</title>
<polygon fill="none" stroke="black" points="683,-208 683,-260 807,-260 807,-208 683,-208"/>
</g>
<!-- AppComponent -->
<g id="node1" class="node">
<title>AppComponent</title>
<polygon fill="#ffffb3" stroke="black" points="312.94,-122 207.06,-122 207.06,-86 312.94,-86 312.94,-122"/>
<text text-anchor="middle" x="260" y="-99.8" font-family="Times,serif" font-size="14.00">AppComponent</text>
</g>
<!-- AppModule -->
<g id="node3" class="node">
<title>AppModule</title>
<polygon fill="#8dd3c7" stroke="black" points="786.66,-187 783.66,-191 762.66,-191 759.66,-187 703.34,-187 703.34,-151 786.66,-151 786.66,-187"/>
<text text-anchor="middle" x="745" y="-164.8" font-family="Times,serif" font-size="14.00">AppModule</text>
</g>
<!-- AppComponent&#45;&gt;AppModule -->
<g id="edge1" class="edge">
<title>AppComponent&#45;&gt;AppModule</title>
<path fill="none" stroke="black" d="M260,-122.28C260,-143.32 260,-175 260,-175 260,-175 693.23,-175 693.23,-175"/>
<polygon fill="black" stroke="black" points="693.23,-178.5 703.23,-175 693.23,-171.5 693.23,-178.5"/>
</g>
<!-- PageNotFoundComponent -->
<g id="node2" class="node">
<title>PageNotFoundComponent</title>
<polygon fill="#ffffb3" stroke="black" points="189.82,-122 24.18,-122 24.18,-86 189.82,-86 189.82,-122"/>
<text text-anchor="middle" x="107" y="-99.8" font-family="Times,serif" font-size="14.00">PageNotFoundComponent</text>
</g>
<!-- PageNotFoundComponent&#45;&gt;AppModule -->
<g id="edge2" class="edge">
<title>PageNotFoundComponent&#45;&gt;AppModule</title>
<path fill="none" stroke="black" d="M107,-122.25C107,-145.02 107,-181 107,-181 107,-181 693.14,-181 693.14,-181"/>
<polygon fill="black" stroke="black" points="693.14,-184.5 703.14,-181 693.14,-177.5 693.14,-184.5"/>
</g>
<!-- AppComponent  -->
<g id="node13" class="node">
<title>AppComponent </title>
<polygon fill="#80b1d3" stroke="black" points="799.44,-252 690.56,-252 690.56,-216 799.44,-216 799.44,-252"/>
<text text-anchor="middle" x="745" y="-229.8" font-family="Times,serif" font-size="14.00">AppComponent </text>
</g>
<!-- AppModule&#45;&gt;AppComponent  -->
<g id="edge12" class="edge">
<title>AppModule&#45;&gt;AppComponent </title>
<path fill="none" stroke="black" stroke-dasharray="1,5" d="M745,-187.11C745,-187.11 745,-205.99 745,-205.99"/>
<polygon fill="black" stroke="black" points="741.5,-205.99 745,-215.99 748.5,-205.99 741.5,-205.99"/>
</g>
<!-- AppRoutingModule -->
<g id="node4" class="node">
<title>AppRoutingModule</title>
<polygon fill="#8dd3c7" stroke="black" points="1409.27,-122 1406.27,-126 1385.27,-126 1382.27,-122 1280.73,-122 1280.73,-86 1409.27,-86 1409.27,-122"/>
<text text-anchor="middle" x="1345" y="-99.8" font-family="Times,serif" font-size="14.00">AppRoutingModule</text>
</g>
<!-- AppRoutingModule&#45;&gt;AppModule -->
<g id="edge3" class="edge">
<title>AppRoutingModule&#45;&gt;AppModule</title>
<path fill="none" stroke="black" d="M1345,-122.25C1345,-145.02 1345,-181 1345,-181 1345,-181 796.71,-181 796.71,-181"/>
<polygon fill="black" stroke="black" points="796.71,-177.5 786.71,-181 796.71,-184.5 796.71,-177.5"/>
</g>
<!-- ContactModule -->
<g id="node5" class="node">
<title>ContactModule</title>
<polygon fill="#8dd3c7" stroke="black" points="1262.6,-122 1259.6,-126 1238.6,-126 1235.6,-122 1159.4,-122 1159.4,-86 1262.6,-86 1262.6,-122"/>
<text text-anchor="middle" x="1211" y="-99.8" font-family="Times,serif" font-size="14.00">ContactModule</text>
</g>
<!-- ContactModule&#45;&gt;AppModule -->
<g id="edge4" class="edge">
<title>ContactModule&#45;&gt;AppModule</title>
<path fill="none" stroke="black" d="M1211,-122.28C1211,-143.32 1211,-175 1211,-175 1211,-175 796.76,-175 796.76,-175"/>
<polygon fill="black" stroke="black" points="796.76,-171.5 786.76,-175 796.76,-178.5 796.76,-171.5"/>
</g>
<!-- CoreModule -->
<g id="node6" class="node">
<title>CoreModule</title>
<polygon fill="#8dd3c7" stroke="black" points="1141.26,-122 1138.26,-126 1117.26,-126 1114.26,-122 1054.74,-122 1054.74,-86 1141.26,-86 1141.26,-122"/>
<text text-anchor="middle" x="1098" y="-99.8" font-family="Times,serif" font-size="14.00">CoreModule</text>
</g>
<!-- CoreModule&#45;&gt;AppModule -->
<g id="edge5" class="edge">
<title>CoreModule&#45;&gt;AppModule</title>
<path fill="none" stroke="black" d="M1098,-122.11C1098,-141.34 1098,-169 1098,-169 1098,-169 796.88,-169 796.88,-169"/>
<polygon fill="black" stroke="black" points="796.88,-165.5 786.88,-169 796.88,-172.5 796.88,-165.5"/>
</g>
<!-- EditionModule -->
<g id="node7" class="node">
<title>EditionModule</title>
<polygon fill="#8dd3c7" stroke="black" points="1036.27,-122 1033.27,-126 1012.27,-126 1009.27,-122 935.73,-122 935.73,-86 1036.27,-86 1036.27,-122"/>
<text text-anchor="middle" x="986" y="-99.8" font-family="Times,serif" font-size="14.00">EditionModule</text>
</g>
<!-- EditionModule&#45;&gt;AppModule -->
<g id="edge6" class="edge">
<title>EditionModule&#45;&gt;AppModule</title>
<path fill="none" stroke="black" d="M986,-122.02C986,-139.37 986,-163 986,-163 986,-163 796.7,-163 796.7,-163"/>
<polygon fill="black" stroke="black" points="796.7,-159.5 786.7,-163 796.7,-166.5 796.7,-159.5"/>
</g>
<!-- ProjectModule -->
<g id="node8" class="node">
<title>ProjectModule</title>
<polygon fill="#8dd3c7" stroke="black" points="917.7,-122 914.7,-126 893.7,-126 890.7,-122 818.3,-122 818.3,-86 917.7,-86 917.7,-122"/>
<text text-anchor="middle" x="868" y="-99.8" font-family="Times,serif" font-size="14.00">ProjectModule</text>
</g>
<!-- ProjectModule&#45;&gt;AppModule -->
<g id="edge7" class="edge">
<title>ProjectModule&#45;&gt;AppModule</title>
<path fill="none" stroke="black" d="M868,-122.24C868,-137.57 868,-157 868,-157 868,-157 796.99,-157 796.99,-157"/>
<polygon fill="black" stroke="black" points="796.99,-153.5 786.99,-157 796.99,-160.5 796.99,-153.5"/>
</g>
<!-- ResearchModule -->
<g id="node9" class="node">
<title>ResearchModule</title>
<polygon fill="#8dd3c7" stroke="black" points="800.35,-122 797.35,-126 776.35,-126 773.35,-122 689.65,-122 689.65,-86 800.35,-86 800.35,-122"/>
<text text-anchor="middle" x="745" y="-99.8" font-family="Times,serif" font-size="14.00">ResearchModule</text>
</g>
<!-- ResearchModule&#45;&gt;AppModule -->
<g id="edge8" class="edge">
<title>ResearchModule&#45;&gt;AppModule</title>
<path fill="none" stroke="black" d="M745,-122.11C745,-122.11 745,-140.99 745,-140.99"/>
<polygon fill="black" stroke="black" points="741.5,-140.99 745,-150.99 748.5,-140.99 741.5,-140.99"/>
</g>
<!-- SharedModule -->
<g id="node10" class="node">
<title>SharedModule</title>
<polygon fill="#8dd3c7" stroke="black" points="671.42,-122 668.42,-126 647.42,-126 644.42,-122 572.58,-122 572.58,-86 671.42,-86 671.42,-122"/>
<text text-anchor="middle" x="622" y="-99.8" font-family="Times,serif" font-size="14.00">SharedModule</text>
</g>
<!-- SharedModule&#45;&gt;AppModule -->
<g id="edge9" class="edge">
<title>SharedModule&#45;&gt;AppModule</title>
<path fill="none" stroke="black" d="M622,-122.24C622,-137.57 622,-157 622,-157 622,-157 693.01,-157 693.01,-157"/>
<polygon fill="black" stroke="black" points="693.01,-160.5 703.01,-157 693.01,-153.5 693.01,-160.5"/>
</g>
<!-- WebernModule -->
<g id="node11" class="node">
<title>WebernModule</title>
<polygon fill="#8dd3c7" stroke="black" points="554.85,-122 551.85,-126 530.85,-126 527.85,-122 451.15,-122 451.15,-86 554.85,-86 554.85,-122"/>
<text text-anchor="middle" x="503" y="-99.8" font-family="Times,serif" font-size="14.00">WebernModule</text>
</g>
<!-- WebernModule&#45;&gt;AppModule -->
<g id="edge10" class="edge">
<title>WebernModule&#45;&gt;AppModule</title>
<path fill="none" stroke="black" d="M503,-122.02C503,-139.37 503,-163 503,-163 503,-163 693.12,-163 693.12,-163"/>
<polygon fill="black" stroke="black" points="693.12,-166.5 703.12,-163 693.12,-159.5 693.12,-166.5"/>
</g>
<!-- WorksModule -->
<g id="node12" class="node">
<title>WorksModule</title>
<polygon fill="#8dd3c7" stroke="black" points="433.37,-122 430.37,-126 409.37,-126 406.37,-122 336.63,-122 336.63,-86 433.37,-86 433.37,-122"/>
<text text-anchor="middle" x="385" y="-99.8" font-family="Times,serif" font-size="14.00">WorksModule</text>
</g>
<!-- WorksModule&#45;&gt;AppModule -->
<g id="edge11" class="edge">
<title>WorksModule&#45;&gt;AppModule</title>
<path fill="none" stroke="black" d="M385,-122.11C385,-141.34 385,-169 385,-169 385,-169 693,-169 693,-169"/>
<polygon fill="black" stroke="black" points="693,-172.5 703,-169 693,-165.5 693,-172.5"/>
</g>
</g>
</svg>
