<?xml version="1.0" encoding="UTF-8" standalone="no"?>
<!DOCTYPE svg PUBLIC "-//W3C//DTD SVG 1.1//EN"
 "http://www.w3.org/Graphics/SVG/1.1/DTD/svg11.dtd">
<!-- Generated by graphviz version 5.0.0 (20220707.1540)
 -->
<!-- Title: dependencies Pages: 1 -->
<svg width="1441pt" height="247pt"
 viewBox="0.00 0.00 1441.00 246.80" xmlns="http://www.w3.org/2000/svg" xmlns:xlink="http://www.w3.org/1999/xlink">
<g id="graph0" class="graph" transform="scale(1 1) rotate(0) translate(4 242.8)">
<title>dependencies</title>
<polygon fill="white" stroke="transparent" points="-4,4 -4,-242.8 1437,-242.8 1437,4 -4,4"/>
<text text-anchor="middle" x="716.5" y="-8.2" font-family="sans-serif" font-size="14.00">dependencies</text>
<g id="clust1" class="cluster">
<title>cluster_AppModule</title>
<polygon fill="none" stroke="black" stroke-dasharray="1,5" points="8,-32.8 8,-230.8 1425,-230.8 1425,-32.8 8,-32.8"/>
</g>
<g id="clust7" class="cluster">
<title>cluster_AppModule_bootstrap</title>
<polygon fill="none" stroke="black" points="683,-170.8 683,-222.8 807,-222.8 807,-170.8 683,-170.8"/>
</g>
<g id="clust5" class="cluster">
<title>cluster_AppModule_imports</title>
<polygon fill="none" stroke="black" points="329,-40.8 329,-92.8 1417,-92.8 1417,-40.8 329,-40.8"/>
</g>
<g id="clust2" class="cluster">
<title>cluster_AppModule_declarations</title>
<polygon fill="none" stroke="black" points="16,-40.8 16,-92.8 321,-92.8 321,-40.8 16,-40.8"/>
</g>
<!-- AppComponent -->
<g id="node1" class="node">
<title>AppComponent</title>
<polygon fill="#ffffb3" stroke="black" points="312.94,-84.8 207.06,-84.8 207.06,-48.8 312.94,-48.8 312.94,-84.8"/>
<text text-anchor="middle" x="260" y="-62.6" font-family="Times,serif" font-size="14.00">AppComponent</text>
</g>
<!-- AppModule -->
<g id="node3" class="node">
<title>AppModule</title>
<polygon fill="#8dd3c7" stroke="black" points="786.66,-149.8 783.66,-153.8 762.66,-153.8 759.66,-149.8 703.34,-149.8 703.34,-113.8 786.66,-113.8 786.66,-149.8"/>
<text text-anchor="middle" x="745" y="-127.6" font-family="Times,serif" font-size="14.00">AppModule</text>
</g>
<!-- AppComponent&#45;&gt;AppModule -->
<g id="edge1" class="edge">
<title>AppComponent&#45;&gt;AppModule</title>
<path fill="none" stroke="black" d="M260,-85.08C260,-106.12 260,-137.8 260,-137.8 260,-137.8 693.23,-137.8 693.23,-137.8"/>
<polygon fill="black" stroke="black" points="693.23,-141.3 703.23,-137.8 693.23,-134.3 693.23,-141.3"/>
</g>
<!-- PageNotFoundComponent -->
<g id="node2" class="node">
<title>PageNotFoundComponent</title>
<polygon fill="#ffffb3" stroke="black" points="189.83,-84.8 24.17,-84.8 24.17,-48.8 189.83,-48.8 189.83,-84.8"/>
<text text-anchor="middle" x="107" y="-62.6" font-family="Times,serif" font-size="14.00">PageNotFoundComponent</text>
</g>
<!-- PageNotFoundComponent&#45;&gt;AppModule -->
<g id="edge2" class="edge">
<title>PageNotFoundComponent&#45;&gt;AppModule</title>
<path fill="none" stroke="black" d="M107,-85.05C107,-107.82 107,-143.8 107,-143.8 107,-143.8 693.14,-143.8 693.14,-143.8"/>
<polygon fill="black" stroke="black" points="693.14,-147.3 703.14,-143.8 693.14,-140.3 693.14,-147.3"/>
</g>
<!-- AppComponent  -->
<g id="node13" class="node">
<title>AppComponent </title>
<polygon fill="#80b1d3" stroke="black" points="799.44,-214.8 690.56,-214.8 690.56,-178.8 799.44,-178.8 799.44,-214.8"/>
<text text-anchor="middle" x="745" y="-192.6" font-family="Times,serif" font-size="14.00">AppComponent </text>
</g>
<!-- AppModule&#45;&gt;AppComponent  -->
<g id="edge12" class="edge">
<title>AppModule&#45;&gt;AppComponent </title>
<path fill="none" stroke="black" stroke-dasharray="1,5" d="M745,-149.91C745,-149.91 745,-168.79 745,-168.79"/>
<polygon fill="black" stroke="black" points="741.5,-168.79 745,-178.79 748.5,-168.79 741.5,-168.79"/>
</g>
<!-- AppRoutingModule -->
<g id="node4" class="node">
<title>AppRoutingModule</title>
<polygon fill="#8dd3c7" stroke="black" points="1409.28,-84.8 1406.28,-88.8 1385.28,-88.8 1382.28,-84.8 1280.72,-84.8 1280.72,-48.8 1409.28,-48.8 1409.28,-84.8"/>
<text text-anchor="middle" x="1345" y="-62.6" font-family="Times,serif" font-size="14.00">AppRoutingModule</text>
</g>
<!-- AppRoutingModule&#45;&gt;AppModule -->
<g id="edge3" class="edge">
<title>AppRoutingModule&#45;&gt;AppModule</title>
<path fill="none" stroke="black" d="M1345,-85.05C1345,-107.82 1345,-143.8 1345,-143.8 1345,-143.8 796.71,-143.8 796.71,-143.8"/>
<polygon fill="black" stroke="black" points="796.71,-140.3 786.71,-143.8 796.71,-147.3 796.71,-140.3"/>
</g>
<!-- ContactModule -->
<g id="node5" class="node">
<title>ContactModule</title>
<polygon fill="#8dd3c7" stroke="black" points="1262.6,-84.8 1259.6,-88.8 1238.6,-88.8 1235.6,-84.8 1159.4,-84.8 1159.4,-48.8 1262.6,-48.8 1262.6,-84.8"/>
<text text-anchor="middle" x="1211" y="-62.6" font-family="Times,serif" font-size="14.00">ContactModule</text>
</g>
<!-- ContactModule&#45;&gt;AppModule -->
<g id="edge4" class="edge">
<title>ContactModule&#45;&gt;AppModule</title>
<path fill="none" stroke="black" d="M1211,-85.08C1211,-106.12 1211,-137.8 1211,-137.8 1211,-137.8 796.76,-137.8 796.76,-137.8"/>
<polygon fill="black" stroke="black" points="796.76,-134.3 786.76,-137.8 796.76,-141.3 796.76,-134.3"/>
</g>
<!-- CoreModule -->
<g id="node6" class="node">
<title>CoreModule</title>
<polygon fill="#8dd3c7" stroke="black" points="1141.27,-84.8 1138.27,-88.8 1117.27,-88.8 1114.27,-84.8 1054.73,-84.8 1054.73,-48.8 1141.27,-48.8 1141.27,-84.8"/>
<text text-anchor="middle" x="1098" y="-62.6" font-family="Times,serif" font-size="14.00">CoreModule</text>
</g>
<!-- CoreModule&#45;&gt;AppModule -->
<g id="edge5" class="edge">
<title>CoreModule&#45;&gt;AppModule</title>
<path fill="none" stroke="black" d="M1098,-84.91C1098,-104.14 1098,-131.8 1098,-131.8 1098,-131.8 796.88,-131.8 796.88,-131.8"/>
<polygon fill="black" stroke="black" points="796.88,-128.3 786.88,-131.8 796.88,-135.3 796.88,-128.3"/>
</g>
<!-- EditionModule -->
<g id="node7" class="node">
<title>EditionModule</title>
<polygon fill="#8dd3c7" stroke="black" points="1036.27,-84.8 1033.27,-88.8 1012.27,-88.8 1009.27,-84.8 935.73,-84.8 935.73,-48.8 1036.27,-48.8 1036.27,-84.8"/>
<text text-anchor="middle" x="986" y="-62.6" font-family="Times,serif" font-size="14.00">EditionModule</text>
</g>
<!-- EditionModule&#45;&gt;AppModule -->
<g id="edge6" class="edge">
<title>EditionModule&#45;&gt;AppModule</title>
<path fill="none" stroke="black" d="M986,-84.82C986,-102.17 986,-125.8 986,-125.8 986,-125.8 796.7,-125.8 796.7,-125.8"/>
<polygon fill="black" stroke="black" points="796.7,-122.3 786.7,-125.8 796.7,-129.3 796.7,-122.3"/>
</g>
<!-- ProjectModule -->
<g id="node8" class="node">
<title>ProjectModule</title>
<polygon fill="#8dd3c7" stroke="black" points="917.71,-84.8 914.71,-88.8 893.71,-88.8 890.71,-84.8 818.29,-84.8 818.29,-48.8 917.71,-48.8 917.71,-84.8"/>
<text text-anchor="middle" x="868" y="-62.6" font-family="Times,serif" font-size="14.00">ProjectModule</text>
</g>
<!-- ProjectModule&#45;&gt;AppModule -->
<g id="edge7" class="edge">
<title>ProjectModule&#45;&gt;AppModule</title>
<path fill="none" stroke="black" d="M868,-85.04C868,-100.37 868,-119.8 868,-119.8 868,-119.8 796.99,-119.8 796.99,-119.8"/>
<polygon fill="black" stroke="black" points="796.99,-116.3 786.99,-119.8 796.99,-123.3 796.99,-116.3"/>
</g>
<!-- ResearchModule -->
<g id="node9" class="node">
<title>ResearchModule</title>
<polygon fill="#8dd3c7" stroke="black" points="800.36,-84.8 797.36,-88.8 776.36,-88.8 773.36,-84.8 689.64,-84.8 689.64,-48.8 800.36,-48.8 800.36,-84.8"/>
<text text-anchor="middle" x="745" y="-62.6" font-family="Times,serif" font-size="14.00">ResearchModule</text>
</g>
<!-- ResearchModule&#45;&gt;AppModule -->
<g id="edge8" class="edge">
<title>ResearchModule&#45;&gt;AppModule</title>
<path fill="none" stroke="black" d="M745,-84.91C745,-84.91 745,-103.79 745,-103.79"/>
<polygon fill="black" stroke="black" points="741.5,-103.79 745,-113.79 748.5,-103.79 741.5,-103.79"/>
</g>
<!-- SharedModule -->
<g id="node10" class="node">
<title>SharedModule</title>
<polygon fill="#8dd3c7" stroke="black" points="671.43,-84.8 668.43,-88.8 647.43,-88.8 644.43,-84.8 572.57,-84.8 572.57,-48.8 671.43,-48.8 671.43,-84.8"/>
<text text-anchor="middle" x="622" y="-62.6" font-family="Times,serif" font-size="14.00">SharedModule</text>
</g>
<!-- SharedModule&#45;&gt;AppModule -->
<g id="edge9" class="edge">
<title>SharedModule&#45;&gt;AppModule</title>
<path fill="none" stroke="black" d="M622,-85.04C622,-100.37 622,-119.8 622,-119.8 622,-119.8 693.01,-119.8 693.01,-119.8"/>
<polygon fill="black" stroke="black" points="693.01,-123.3 703.01,-119.8 693.01,-116.3 693.01,-123.3"/>
</g>
<!-- WebernModule -->
<g id="node11" class="node">
<title>WebernModule</title>
<polygon fill="#8dd3c7" stroke="black" points="554.86,-84.8 551.86,-88.8 530.86,-88.8 527.86,-84.8 451.14,-84.8 451.14,-48.8 554.86,-48.8 554.86,-84.8"/>
<text text-anchor="middle" x="503" y="-62.6" font-family="Times,serif" font-size="14.00">WebernModule</text>
</g>
<!-- WebernModule&#45;&gt;AppModule -->
<g id="edge10" class="edge">
<title>WebernModule&#45;&gt;AppModule</title>
<path fill="none" stroke="black" d="M503,-84.82C503,-102.17 503,-125.8 503,-125.8 503,-125.8 693.12,-125.8 693.12,-125.8"/>
<polygon fill="black" stroke="black" points="693.12,-129.3 703.12,-125.8 693.12,-122.3 693.12,-129.3"/>
</g>
<!-- WorksModule -->
<g id="node12" class="node">
<title>WorksModule</title>
<polygon fill="#8dd3c7" stroke="black" points="433.38,-84.8 430.38,-88.8 409.38,-88.8 406.38,-84.8 336.62,-84.8 336.62,-48.8 433.38,-48.8 433.38,-84.8"/>
<text text-anchor="middle" x="385" y="-62.6" font-family="Times,serif" font-size="14.00">WorksModule</text>
</g>
<!-- WorksModule&#45;&gt;AppModule -->
<g id="edge11" class="edge">
<title>WorksModule&#45;&gt;AppModule</title>
<path fill="none" stroke="black" d="M385,-84.91C385,-104.14 385,-131.8 385,-131.8 385,-131.8 693,-131.8 693,-131.8"/>
<polygon fill="black" stroke="black" points="693,-135.3 703,-131.8 693,-128.3 693,-135.3"/>
</g>
</g>
</svg>
