<?xml version="1.0" encoding="UTF-8" standalone="no"?>
<!DOCTYPE svg PUBLIC "-//W3C//DTD SVG 1.1//EN"
 "http://www.w3.org/Graphics/SVG/1.1/DTD/svg11.dtd">
<!-- Generated by graphviz version 2.47.0 (20210316.0004)
 -->
<!-- Title: dependencies Pages: 1 -->
<svg width="1026pt" height="211pt"
 viewBox="0.00 0.00 1026.00 211.00" xmlns="http://www.w3.org/2000/svg" xmlns:xlink="http://www.w3.org/1999/xlink">
<g id="graph0" class="graph" transform="scale(1 1) rotate(0) translate(4 207)">
<title>dependencies</title>
<polygon fill="white" stroke="transparent" points="-4,4 -4,-207 1022,-207 1022,4 -4,4"/>
<text text-anchor="start" x="488.01" y="-42.4" font-family="Times-12" font-weight="bold" font-size="14.00">Legend</text>
<polygon fill="#ffffb3" stroke="transparent" points="275,-10 275,-30 295,-30 295,-10 275,-10"/>
<text text-anchor="start" x="298.63" y="-15.4" font-family="Times-12" font-size="14.00"> &#160;Declarations</text>
<polygon fill="#8dd3c7" stroke="transparent" points="388,-10 388,-30 408,-30 408,-10 388,-10"/>
<text text-anchor="start" x="411.73" y="-15.4" font-family="Times-12" font-size="14.00"> &#160;Module</text>
<polygon fill="#80b1d3" stroke="transparent" points="474,-10 474,-30 494,-30 494,-10 474,-10"/>
<text text-anchor="start" x="497.78" y="-15.4" font-family="Times-12" font-size="14.00"> &#160;Bootstrap</text>
<polygon fill="#fdb462" stroke="transparent" points="571,-10 571,-30 591,-30 591,-10 571,-10"/>
<text text-anchor="start" x="594.67" y="-15.4" font-family="Times-12" font-size="14.00"> &#160;Providers</text>
<polygon fill="#fb8072" stroke="transparent" points="667,-10 667,-30 687,-30 687,-10 667,-10"/>
<text text-anchor="start" x="690.73" y="-15.4" font-family="Times-12" font-size="14.00"> &#160;Exports</text>
<g id="clust1" class="cluster">
<title>cluster_WorksModule</title>
<polygon fill="none" stroke="black" stroke-dasharray="1,5" points="8,-70 8,-195 1010,-195 1010,-70 8,-70"/>
</g>
<g id="clust7" class="cluster">
<title>cluster_WorksModule_imports</title>
<polygon fill="none" stroke="black" points="728,-78 728,-130 1002,-130 1002,-78 728,-78"/>
</g>
<g id="clust2" class="cluster">
<title>cluster_WorksModule_declarations</title>
<polygon fill="none" stroke="black" points="16,-78 16,-130 720,-130 720,-78 16,-78"/>
</g>
<!-- WorksComponent -->
<g id="node1" class="node">
<title>WorksComponent</title>
<polygon fill="#ffffb3" stroke="black" points="712.15,-122 593.85,-122 593.85,-86 712.15,-86 712.15,-122"/>
<text text-anchor="middle" x="653" y="-99.8" font-family="Times,serif" font-size="14.00">WorksComponent</text>
</g>
<!-- WorksModule -->
<g id="node5" class="node">
<title>WorksModule</title>
<polygon fill="#8dd3c7" stroke="black" points="614.37,-187 611.37,-191 590.37,-191 587.37,-187 517.63,-187 517.63,-151 614.37,-151 614.37,-187"/>
<text text-anchor="middle" x="566" y="-164.8" font-family="Times,serif" font-size="14.00">WorksModule</text>
</g>
<!-- WorksComponent&#45;&gt;WorksModule -->
<g id="edge1" class="edge">
<title>WorksComponent&#45;&gt;WorksModule</title>
<path fill="none" stroke="black" d="M604.05,-122.11C604.05,-122.11 604.05,-140.99 604.05,-140.99"/>
<polygon fill="black" stroke="black" points="600.55,-140.99 604.05,-150.99 607.55,-140.99 600.55,-140.99"/>
</g>
<!-- WorksMoldenhauerComponent -->
<g id="node2" class="node">
<title>WorksMoldenhauerComponent</title>
<polygon fill="#ffffb3" stroke="black" points="575.79,-122 382.21,-122 382.21,-86 575.79,-86 575.79,-122"/>
<text text-anchor="middle" x="479" y="-99.8" font-family="Times,serif" font-size="14.00">WorksMoldenhauerComponent</text>
</g>
<!-- WorksMoldenhauerComponent&#45;&gt;WorksModule -->
<g id="edge2" class="edge">
<title>WorksMoldenhauerComponent&#45;&gt;WorksModule</title>
<path fill="none" stroke="black" d="M546.61,-122.11C546.61,-122.11 546.61,-140.99 546.61,-140.99"/>
<polygon fill="black" stroke="black" points="543.11,-140.99 546.61,-150.99 550.11,-140.99 543.11,-140.99"/>
</g>
<!-- WorksOpusComponent -->
<g id="node3" class="node">
<title>WorksOpusComponent</title>
<polygon fill="#ffffb3" stroke="black" points="364.2,-122 215.8,-122 215.8,-86 364.2,-86 364.2,-122"/>
<text text-anchor="middle" x="290" y="-99.8" font-family="Times,serif" font-size="14.00">WorksOpusComponent</text>
</g>
<!-- WorksOpusComponent&#45;&gt;WorksModule -->
<g id="edge3" class="edge">
<title>WorksOpusComponent&#45;&gt;WorksModule</title>
<path fill="none" stroke="black" d="M290,-122.02C290,-139.37 290,-163 290,-163 290,-163 507.61,-163 507.61,-163"/>
<polygon fill="black" stroke="black" points="507.61,-166.5 517.61,-163 507.61,-159.5 507.61,-166.5"/>
</g>
<!-- WorksOverviewComponent -->
<g id="node4" class="node">
<title>WorksOverviewComponent</title>
<polygon fill="#ffffb3" stroke="black" points="197.85,-122 24.15,-122 24.15,-86 197.85,-86 197.85,-122"/>
<text text-anchor="middle" x="111" y="-99.8" font-family="Times,serif" font-size="14.00">WorksOverviewComponent</text>
</g>
<!-- WorksOverviewComponent&#45;&gt;WorksModule -->
<g id="edge4" class="edge">
<title>WorksOverviewComponent&#45;&gt;WorksModule</title>
<path fill="none" stroke="black" d="M111,-122.28C111,-143.32 111,-175 111,-175 111,-175 507.31,-175 507.31,-175"/>
<polygon fill="black" stroke="black" points="507.31,-178.5 517.31,-175 507.31,-171.5 507.31,-178.5"/>
</g>
<!-- SharedModule -->
<g id="node6" class="node">
<title>SharedModule</title>
<polygon fill="#8dd3c7" stroke="black" points="994.42,-122 991.42,-126 970.42,-126 967.42,-122 895.58,-122 895.58,-86 994.42,-86 994.42,-122"/>
<text text-anchor="middle" x="945" y="-99.8" font-family="Times,serif" font-size="14.00">SharedModule</text>
</g>
<!-- SharedModule&#45;&gt;WorksModule -->
<g id="edge5" class="edge">
<title>SharedModule&#45;&gt;WorksModule</title>
<path fill="none" stroke="black" d="M945,-122.28C945,-143.32 945,-175 945,-175 945,-175 624.39,-175 624.39,-175"/>
<polygon fill="black" stroke="black" points="624.39,-171.5 614.39,-175 624.39,-178.5 624.39,-171.5"/>
</g>
<!-- WorksRoutingModule -->
<g id="node7" class="node">
<title>WorksRoutingModule</title>
<polygon fill="#8dd3c7" stroke="black" points="877.99,-122 874.99,-126 853.99,-126 850.99,-122 736.01,-122 736.01,-86 877.99,-86 877.99,-122"/>
<text text-anchor="middle" x="807" y="-99.8" font-family="Times,serif" font-size="14.00">WorksRoutingModule</text>
</g>
<!-- WorksRoutingModule&#45;&gt;WorksModule -->
<g id="edge6" class="edge">
<title>WorksRoutingModule&#45;&gt;WorksModule</title>
<path fill="none" stroke="black" d="M807,-122.02C807,-139.37 807,-163 807,-163 807,-163 624.48,-163 624.48,-163"/>
<polygon fill="black" stroke="black" points="624.48,-159.5 614.48,-163 624.48,-166.5 624.48,-159.5"/>
</g>
</g>
</svg>
