<?xml version="1.0" encoding="UTF-8" standalone="no"?>
<!DOCTYPE svg PUBLIC "-//W3C//DTD SVG 1.1//EN"
 "http://www.w3.org/Graphics/SVG/1.1/DTD/svg11.dtd">
<!-- Generated by graphviz version 2.47.0 (20210316.0004)
 -->
<!-- Title: dependencies Pages: 1 -->
<svg width="1026pt" height="211pt"
 viewBox="0.00 0.00 1026.00 211.00" xmlns="http://www.w3.org/2000/svg" xmlns:xlink="http://www.w3.org/1999/xlink">
<g id="graph0" class="graph" transform="scale(1 1) rotate(0) translate(4 207)">
<title>dependencies</title>
<polygon fill="white" stroke="transparent" points="-4,4 -4,-207 1022,-207 1022,4 -4,4"/>
<text text-anchor="start" x="488.01" y="-42.4" font-family="sans-serif" font-weight="bold" font-size="14.00">Legend</text>
<polygon fill="#ffffb3" stroke="transparent" points="275,-10 275,-30 295,-30 295,-10 275,-10"/>
<text text-anchor="start" x="298.63" y="-15.4" font-family="sans-serif" font-size="14.00"> &#160;Declarations</text>
<polygon fill="#8dd3c7" stroke="transparent" points="388,-10 388,-30 408,-30 408,-10 388,-10"/>
<text text-anchor="start" x="411.73" y="-15.4" font-family="sans-serif" font-size="14.00"> &#160;Module</text>
<polygon fill="#80b1d3" stroke="transparent" points="474,-10 474,-30 494,-30 494,-10 474,-10"/>
<text text-anchor="start" x="497.78" y="-15.4" font-family="sans-serif" font-size="14.00"> &#160;Bootstrap</text>
<polygon fill="#fdb462" stroke="transparent" points="571,-10 571,-30 591,-30 591,-10 571,-10"/>
<text text-anchor="start" x="594.67" y="-15.4" font-family="sans-serif" font-size="14.00"> &#160;Providers</text>
<polygon fill="#fb8072" stroke="transparent" points="667,-10 667,-30 687,-30 687,-10 667,-10"/>
<text text-anchor="start" x="690.73" y="-15.4" font-family="sans-serif" font-size="14.00"> &#160;Exports</text>
<g id="clust1" class="cluster">
<title>cluster_WorksModule</title>
<polygon fill="none" stroke="black" stroke-dasharray="1,5" points="8,-70 8,-195 1010,-195 1010,-70 8,-70"/>
</g>
<g id="clust2" class="cluster">
<title>cluster_WorksModule_declarations</title>
<polygon fill="none" stroke="black" points="298,-78 298,-130 1002,-130 1002,-78 298,-78"/>
</g>
<g id="clust7" class="cluster">
<title>cluster_WorksModule_imports</title>
<polygon fill="none" stroke="black" points="16,-78 16,-130 290,-130 290,-78 16,-78"/>
</g>
<!-- WorksComponent -->
<g id="node1" class="node">
<title>WorksComponent</title>
<polygon fill="#ffffb3" stroke="black" points="994.15,-122 875.85,-122 875.85,-86 994.15,-86 994.15,-122"/>
<text text-anchor="middle" x="935" y="-99.8" font-family="Times,serif" font-size="14.00">WorksComponent</text>
</g>
<!-- WorksModule -->
<g id="node5" class="node">
<title>WorksModule</title>
<polygon fill="#8dd3c7" stroke="black" points="530.37,-187 527.37,-191 506.37,-191 503.37,-187 433.63,-187 433.63,-151 530.37,-151 530.37,-187"/>
<text text-anchor="middle" x="482" y="-164.8" font-family="Times,serif" font-size="14.00">WorksModule</text>
</g>
<!-- WorksComponent&#45;&gt;WorksModule -->
<g id="edge1" class="edge">
<title>WorksComponent&#45;&gt;WorksModule</title>
<path fill="none" stroke="black" d="M935,-122.28C935,-143.32 935,-175 935,-175 935,-175 540.48,-175 540.48,-175"/>
<polygon fill="black" stroke="black" points="540.48,-171.5 530.48,-175 540.48,-178.5 540.48,-171.5"/>
</g>
<!-- WorksMoldenhauerComponent -->
<g id="node2" class="node">
<title>WorksMoldenhauerComponent</title>
<polygon fill="#ffffb3" stroke="black" points="857.79,-122 664.21,-122 664.21,-86 857.79,-86 857.79,-122"/>
<text text-anchor="middle" x="761" y="-99.8" font-family="Times,serif" font-size="14.00">WorksMoldenhauerComponent</text>
</g>
<!-- WorksMoldenhauerComponent&#45;&gt;WorksModule -->
<g id="edge2" class="edge">
<title>WorksMoldenhauerComponent&#45;&gt;WorksModule</title>
<path fill="none" stroke="black" d="M761,-122.02C761,-139.37 761,-163 761,-163 761,-163 540.6,-163 540.6,-163"/>
<polygon fill="black" stroke="black" points="540.6,-159.5 530.6,-163 540.6,-166.5 540.6,-159.5"/>
</g>
<!-- WorksOpusComponent -->
<g id="node3" class="node">
<title>WorksOpusComponent</title>
<polygon fill="#ffffb3" stroke="black" points="646.2,-122 497.8,-122 497.8,-86 646.2,-86 646.2,-122"/>
<text text-anchor="middle" x="572" y="-99.8" font-family="Times,serif" font-size="14.00">WorksOpusComponent</text>
</g>
<!-- WorksOpusComponent&#45;&gt;WorksModule -->
<g id="edge3" class="edge">
<title>WorksOpusComponent&#45;&gt;WorksModule</title>
<path fill="none" stroke="black" d="M514.17,-122.11C514.17,-122.11 514.17,-140.99 514.17,-140.99"/>
<polygon fill="black" stroke="black" points="510.67,-140.99 514.17,-150.99 517.67,-140.99 510.67,-140.99"/>
</g>
<!-- WorksOverviewComponent -->
<g id="node4" class="node">
<title>WorksOverviewComponent</title>
<polygon fill="#ffffb3" stroke="black" points="479.85,-122 306.15,-122 306.15,-86 479.85,-86 479.85,-122"/>
<text text-anchor="middle" x="393" y="-99.8" font-family="Times,serif" font-size="14.00">WorksOverviewComponent</text>
</g>
<!-- WorksOverviewComponent&#45;&gt;WorksModule -->
<g id="edge4" class="edge">
<title>WorksOverviewComponent&#45;&gt;WorksModule</title>
<path fill="none" stroke="black" d="M456.74,-122.11C456.74,-122.11 456.74,-140.99 456.74,-140.99"/>
<polygon fill="black" stroke="black" points="453.24,-140.99 456.74,-150.99 460.24,-140.99 453.24,-140.99"/>
</g>
<!-- SharedModule -->
<g id="node6" class="node">
<title>SharedModule</title>
<polygon fill="#8dd3c7" stroke="black" points="282.42,-122 279.42,-126 258.42,-126 255.42,-122 183.58,-122 183.58,-86 282.42,-86 282.42,-122"/>
<text text-anchor="middle" x="233" y="-99.8" font-family="Times,serif" font-size="14.00">SharedModule</text>
</g>
<!-- SharedModule&#45;&gt;WorksModule -->
<g id="edge5" class="edge">
<title>SharedModule&#45;&gt;WorksModule</title>
<path fill="none" stroke="black" d="M233,-122.02C233,-139.37 233,-163 233,-163 233,-163 423.4,-163 423.4,-163"/>
<polygon fill="black" stroke="black" points="423.4,-166.5 433.4,-163 423.4,-159.5 423.4,-166.5"/>
</g>
<!-- WorksRoutingModule -->
<g id="node7" class="node">
<title>WorksRoutingModule</title>
<polygon fill="#8dd3c7" stroke="black" points="165.99,-122 162.99,-126 141.99,-126 138.99,-122 24.01,-122 24.01,-86 165.99,-86 165.99,-122"/>
<text text-anchor="middle" x="95" y="-99.8" font-family="Times,serif" font-size="14.00">WorksRoutingModule</text>
</g>
<!-- WorksRoutingModule&#45;&gt;WorksModule -->
<g id="edge6" class="edge">
<title>WorksRoutingModule&#45;&gt;WorksModule</title>
<path fill="none" stroke="black" d="M95,-122.28C95,-143.32 95,-175 95,-175 95,-175 423.38,-175 423.38,-175"/>
<polygon fill="black" stroke="black" points="423.38,-178.5 433.38,-175 423.38,-171.5 423.38,-178.5"/>
</g>
</g>
</svg>
