<?xml version="1.0" encoding="UTF-8" standalone="no"?>
<!DOCTYPE svg PUBLIC "-//W3C//DTD SVG 1.1//EN"
 "http://www.w3.org/Graphics/SVG/1.1/DTD/svg11.dtd">
<!-- Generated by graphviz version 5.0.0 (20220707.1540)
 -->
<!-- Title: dependencies Pages: 1 -->
<svg width="1026pt" height="174pt"
 viewBox="0.00 0.00 1026.00 173.80" xmlns="http://www.w3.org/2000/svg" xmlns:xlink="http://www.w3.org/1999/xlink">
<g id="graph0" class="graph" transform="scale(1 1) rotate(0) translate(4 169.8)">
<title>dependencies</title>
<polygon fill="white" stroke="transparent" points="-4,4 -4,-169.8 1022,-169.8 1022,4 -4,4"/>
<text text-anchor="middle" x="509" y="-8.2" font-family="sans-serif" font-size="14.00">dependencies</text>
<g id="clust1" class="cluster">
<title>cluster_WorksModule</title>
<polygon fill="none" stroke="black" stroke-dasharray="1,5" points="8,-32.8 8,-157.8 1010,-157.8 1010,-32.8 8,-32.8"/>
</g>
<g id="clust7" class="cluster">
<title>cluster_WorksModule_imports</title>
<polygon fill="none" stroke="black" points="728,-40.8 728,-92.8 1002,-92.8 1002,-40.8 728,-40.8"/>
</g>
<g id="clust2" class="cluster">
<title>cluster_WorksModule_declarations</title>
<polygon fill="none" stroke="black" points="16,-40.8 16,-92.8 720,-92.8 720,-40.8 16,-40.8"/>
</g>
<!-- WorksComponent -->
<g id="node1" class="node">
<title>WorksComponent</title>
<polygon fill="#ffffb3" stroke="black" points="712.16,-84.8 593.84,-84.8 593.84,-48.8 712.16,-48.8 712.16,-84.8"/>
<text text-anchor="middle" x="653" y="-62.6" font-family="Times,serif" font-size="14.00">WorksComponent</text>
</g>
<!-- WorksModule -->
<g id="node5" class="node">
<title>WorksModule</title>
<polygon fill="#8dd3c7" stroke="black" points="614.38,-149.8 611.38,-153.8 590.38,-153.8 587.38,-149.8 517.62,-149.8 517.62,-113.8 614.38,-113.8 614.38,-149.8"/>
<text text-anchor="middle" x="566" y="-127.6" font-family="Times,serif" font-size="14.00">WorksModule</text>
</g>
<!-- WorksComponent&#45;&gt;WorksModule -->
<g id="edge1" class="edge">
<title>WorksComponent&#45;&gt;WorksModule</title>
<path fill="none" stroke="black" d="M604.06,-84.91C604.06,-84.91 604.06,-103.79 604.06,-103.79"/>
<polygon fill="black" stroke="black" points="600.56,-103.79 604.06,-113.79 607.56,-103.79 600.56,-103.79"/>
</g>
<!-- WorksMoldenhauerComponent -->
<g id="node2" class="node">
<title>WorksMoldenhauerComponent</title>
<polygon fill="#ffffb3" stroke="black" points="575.8,-84.8 382.2,-84.8 382.2,-48.8 575.8,-48.8 575.8,-84.8"/>
<text text-anchor="middle" x="479" y="-62.6" font-family="Times,serif" font-size="14.00">WorksMoldenhauerComponent</text>
</g>
<!-- WorksMoldenhauerComponent&#45;&gt;WorksModule -->
<g id="edge2" class="edge">
<title>WorksMoldenhauerComponent&#45;&gt;WorksModule</title>
<path fill="none" stroke="black" d="M546.61,-84.91C546.61,-84.91 546.61,-103.79 546.61,-103.79"/>
<polygon fill="black" stroke="black" points="543.11,-103.79 546.61,-113.79 550.11,-103.79 543.11,-103.79"/>
</g>
<!-- WorksOpusComponent -->
<g id="node3" class="node">
<title>WorksOpusComponent</title>
<polygon fill="#ffffb3" stroke="black" points="364.21,-84.8 215.79,-84.8 215.79,-48.8 364.21,-48.8 364.21,-84.8"/>
<text text-anchor="middle" x="290" y="-62.6" font-family="Times,serif" font-size="14.00">WorksOpusComponent</text>
</g>
<!-- WorksOpusComponent&#45;&gt;WorksModule -->
<g id="edge3" class="edge">
<title>WorksOpusComponent&#45;&gt;WorksModule</title>
<path fill="none" stroke="black" d="M290,-84.82C290,-102.17 290,-125.8 290,-125.8 290,-125.8 507.61,-125.8 507.61,-125.8"/>
<polygon fill="black" stroke="black" points="507.61,-129.3 517.61,-125.8 507.61,-122.3 507.61,-129.3"/>
</g>
<!-- WorksOverviewComponent -->
<g id="node4" class="node">
<title>WorksOverviewComponent</title>
<polygon fill="#ffffb3" stroke="black" points="197.86,-84.8 24.14,-84.8 24.14,-48.8 197.86,-48.8 197.86,-84.8"/>
<text text-anchor="middle" x="111" y="-62.6" font-family="Times,serif" font-size="14.00">WorksOverviewComponent</text>
</g>
<!-- WorksOverviewComponent&#45;&gt;WorksModule -->
<g id="edge4" class="edge">
<title>WorksOverviewComponent&#45;&gt;WorksModule</title>
<path fill="none" stroke="black" d="M111,-85.08C111,-106.12 111,-137.8 111,-137.8 111,-137.8 507.31,-137.8 507.31,-137.8"/>
<polygon fill="black" stroke="black" points="507.31,-141.3 517.31,-137.8 507.31,-134.3 507.31,-141.3"/>
</g>
<!-- SharedModule -->
<g id="node6" class="node">
<title>SharedModule</title>
<polygon fill="#8dd3c7" stroke="black" points="994.43,-84.8 991.43,-88.8 970.43,-88.8 967.43,-84.8 895.57,-84.8 895.57,-48.8 994.43,-48.8 994.43,-84.8"/>
<text text-anchor="middle" x="945" y="-62.6" font-family="Times,serif" font-size="14.00">SharedModule</text>
</g>
<!-- SharedModule&#45;&gt;WorksModule -->
<g id="edge5" class="edge">
<title>SharedModule&#45;&gt;WorksModule</title>
<path fill="none" stroke="black" d="M945,-85.08C945,-106.12 945,-137.8 945,-137.8 945,-137.8 624.39,-137.8 624.39,-137.8"/>
<polygon fill="black" stroke="black" points="624.39,-134.3 614.39,-137.8 624.39,-141.3 624.39,-134.3"/>
</g>
<!-- WorksRoutingModule -->
<g id="node7" class="node">
<title>WorksRoutingModule</title>
<polygon fill="#8dd3c7" stroke="black" points="877.99,-84.8 874.99,-88.8 853.99,-88.8 850.99,-84.8 736.01,-84.8 736.01,-48.8 877.99,-48.8 877.99,-84.8"/>
<text text-anchor="middle" x="807" y="-62.6" font-family="Times,serif" font-size="14.00">WorksRoutingModule</text>
</g>
<!-- WorksRoutingModule&#45;&gt;WorksModule -->
<g id="edge6" class="edge">
<title>WorksRoutingModule&#45;&gt;WorksModule</title>
<path fill="none" stroke="black" d="M807,-84.82C807,-102.17 807,-125.8 807,-125.8 807,-125.8 624.48,-125.8 624.48,-125.8"/>
<polygon fill="black" stroke="black" points="624.48,-122.3 614.48,-125.8 624.48,-129.3 624.48,-122.3"/>
</g>
</g>
</svg>
