<?xml version="1.0" encoding="UTF-8" standalone="no"?>
<!DOCTYPE svg PUBLIC "-//W3C//DTD SVG 1.1//EN"
 "http://www.w3.org/Graphics/SVG/1.1/DTD/svg11.dtd">
<!-- Generated by graphviz version 2.47.0 (20210316.0004)
 -->
<!-- Title: dependencies Pages: 1 -->
<svg width="1429pt" height="211pt"
 viewBox="0.00 0.00 1429.00 211.00" xmlns="http://www.w3.org/2000/svg" xmlns:xlink="http://www.w3.org/1999/xlink">
<g id="graph0" class="graph" transform="scale(1 1) rotate(0) translate(4 207)">
<title>dependencies</title>
<polygon fill="white" stroke="transparent" points="-4,4 -4,-207 1425,-207 1425,4 -4,4"/>
<text text-anchor="start" x="689.51" y="-42.4" font-family="Times-12" font-weight="bold" font-size="14.00">Legend</text>
<polygon fill="#ffffb3" stroke="transparent" points="476.5,-10 476.5,-30 496.5,-30 496.5,-10 476.5,-10"/>
<text text-anchor="start" x="500.13" y="-15.4" font-family="Times-12" font-size="14.00"> &#160;Declarations</text>
<polygon fill="#8dd3c7" stroke="transparent" points="589.5,-10 589.5,-30 609.5,-30 609.5,-10 589.5,-10"/>
<text text-anchor="start" x="613.23" y="-15.4" font-family="Times-12" font-size="14.00"> &#160;Module</text>
<polygon fill="#80b1d3" stroke="transparent" points="675.5,-10 675.5,-30 695.5,-30 695.5,-10 675.5,-10"/>
<text text-anchor="start" x="699.28" y="-15.4" font-family="Times-12" font-size="14.00"> &#160;Bootstrap</text>
<polygon fill="#fdb462" stroke="transparent" points="772.5,-10 772.5,-30 792.5,-30 792.5,-10 772.5,-10"/>
<text text-anchor="start" x="796.17" y="-15.4" font-family="Times-12" font-size="14.00"> &#160;Providers</text>
<polygon fill="#fb8072" stroke="transparent" points="868.5,-10 868.5,-30 888.5,-30 888.5,-10 868.5,-10"/>
<text text-anchor="start" x="892.23" y="-15.4" font-family="Times-12" font-size="14.00"> &#160;Exports</text>
<g id="clust1" class="cluster">
<title>cluster_ProjectModule</title>
<polygon fill="none" stroke="black" stroke-dasharray="1,5" points="8,-70 8,-195 1413,-195 1413,-70 8,-70"/>
</g>
<g id="clust2" class="cluster">
<title>cluster_ProjectModule_declarations</title>
<polygon fill="none" stroke="black" points="300,-78 300,-130 1405,-130 1405,-78 300,-78"/>
</g>
<g id="clust9" class="cluster">
<title>cluster_ProjectModule_imports</title>
<polygon fill="none" stroke="black" points="16,-78 16,-130 292,-130 292,-78 16,-78"/>
</g>
<!-- ProjectBoardComponent -->
<g id="node1" class="node">
<title>ProjectBoardComponent</title>
<polygon fill="#ffffb3" stroke="black" points="1396.7,-122 1241.3,-122 1241.3,-86 1396.7,-86 1396.7,-122"/>
<text text-anchor="middle" x="1319" y="-99.8" font-family="Times,serif" font-size="14.00">ProjectBoardComponent</text>
</g>
<!-- ProjectModule -->
<g id="node7" class="node">
<title>ProjectModule</title>
<polygon fill="#8dd3c7" stroke="black" points="718.7,-187 715.7,-191 694.7,-191 691.7,-187 619.3,-187 619.3,-151 718.7,-151 718.7,-187"/>
<text text-anchor="middle" x="669" y="-164.8" font-family="Times,serif" font-size="14.00">ProjectModule</text>
</g>
<!-- ProjectBoardComponent&#45;&gt;ProjectModule -->
<g id="edge1" class="edge">
<title>ProjectBoardComponent&#45;&gt;ProjectModule</title>
<path fill="none" stroke="black" d="M1319,-122.29C1319,-144.21 1319,-178 1319,-178 1319,-178 728.66,-178 728.66,-178"/>
<polygon fill="black" stroke="black" points="728.66,-174.5 718.66,-178 728.66,-181.5 728.66,-174.5"/>
</g>
<!-- ProjectComponent -->
<g id="node2" class="node">
<title>ProjectComponent</title>
<polygon fill="#ffffb3" stroke="black" points="1223.49,-122 1102.51,-122 1102.51,-86 1223.49,-86 1223.49,-122"/>
<text text-anchor="middle" x="1163" y="-99.8" font-family="Times,serif" font-size="14.00">ProjectComponent</text>
</g>
<!-- ProjectComponent&#45;&gt;ProjectModule -->
<g id="edge2" class="edge">
<title>ProjectComponent&#45;&gt;ProjectModule</title>
<path fill="none" stroke="black" d="M1163,-122.11C1163,-141.34 1163,-169 1163,-169 1163,-169 728.63,-169 728.63,-169"/>
<polygon fill="black" stroke="black" points="728.63,-165.5 718.63,-169 728.63,-172.5 728.63,-165.5"/>
</g>
<!-- ProjectCooperationsComponent -->
<g id="node3" class="node">
<title>ProjectCooperationsComponent</title>
<polygon fill="#ffffb3" stroke="black" points="1084.64,-122 889.36,-122 889.36,-86 1084.64,-86 1084.64,-122"/>
<text text-anchor="middle" x="987" y="-99.8" font-family="Times,serif" font-size="14.00">ProjectCooperationsComponent</text>
</g>
<!-- ProjectCooperationsComponent&#45;&gt;ProjectModule -->
<g id="edge3" class="edge">
<title>ProjectCooperationsComponent&#45;&gt;ProjectModule</title>
<path fill="none" stroke="black" d="M987,-122.03C987,-138.4 987,-160 987,-160 987,-160 728.69,-160 728.69,-160"/>
<polygon fill="black" stroke="black" points="728.69,-156.5 718.69,-160 728.69,-163.5 728.69,-156.5"/>
</g>
<!-- ProjectNewsArchiveComponent -->
<g id="node4" class="node">
<title>ProjectNewsArchiveComponent</title>
<polygon fill="#ffffb3" stroke="black" points="870.95,-122 673.05,-122 673.05,-86 870.95,-86 870.95,-122"/>
<text text-anchor="middle" x="772" y="-99.8" font-family="Times,serif" font-size="14.00">ProjectNewsArchiveComponent</text>
</g>
<!-- ProjectNewsArchiveComponent&#45;&gt;ProjectModule -->
<g id="edge4" class="edge">
<title>ProjectNewsArchiveComponent&#45;&gt;ProjectModule</title>
<path fill="none" stroke="black" d="M695.81,-122.11C695.81,-122.11 695.81,-140.99 695.81,-140.99"/>
<polygon fill="black" stroke="black" points="692.31,-140.99 695.81,-150.99 699.31,-140.99 692.31,-140.99"/>
</g>
<!-- ProjectOverviewComponent -->
<g id="node5" class="node">
<title>ProjectOverviewComponent</title>
<polygon fill="#ffffb3" stroke="black" points="655.18,-122 478.82,-122 478.82,-86 655.18,-86 655.18,-122"/>
<text text-anchor="middle" x="567" y="-99.8" font-family="Times,serif" font-size="14.00">ProjectOverviewComponent</text>
</g>
<!-- ProjectOverviewComponent&#45;&gt;ProjectModule -->
<g id="edge5" class="edge">
<title>ProjectOverviewComponent&#45;&gt;ProjectModule</title>
<path fill="none" stroke="black" d="M637.24,-122.11C637.24,-122.11 637.24,-140.99 637.24,-140.99"/>
<polygon fill="black" stroke="black" points="633.74,-140.99 637.24,-150.99 640.74,-140.99 633.74,-140.99"/>
</g>
<!-- ProjectTeamComponent -->
<g id="node6" class="node">
<title>ProjectTeamComponent</title>
<polygon fill="#ffffb3" stroke="black" points="460.36,-122 307.64,-122 307.64,-86 460.36,-86 460.36,-122"/>
<text text-anchor="middle" x="384" y="-99.8" font-family="Times,serif" font-size="14.00">ProjectTeamComponent</text>
</g>
<!-- ProjectTeamComponent&#45;&gt;ProjectModule -->
<g id="edge6" class="edge">
<title>ProjectTeamComponent&#45;&gt;ProjectModule</title>
<path fill="none" stroke="black" d="M384,-122.03C384,-138.4 384,-160 384,-160 384,-160 609.36,-160 609.36,-160"/>
<polygon fill="black" stroke="black" points="609.36,-163.5 619.36,-160 609.36,-156.5 609.36,-163.5"/>
</g>
<!-- ProjectRoutingModule -->
<g id="node8" class="node">
<title>ProjectRoutingModule</title>
<polygon fill="#8dd3c7" stroke="black" points="284.32,-122 281.32,-126 260.32,-126 257.32,-122 139.68,-122 139.68,-86 284.32,-86 284.32,-122"/>
<text text-anchor="middle" x="212" y="-99.8" font-family="Times,serif" font-size="14.00">ProjectRoutingModule</text>
</g>
<!-- ProjectRoutingModule&#45;&gt;ProjectModule -->
<g id="edge7" class="edge">
<title>ProjectRoutingModule&#45;&gt;ProjectModule</title>
<path fill="none" stroke="black" d="M212,-122.11C212,-141.34 212,-169 212,-169 212,-169 609.22,-169 609.22,-169"/>
<polygon fill="black" stroke="black" points="609.22,-172.5 619.22,-169 609.22,-165.5 609.22,-172.5"/>
</g>
<!-- SharedModule -->
<g id="node9" class="node">
<title>SharedModule</title>
<polygon fill="#8dd3c7" stroke="black" points="122.42,-122 119.42,-126 98.42,-126 95.42,-122 23.58,-122 23.58,-86 122.42,-86 122.42,-122"/>
<text text-anchor="middle" x="73" y="-99.8" font-family="Times,serif" font-size="14.00">SharedModule</text>
</g>
<!-- SharedModule&#45;&gt;ProjectModule -->
<g id="edge8" class="edge">
<title>SharedModule&#45;&gt;ProjectModule</title>
<path fill="none" stroke="black" d="M73,-122.29C73,-144.21 73,-178 73,-178 73,-178 609.21,-178 609.21,-178"/>
<polygon fill="black" stroke="black" points="609.21,-181.5 619.21,-178 609.21,-174.5 609.21,-181.5"/>
</g>
</g>
</svg>
