<?xml version="1.0" encoding="UTF-8" standalone="no"?>
<!DOCTYPE svg PUBLIC "-//W3C//DTD SVG 1.1//EN"
 "http://www.w3.org/Graphics/SVG/1.1/DTD/svg11.dtd">
<!-- Generated by graphviz version 2.47.0 (20210316.0004)
 -->
<!-- Title: dependencies Pages: 1 -->
<svg width="1429pt" height="211pt"
 viewBox="0.00 0.00 1429.00 211.00" xmlns="http://www.w3.org/2000/svg" xmlns:xlink="http://www.w3.org/1999/xlink">
<g id="graph0" class="graph" transform="scale(1 1) rotate(0) translate(4 207)">
<title>dependencies</title>
<polygon fill="white" stroke="transparent" points="-4,4 -4,-207 1425,-207 1425,4 -4,4"/>
<text text-anchor="start" x="689.51" y="-42.4" font-family="sans-serif" font-weight="bold" font-size="14.00">Legend</text>
<polygon fill="#ffffb3" stroke="transparent" points="476.5,-10 476.5,-30 496.5,-30 496.5,-10 476.5,-10"/>
<text text-anchor="start" x="500.13" y="-15.4" font-family="sans-serif" font-size="14.00"> &#160;Declarations</text>
<polygon fill="#8dd3c7" stroke="transparent" points="589.5,-10 589.5,-30 609.5,-30 609.5,-10 589.5,-10"/>
<text text-anchor="start" x="613.23" y="-15.4" font-family="sans-serif" font-size="14.00"> &#160;Module</text>
<polygon fill="#80b1d3" stroke="transparent" points="675.5,-10 675.5,-30 695.5,-30 695.5,-10 675.5,-10"/>
<text text-anchor="start" x="699.28" y="-15.4" font-family="sans-serif" font-size="14.00"> &#160;Bootstrap</text>
<polygon fill="#fdb462" stroke="transparent" points="772.5,-10 772.5,-30 792.5,-30 792.5,-10 772.5,-10"/>
<text text-anchor="start" x="796.17" y="-15.4" font-family="sans-serif" font-size="14.00"> &#160;Providers</text>
<polygon fill="#fb8072" stroke="transparent" points="868.5,-10 868.5,-30 888.5,-30 888.5,-10 868.5,-10"/>
<text text-anchor="start" x="892.23" y="-15.4" font-family="sans-serif" font-size="14.00"> &#160;Exports</text>
<g id="clust1" class="cluster">
<title>cluster_ProjectModule</title>
<polygon fill="none" stroke="black" stroke-dasharray="1,5" points="8,-70 8,-195 1413,-195 1413,-70 8,-70"/>
</g>
<g id="clust9" class="cluster">
<title>cluster_ProjectModule_imports</title>
<polygon fill="none" stroke="black" points="1129,-78 1129,-130 1405,-130 1405,-78 1129,-78"/>
</g>
<g id="clust2" class="cluster">
<title>cluster_ProjectModule_declarations</title>
<polygon fill="none" stroke="black" points="16,-78 16,-130 1121,-130 1121,-78 16,-78"/>
</g>
<!-- ProjectBoardComponent -->
<g id="node1" class="node">
<title>ProjectBoardComponent</title>
<polygon fill="#ffffb3" stroke="black" points="1112.7,-122 957.3,-122 957.3,-86 1112.7,-86 1112.7,-122"/>
<text text-anchor="middle" x="1035" y="-99.8" font-family="Times,serif" font-size="14.00">ProjectBoardComponent</text>
</g>
<!-- ProjectModule -->
<g id="node7" class="node">
<title>ProjectModule</title>
<polygon fill="#8dd3c7" stroke="black" points="840.7,-187 837.7,-191 816.7,-191 813.7,-187 741.3,-187 741.3,-151 840.7,-151 840.7,-187"/>
<text text-anchor="middle" x="791" y="-164.8" font-family="Times,serif" font-size="14.00">ProjectModule</text>
</g>
<!-- ProjectBoardComponent&#45;&gt;ProjectModule -->
<g id="edge1" class="edge">
<title>ProjectBoardComponent&#45;&gt;ProjectModule</title>
<path fill="none" stroke="black" d="M1035,-122.03C1035,-138.4 1035,-160 1035,-160 1035,-160 850.67,-160 850.67,-160"/>
<polygon fill="black" stroke="black" points="850.67,-156.5 840.67,-160 850.67,-163.5 850.67,-156.5"/>
</g>
<!-- ProjectComponent -->
<g id="node2" class="node">
<title>ProjectComponent</title>
<polygon fill="#ffffb3" stroke="black" points="939.49,-122 818.51,-122 818.51,-86 939.49,-86 939.49,-122"/>
<text text-anchor="middle" x="879" y="-99.8" font-family="Times,serif" font-size="14.00">ProjectComponent</text>
</g>
<!-- ProjectComponent&#45;&gt;ProjectModule -->
<g id="edge2" class="edge">
<title>ProjectComponent&#45;&gt;ProjectModule</title>
<path fill="none" stroke="black" d="M829.55,-122.11C829.55,-122.11 829.55,-140.99 829.55,-140.99"/>
<polygon fill="black" stroke="black" points="826.05,-140.99 829.55,-150.99 833.05,-140.99 826.05,-140.99"/>
</g>
<!-- ProjectCooperationsComponent -->
<g id="node3" class="node">
<title>ProjectCooperationsComponent</title>
<polygon fill="#ffffb3" stroke="black" points="800.64,-122 605.36,-122 605.36,-86 800.64,-86 800.64,-122"/>
<text text-anchor="middle" x="703" y="-99.8" font-family="Times,serif" font-size="14.00">ProjectCooperationsComponent</text>
</g>
<!-- ProjectCooperationsComponent&#45;&gt;ProjectModule -->
<g id="edge3" class="edge">
<title>ProjectCooperationsComponent&#45;&gt;ProjectModule</title>
<path fill="none" stroke="black" d="M771.11,-122.11C771.11,-122.11 771.11,-140.99 771.11,-140.99"/>
<polygon fill="black" stroke="black" points="767.61,-140.99 771.11,-150.99 774.61,-140.99 767.61,-140.99"/>
</g>
<!-- ProjectNewsArchiveComponent -->
<g id="node4" class="node">
<title>ProjectNewsArchiveComponent</title>
<polygon fill="#ffffb3" stroke="black" points="586.95,-122 389.05,-122 389.05,-86 586.95,-86 586.95,-122"/>
<text text-anchor="middle" x="488" y="-99.8" font-family="Times,serif" font-size="14.00">ProjectNewsArchiveComponent</text>
</g>
<!-- ProjectNewsArchiveComponent&#45;&gt;ProjectModule -->
<g id="edge4" class="edge">
<title>ProjectNewsArchiveComponent&#45;&gt;ProjectModule</title>
<path fill="none" stroke="black" d="M488,-122.03C488,-138.4 488,-160 488,-160 488,-160 731.31,-160 731.31,-160"/>
<polygon fill="black" stroke="black" points="731.31,-163.5 741.31,-160 731.3,-156.5 731.31,-163.5"/>
</g>
<!-- ProjectOverviewComponent -->
<g id="node5" class="node">
<title>ProjectOverviewComponent</title>
<polygon fill="#ffffb3" stroke="black" points="371.18,-122 194.82,-122 194.82,-86 371.18,-86 371.18,-122"/>
<text text-anchor="middle" x="283" y="-99.8" font-family="Times,serif" font-size="14.00">ProjectOverviewComponent</text>
</g>
<!-- ProjectOverviewComponent&#45;&gt;ProjectModule -->
<g id="edge5" class="edge">
<title>ProjectOverviewComponent&#45;&gt;ProjectModule</title>
<path fill="none" stroke="black" d="M283,-122.11C283,-141.34 283,-169 283,-169 283,-169 731.37,-169 731.37,-169"/>
<polygon fill="black" stroke="black" points="731.37,-172.5 741.37,-169 731.37,-165.5 731.37,-172.5"/>
</g>
<!-- ProjectTeamComponent -->
<g id="node6" class="node">
<title>ProjectTeamComponent</title>
<polygon fill="#ffffb3" stroke="black" points="176.36,-122 23.64,-122 23.64,-86 176.36,-86 176.36,-122"/>
<text text-anchor="middle" x="100" y="-99.8" font-family="Times,serif" font-size="14.00">ProjectTeamComponent</text>
</g>
<!-- ProjectTeamComponent&#45;&gt;ProjectModule -->
<g id="edge6" class="edge">
<title>ProjectTeamComponent&#45;&gt;ProjectModule</title>
<path fill="none" stroke="black" d="M100,-122.29C100,-144.21 100,-178 100,-178 100,-178 731.3,-178 731.3,-178"/>
<polygon fill="black" stroke="black" points="731.31,-181.5 741.3,-178 731.3,-174.5 731.31,-181.5"/>
</g>
<!-- ProjectRoutingModule -->
<g id="node8" class="node">
<title>ProjectRoutingModule</title>
<polygon fill="#8dd3c7" stroke="black" points="1397.32,-122 1394.32,-126 1373.32,-126 1370.32,-122 1252.68,-122 1252.68,-86 1397.32,-86 1397.32,-122"/>
<text text-anchor="middle" x="1325" y="-99.8" font-family="Times,serif" font-size="14.00">ProjectRoutingModule</text>
</g>
<!-- ProjectRoutingModule&#45;&gt;ProjectModule -->
<g id="edge7" class="edge">
<title>ProjectRoutingModule&#45;&gt;ProjectModule</title>
<path fill="none" stroke="black" d="M1325,-122.29C1325,-144.21 1325,-178 1325,-178 1325,-178 850.76,-178 850.76,-178"/>
<polygon fill="black" stroke="black" points="850.76,-174.5 840.76,-178 850.76,-181.5 850.76,-174.5"/>
</g>
<!-- SharedModule -->
<g id="node9" class="node">
<title>SharedModule</title>
<polygon fill="#8dd3c7" stroke="black" points="1235.42,-122 1232.42,-126 1211.42,-126 1208.42,-122 1136.58,-122 1136.58,-86 1235.42,-86 1235.42,-122"/>
<text text-anchor="middle" x="1186" y="-99.8" font-family="Times,serif" font-size="14.00">SharedModule</text>
</g>
<!-- SharedModule&#45;&gt;ProjectModule -->
<g id="edge8" class="edge">
<title>SharedModule&#45;&gt;ProjectModule</title>
<path fill="none" stroke="black" d="M1186,-122.11C1186,-141.34 1186,-169 1186,-169 1186,-169 850.63,-169 850.63,-169"/>
<polygon fill="black" stroke="black" points="850.63,-165.5 840.63,-169 850.63,-172.5 850.63,-165.5"/>
</g>
</g>
</svg>
