<?xml version="1.0" encoding="UTF-8" standalone="no"?>
<!DOCTYPE svg PUBLIC "-//W3C//DTD SVG 1.1//EN"
 "http://www.w3.org/Graphics/SVG/1.1/DTD/svg11.dtd">
<!-- Generated by graphviz version 5.0.0 (20220707.1540)
 -->
<!-- Title: dependencies Pages: 1 -->
<svg width="1429pt" height="174pt"
 viewBox="0.00 0.00 1429.00 173.80" xmlns="http://www.w3.org/2000/svg" xmlns:xlink="http://www.w3.org/1999/xlink">
<g id="graph0" class="graph" transform="scale(1 1) rotate(0) translate(4 169.8)">
<title>dependencies</title>
<polygon fill="white" stroke="transparent" points="-4,4 -4,-169.8 1425,-169.8 1425,4 -4,4"/>
<text text-anchor="middle" x="710.5" y="-8.2" font-family="sans-serif" font-size="14.00">dependencies</text>
<g id="clust1" class="cluster">
<title>cluster_ProjectModule</title>
<polygon fill="none" stroke="black" stroke-dasharray="1,5" points="8,-32.8 8,-157.8 1413,-157.8 1413,-32.8 8,-32.8"/>
</g>
<g id="clust9" class="cluster">
<title>cluster_ProjectModule_imports</title>
<polygon fill="none" stroke="black" points="1129,-40.8 1129,-92.8 1405,-92.8 1405,-40.8 1129,-40.8"/>
</g>
<g id="clust2" class="cluster">
<title>cluster_ProjectModule_declarations</title>
<polygon fill="none" stroke="black" points="16,-40.8 16,-92.8 1121,-92.8 1121,-40.8 16,-40.8"/>
</g>
<!-- ProjectBoardComponent -->
<g id="node1" class="node">
<title>ProjectBoardComponent</title>
<polygon fill="#ffffb3" stroke="black" points="1112.7,-84.8 957.3,-84.8 957.3,-48.8 1112.7,-48.8 1112.7,-84.8"/>
<text text-anchor="middle" x="1035" y="-62.6" font-family="Times,serif" font-size="14.00">ProjectBoardComponent</text>
</g>
<!-- ProjectModule -->
<g id="node7" class="node">
<title>ProjectModule</title>
<polygon fill="#8dd3c7" stroke="black" points="840.71,-149.8 837.71,-153.8 816.71,-153.8 813.71,-149.8 741.29,-149.8 741.29,-113.8 840.71,-113.8 840.71,-149.8"/>
<text text-anchor="middle" x="791" y="-127.6" font-family="Times,serif" font-size="14.00">ProjectModule</text>
</g>
<!-- ProjectBoardComponent&#45;&gt;ProjectModule -->
<g id="edge1" class="edge">
<title>ProjectBoardComponent&#45;&gt;ProjectModule</title>
<path fill="none" stroke="black" d="M1035,-84.83C1035,-101.2 1035,-122.8 1035,-122.8 1035,-122.8 850.67,-122.8 850.67,-122.8"/>
<polygon fill="black" stroke="black" points="850.67,-119.3 840.67,-122.8 850.67,-126.3 850.67,-119.3"/>
</g>
<!-- ProjectComponent -->
<g id="node2" class="node">
<title>ProjectComponent</title>
<polygon fill="#ffffb3" stroke="black" points="939.49,-84.8 818.51,-84.8 818.51,-48.8 939.49,-48.8 939.49,-84.8"/>
<text text-anchor="middle" x="879" y="-62.6" font-family="Times,serif" font-size="14.00">ProjectComponent</text>
</g>
<!-- ProjectComponent&#45;&gt;ProjectModule -->
<g id="edge2" class="edge">
<title>ProjectComponent&#45;&gt;ProjectModule</title>
<path fill="none" stroke="black" d="M829.56,-84.91C829.56,-84.91 829.56,-103.79 829.56,-103.79"/>
<polygon fill="black" stroke="black" points="826.06,-103.79 829.56,-113.79 833.06,-103.79 826.06,-103.79"/>
</g>
<!-- ProjectCooperationsComponent -->
<g id="node3" class="node">
<title>ProjectCooperationsComponent</title>
<polygon fill="#ffffb3" stroke="black" points="800.64,-84.8 605.36,-84.8 605.36,-48.8 800.64,-48.8 800.64,-84.8"/>
<text text-anchor="middle" x="703" y="-62.6" font-family="Times,serif" font-size="14.00">ProjectCooperationsComponent</text>
</g>
<!-- ProjectCooperationsComponent&#45;&gt;ProjectModule -->
<g id="edge3" class="edge">
<title>ProjectCooperationsComponent&#45;&gt;ProjectModule</title>
<path fill="none" stroke="black" d="M771.11,-84.91C771.11,-84.91 771.11,-103.79 771.11,-103.79"/>
<polygon fill="black" stroke="black" points="767.61,-103.79 771.11,-113.79 774.61,-103.79 767.61,-103.79"/>
</g>
<!-- ProjectNewsArchiveComponent -->
<g id="node4" class="node">
<title>ProjectNewsArchiveComponent</title>
<polygon fill="#ffffb3" stroke="black" points="586.96,-84.8 389.04,-84.8 389.04,-48.8 586.96,-48.8 586.96,-84.8"/>
<text text-anchor="middle" x="488" y="-62.6" font-family="Times,serif" font-size="14.00">ProjectNewsArchiveComponent</text>
</g>
<!-- ProjectNewsArchiveComponent&#45;&gt;ProjectModule -->
<g id="edge4" class="edge">
<title>ProjectNewsArchiveComponent&#45;&gt;ProjectModule</title>
<path fill="none" stroke="black" d="M488,-84.83C488,-101.2 488,-122.8 488,-122.8 488,-122.8 731.31,-122.8 731.31,-122.8"/>
<polygon fill="black" stroke="black" points="731.31,-126.3 741.31,-122.8 731.3,-119.3 731.31,-126.3"/>
</g>
<!-- ProjectOverviewComponent -->
<g id="node5" class="node">
<title>ProjectOverviewComponent</title>
<polygon fill="#ffffb3" stroke="black" points="371.19,-84.8 194.81,-84.8 194.81,-48.8 371.19,-48.8 371.19,-84.8"/>
<text text-anchor="middle" x="283" y="-62.6" font-family="Times,serif" font-size="14.00">ProjectOverviewComponent</text>
</g>
<!-- ProjectOverviewComponent&#45;&gt;ProjectModule -->
<g id="edge5" class="edge">
<title>ProjectOverviewComponent&#45;&gt;ProjectModule</title>
<path fill="none" stroke="black" d="M283,-84.91C283,-104.14 283,-131.8 283,-131.8 283,-131.8 731.37,-131.8 731.37,-131.8"/>
<polygon fill="black" stroke="black" points="731.37,-135.3 741.37,-131.8 731.37,-128.3 731.37,-135.3"/>
</g>
<!-- ProjectTeamComponent -->
<g id="node6" class="node">
<title>ProjectTeamComponent</title>
<polygon fill="#ffffb3" stroke="black" points="176.36,-84.8 23.64,-84.8 23.64,-48.8 176.36,-48.8 176.36,-84.8"/>
<text text-anchor="middle" x="100" y="-62.6" font-family="Times,serif" font-size="14.00">ProjectTeamComponent</text>
</g>
<!-- ProjectTeamComponent&#45;&gt;ProjectModule -->
<g id="edge6" class="edge">
<title>ProjectTeamComponent&#45;&gt;ProjectModule</title>
<path fill="none" stroke="black" d="M100,-85.09C100,-107.01 100,-140.8 100,-140.8 100,-140.8 731.3,-140.8 731.3,-140.8"/>
<polygon fill="black" stroke="black" points="731.31,-144.3 741.3,-140.8 731.3,-137.3 731.31,-144.3"/>
</g>
<!-- ProjectRoutingModule -->
<g id="node8" class="node">
<title>ProjectRoutingModule</title>
<polygon fill="#8dd3c7" stroke="black" points="1397.32,-84.8 1394.32,-88.8 1373.32,-88.8 1370.32,-84.8 1252.68,-84.8 1252.68,-48.8 1397.32,-48.8 1397.32,-84.8"/>
<text text-anchor="middle" x="1325" y="-62.6" font-family="Times,serif" font-size="14.00">ProjectRoutingModule</text>
</g>
<!-- ProjectRoutingModule&#45;&gt;ProjectModule -->
<g id="edge7" class="edge">
<title>ProjectRoutingModule&#45;&gt;ProjectModule</title>
<path fill="none" stroke="black" d="M1325,-85.09C1325,-107.01 1325,-140.8 1325,-140.8 1325,-140.8 850.76,-140.8 850.76,-140.8"/>
<polygon fill="black" stroke="black" points="850.76,-137.3 840.76,-140.8 850.76,-144.3 850.76,-137.3"/>
</g>
<!-- SharedModule -->
<g id="node9" class="node">
<title>SharedModule</title>
<polygon fill="#8dd3c7" stroke="black" points="1235.43,-84.8 1232.43,-88.8 1211.43,-88.8 1208.43,-84.8 1136.57,-84.8 1136.57,-48.8 1235.43,-48.8 1235.43,-84.8"/>
<text text-anchor="middle" x="1186" y="-62.6" font-family="Times,serif" font-size="14.00">SharedModule</text>
</g>
<!-- SharedModule&#45;&gt;ProjectModule -->
<g id="edge8" class="edge">
<title>SharedModule&#45;&gt;ProjectModule</title>
<path fill="none" stroke="black" d="M1186,-84.91C1186,-104.14 1186,-131.8 1186,-131.8 1186,-131.8 850.63,-131.8 850.63,-131.8"/>
<polygon fill="black" stroke="black" points="850.63,-128.3 840.63,-131.8 850.63,-135.3 850.63,-128.3"/>
</g>
</g>
</svg>
